<svg xmlns="http://www.w3.org/2000/svg" xmlns:xlink="http://www.w3.org/1999/xlink" width="295" height="186" viewBox="0 0 295 186">
  <defs>
    <clipPath id="clip-path">
      <rect id="Rectángulo_376001" data-name="Rectángulo 376001" width="223.049" height="183.219" fill="none"/>
    </clipPath>
    <clipPath id="clip-path-3">
      <rect id="Rectángulo_375996" data-name="Rectángulo 375996" width="15.289" height="30.439" fill="none"/>
    </clipPath>
    <clipPath id="clip-path-4">
      <rect id="Rectángulo_375997" data-name="Rectángulo 375997" width="24.023" height="39.093" fill="none"/>
    </clipPath>
    <clipPath id="clip-path-5">
      <rect id="Rectángulo_375998" data-name="Rectángulo 375998" width="24.69" height="45.417" fill="none"/>
    </clipPath>
    <clipPath id="clip-path-6">
      <rect id="Rectángulo_375999" data-name="Rectángulo 375999" width="36.759" height="42.56" fill="none"/>
    </clipPath>
  </defs>
  <g id="Grupo_1071206" data-name="Grupo 1071206" transform="translate(-180 -3392)">
    <rect id="Rectángulo_375995" data-name="Rectángulo 375995" width="295" height="186" transform="translate(180 3392)" fill="none"/>
    <g id="Grupo_1071205" data-name="Grupo 1071205" transform="translate(216 3394.781)">
      <g id="Grupo_1071204" data-name="Grupo 1071204" clip-path="url(#clip-path)">
        <g id="Grupo_1071203" data-name="Grupo 1071203">
          <g id="Grupo_1071202" data-name="Grupo 1071202" clip-path="url(#clip-path)">
            <path id="Trazado_815433" data-name="Trazado 815433" d="M203.339,174.165c0,4.5-43.859,8.142-97.961,8.142s-97.961-3.645-97.961-8.142,43.859-8.142,97.961-8.142,97.961,3.645,97.961,8.142" transform="translate(0.041 0.913)" fill="#decec8"/>
            <path id="Trazado_815434" data-name="Trazado 815434" d="M55.312,158.691l-.488,8.2a3.42,3.42,0,0,0,1.91,3.277c3.594,1.763,11.2,4.572,16.711.242,0,0,.616-5.243-7.155-8.635Z" transform="translate(0.302 0.873)" fill="#2e2a29"/>
            <path id="Trazado_815435" data-name="Trazado 815435" d="M66.243,161.762l-2.664-.748c1.315,1.131,2.7,2.182,4.1,3.187,1.548,1.117,3,2.462,2.194,4.515-.684,1.745-2.411,2.993-3.985,3.966A11.3,11.3,0,0,0,73.4,170.4s.616-5.243-7.155-8.635" transform="translate(0.35 0.886)" fill="#262322"/>
            <path id="Trazado_815436" data-name="Trazado 815436" d="M53.483,111.56s5.168,39.232,8.927,44.635a9.966,9.966,0,0,1,5.4,3.366A9.814,9.814,0,0,1,69.85,164.1a23.59,23.59,0,0,1-5.012-.225,27.414,27.414,0,0,1-11.354-4.629l.655-1.881a9.332,9.332,0,0,0-.283-6.848c-3.137-7.075-10.286-24.033-12.823-37.08Z" transform="translate(0.226 0.614)" fill="#7f7671"/>
            <g id="Grupo_1071192" data-name="Grupo 1071192" transform="translate(41.219 112.076)" opacity="0.61" style="mix-blend-mode: multiply;isolation: isolate">
              <g id="Grupo_1071191" data-name="Grupo 1071191">
                <g id="Grupo_1071190" data-name="Grupo 1071190" clip-path="url(#clip-path-3)">
                  <path id="Trazado_815437" data-name="Trazado 815437" d="M56.283,130.458c-1.65-9.982-2.839-18.995-2.839-18.995l-12.45,1.879c1.786,9.186,5.858,20.309,9.207,28.559.317-.777,3.777-8.871,6.081-11.444" transform="translate(-40.994 -111.463)" fill="#7f7671"/>
                </g>
              </g>
            </g>
            <path id="Trazado_815438" data-name="Trazado 815438" d="M70.906,112.127,51.878,94.038l-17.855,24.9a23.828,23.828,0,0,0,10.162,4.13,11.2,11.2,0,0,0,1.854,4.079,1.782,1.782,0,0,0,3.131-.621,15.353,15.353,0,0,0,.529-3.192,24.755,24.755,0,0,0,3.554-.5,10.323,10.323,0,0,0,1.913,3.052,1.782,1.782,0,0,0,3.058-.918,14.97,14.97,0,0,0,.188-3.8q1.3-.563,2.638-1.3a10.331,10.331,0,0,0,2.231,2.82,1.782,1.782,0,0,0,2.939-1.245,14.278,14.278,0,0,0-.445-4.7,47.528,47.528,0,0,0,5.13-4.624" transform="translate(0.187 0.517)" fill="#e9a3a3"/>
            <path id="Trazado_815439" data-name="Trazado 815439" d="M52.091,110.49c4.49.6,8.893,1.7,13.4,2.2a41.279,41.279,0,0,0,4.446.376c.313-.308.625-.614.94-.94L51.845,94.038,40.009,110.547a45.214,45.214,0,0,1,12.082-.057" transform="translate(0.22 0.517)" fill="#d19292"/>
            <path id="Trazado_815440" data-name="Trazado 815440" d="M70.906,112.2l-2.785-2.647c-12.328,17.447-31.9,7.738-32.647,7.438l-1.451,2.022a23.828,23.828,0,0,0,10.162,4.13,11.2,11.2,0,0,0,1.854,4.079,1.782,1.782,0,0,0,3.131-.621A15.364,15.364,0,0,0,49.7,123.4a24.753,24.753,0,0,0,3.554-.5,10.336,10.336,0,0,0,1.913,3.052,1.783,1.783,0,0,0,3.058-.919,14.959,14.959,0,0,0,.188-3.795c.867-.376,1.747-.805,2.638-1.3a10.33,10.33,0,0,0,2.231,2.82,1.782,1.782,0,0,0,2.939-1.246,14.275,14.275,0,0,0-.445-4.7,47.74,47.74,0,0,0,5.13-4.624" transform="translate(0.187 0.603)" fill="#d19292"/>
            <path id="Trazado_815441" data-name="Trazado 815441" d="M152.27,158.691l-.489,8.2a3.423,3.423,0,0,0,1.91,3.277c3.595,1.763,11.2,4.572,16.712.242,0,0,.616-5.243-7.155-8.635Z" transform="translate(0.835 0.873)" fill="#2e2a29"/>
            <path id="Trazado_815442" data-name="Trazado 815442" d="M163.246,161.775l-10.979-3.084-.022.363,7.595,2.134c7.771,3.393,7.155,8.635,7.155,8.635a11.562,11.562,0,0,1-8.258,2.244c3.663.956,8.1,1.142,11.665-1.657,0,0,.616-5.243-7.155-8.635" transform="translate(0.837 0.873)" fill="#262322"/>
            <path id="Trazado_815443" data-name="Trazado 815443" d="M135.215,164.532l-.488,8.2a3.42,3.42,0,0,0,1.91,3.277c3.594,1.763,11.2,4.572,16.711.242,0,0,.616-5.243-7.155-8.635Z" transform="translate(0.741 0.905)" fill="#2e2a29"/>
            <path id="Trazado_815444" data-name="Trazado 815444" d="M146.191,167.616l-10.979-3.084-.022.363,7.595,2.134c7.772,3.393,7.155,8.635,7.155,8.635a11.562,11.562,0,0,1-8.258,2.244c3.663.956,8.1,1.142,11.665-1.657,0,0,.616-5.243-7.155-8.635" transform="translate(0.744 0.905)" fill="#262322"/>
            <path id="Trazado_815445" data-name="Trazado 815445" d="M159.382,108.789s2.115,18.323-4.933,27.956c0,0,.576,10.715,3.987,18.508,1.651.167,6.466,3.809,6.114,7.332,0,0-10.572,1.527-17.384-2.231a24.638,24.638,0,0,0,2.115-14.213s-5.639-38.292-13.626-41.816c0,0,11.511-5.168,23.727,4.463" transform="translate(0.746 0.566)" fill="#7f7671"/>
            <g id="Grupo_1071195" data-name="Grupo 1071195" transform="translate(136.401 103.663)" opacity="0.61" style="mix-blend-mode: multiply;isolation: isolate">
              <g id="Grupo_1071194" data-name="Grupo 1071194">
                <g id="Grupo_1071193" data-name="Grupo 1071193" clip-path="url(#clip-path-4)">
                  <path id="Trazado_815446" data-name="Trazado 815446" d="M156.2,133.971c4.912-9.991,3.177-25.027,3.177-25.027-12.216-9.632-23.727-4.463-23.727-4.463,6.369,2.809,11.245,27.728,12.958,37.708,2.525-2.741,5.04-5.5,7.592-8.218" transform="translate(-135.655 -103.096)" fill="#7f7671"/>
                </g>
              </g>
            </g>
            <path id="Trazado_815447" data-name="Trazado 815447" d="M49.339,35.837c23.254,6.439,40.556,1.988,64.525-2.506,30.069-5.638,40.876-4.228,58.024-6.813,7.954-1.2,25.024,8,32.81,9.945L190.752,73.048s-1.4,67.093-65.926,38.9c0,0-35.082,25.684-76.427-12.53,0,0-19.42-69.223.939-63.585" transform="translate(0.22 0.145)" fill="#c9c2b8"/>
            <path id="Trazado_815448" data-name="Trazado 815448" d="M167.137,107.6c-6.847,2.707-14.56,1.955-21.761.421s-9.03-3.939-16.389-4.185c-11.212-.377-16.576,7.07-39.624,5.951-16.13-.783-30.069-13-36.96-6.734,39,32.418,72.2,9.084,72.2,9.084,12.814,5.6,28.48,9.994,42.046,4.31,8.938-3.745,15.11-11.548,18.8-20.294a66.915,66.915,0,0,0,4.7-18.288,95.4,95.4,0,0,1-4.932,10.378c-4.246,7.976-9.676,16.037-18.079,19.358" transform="translate(0.288 0.428)" fill="#b3a69f"/>
            <path id="Trazado_815449" data-name="Trazado 815449" d="M191.119,67.867a6.906,6.906,0,0,0-.559,2.64c.284-1.165.593-2.33.895-3.511-.112.29-.224.58-.336.871" transform="translate(1.048 0.369)" fill="#b3a69f"/>
            <path id="Trazado_815450" data-name="Trazado 815450" d="M25.438,163.537l-.488,8.2a3.42,3.42,0,0,0,1.91,3.277c3.594,1.763,11.2,4.572,16.711.242,0,0,.616-5.243-7.155-8.635Z" transform="translate(0.137 0.9)" fill="#2e2a29"/>
            <path id="Trazado_815451" data-name="Trazado 815451" d="M36.212,166.608l-2.578-.724a14.991,14.991,0,0,1,3.352,2.849c.627.726,1.2,1.494,1.778,2.261.255.342.51.685.768,1.025a6.638,6.638,0,0,1,.931,1.18,2.428,2.428,0,0,1-.472,1.855,6.982,6.982,0,0,1-3.428,2.48,11.069,11.069,0,0,0,6.8-2.291s.616-5.243-7.155-8.635" transform="translate(0.185 0.912)" fill="#262322"/>
            <path id="Trazado_815452" data-name="Trazado 815452" d="M22.69,46.113a17.918,17.918,0,0,0-8.034,4.264,16.3,16.3,0,0,0-4.642,7.252,23.141,23.141,0,0,0-.578,8.87c.159,1.559.4,3.147.683,4.76l.936,4.932a129.975,129.975,0,0,1,2.509,20.443c.057,1.734.02,3.475-.044,5.213-.053.871-.082,1.739-.158,2.607-.093.869-.172,1.735-.287,2.6A47.15,47.15,0,0,1,10.662,117.2l-2.269-.607a71.1,71.1,0,0,0,.392-19.652c-.315-3.275-.856-6.538-1.423-9.807-.584-3.268-1.253-6.538-1.938-9.823-.344-1.634-.706-3.3-1.02-5.01a53.128,53.128,0,0,1-.753-5.268,30.723,30.723,0,0,1-.023-5.544,21.287,21.287,0,0,1,1.262-5.615,18.982,18.982,0,0,1,7.081-8.938,17.575,17.575,0,0,1,10.524-3.164Z" transform="translate(0.019 0.241)" fill="#7f7671"/>
            <path id="Trazado_815453" data-name="Trazado 815453" d="M5.213,118.249c-3.578,5.585-4.361,8.4-5.143,17.174a21.411,21.411,0,0,0,5.285,15.4c-1.692-3.781-.742-8.239.971-12.011s4.148-7.2,5.566-11.1c1.136-3.114,1.838-7.615-.052-10.612-1.8-2.862-4.9-1.549-6.627,1.149" transform="translate(0 0.635)" fill="#2e2a29"/>
            <path id="Trazado_815454" data-name="Trazado 815454" d="M69.328,69.424C75.571,42.27,43.1,22.739,22.267,41.241q-.406.362-.811.74S-.627,62.419,24.745,99.771c0,0-1.41,15.74-3.054,20.438l-1.78,2.064a7.535,7.535,0,0,0-.663,8.927c6.42,10.234,5.591,14.778,5.026,33.957,0,0,7.674,7.048,15.661,4.386l-2.975-4.856c-1.636-1.523-3.542-3.691-3.577-5.926l-.417-27.98s5.168-5.638,6.343-12.451c0,0,23.763-21.7,30.018-48.906" transform="translate(0.069 0.187)" fill="#c9c2b8"/>
            <path id="Trazado_815455" data-name="Trazado 815455" d="M27.984,109.057c.822-1.821,1.72-5.645,1.373-6.212a8.738,8.738,0,0,0-1.21-1.021c-1.8-1.694-3.646-3.33-5.391-5.073.581.921,1.182,1.849,1.822,2.791,0,0-1.483,14.391-2.936,20.262a58.235,58.235,0,0,0,6.343-10.748" transform="translate(0.119 0.532)" fill="#b3a69f"/>
            <path id="Trazado_815456" data-name="Trazado 815456" d="M139.995,65.067s-.314,27.564-10.337,37.588c0,0,8.144,38.213,1.253,60.452,0,0,5.325,1.253,3.446,6.265,0,0,10.023.626,12.216-1.253a9.652,9.652,0,0,0-5.639-6.578L141.561,144s15.034-25.685,22.865-45.1c0,0,0-25.685-24.432-33.828" transform="translate(0.713 0.358)" fill="#c9c2b8"/>
            <path id="Trazado_815457" data-name="Trazado 815457" d="M69.725,69.151A14.126,14.126,0,0,0,67.763,83.72c1.157,2.541,3.357,4.847,6.136,5.135,1.949.2,3.845-.6,5.639-1.391l9.578-4.205a12.8,12.8,0,0,0,5-3.209c2.339-2.859,1.678-7.37-.725-10.176-5.718-6.674-17.878-7.663-23.666-.724" transform="translate(0.366 0.354)" fill="#1a1a1a"/>
            <path id="Trazado_815458" data-name="Trazado 815458" d="M36.163,72.757c1.4,1.781,3.619,2.664,5.558,3.837s3.822,3.034,3.713,5.3c-.155,3.25-4.034,4.843-5.78,7.589-.921,1.448-1.222,3.2-1.97,4.746s-2.257,2.982-3.954,2.725c-1.57-.237-2.593-1.841-2.884-3.4s-.063-3.171-.231-4.75c-.331-3.121-2.159-5.849-3.834-8.5s-3.3-5.574-3.159-8.711c.136-2.938,3.34-7.016,6.61-6.792,3.606.247,4.165,5.723,5.929,7.965" transform="translate(0.13 0.356)" fill="#1a1a1a"/>
            <path id="Trazado_815459" data-name="Trazado 815459" d="M140.1,96.54c-1.408,2.151-1.475,4.922-1.047,7.456s1.3,4.985,1.615,7.536c.255,2.073.321,4.534,2.061,5.69,2.056,1.365,4.818-.2,6.443-2.058a17.871,17.871,0,0,0,4.252-9.476,11.563,11.563,0,0,0-1.29-7.448c-2.411-3.954-9.017-6.31-12.035-1.7" transform="translate(0.764 0.517)" fill="#1a1a1a"/>
            <path id="Trazado_815460" data-name="Trazado 815460" d="M50.145,47.72c-3.789,3.049-9.806,4.787-10.239,9.631-.456,5.116,5.905,7.974,8.119,12.608,1.047,2.19,1.378,5.084,3.563,6.14,2.077,1,4.6-.436,5.888-2.346s1.82-4.235,2.947-6.246c3.767-6.723,12.736-8.091,20.441-8.243s16.421-.251,21.66-5.9c4.058-4.376,4.739-11.122,3.019-16.837-.159-.525-.339-1.04-.53-1.549-17.85,3.419-32.513,5.935-50.3,2.128A13.13,13.13,0,0,1,50.145,47.72" transform="translate(0.219 0.192)" fill="#1a1a1a"/>
            <path id="Trazado_815461" data-name="Trazado 815461" d="M111.167,53.09c.979,2.4,2.686,4.528,3.5,6.98,1.685,5.089-.724,10.444-2.321,15.556s-2.02,11.442,2.394,14.913c3.031,2.383,7.719,2.568,11.261.869a13.159,13.159,0,0,0,6.863-8.578c.7-2.722.627-5.6,1.643-8.24s3.669-5.11,6.709-4.747c2.986.356,4.823,3.194,5.559,5.859s.883,5.56,2.534,7.858c2.1,2.918,6.284,4.168,10.087,3.781a23.41,23.41,0,0,0,10.368-4.21c5.6-3.714,10.726-9.659,9.075-15.79-1.348-5.005-6.829-8.411-8.19-13.413-2.239-8.23,7.5-15.843,6.5-24.273a10.31,10.31,0,0,0-.813-2.916,15.456,15.456,0,0,0-4.827-.219c-3.111.468-6.012.8-8.857,1.077,1.8,7.752-9.014,15.6-16.169,15.84a7.954,7.954,0,0,1-5.1-1.269c-2.6-1.967-2.681-6.065-1.043-8.889a17.42,17.42,0,0,1,3.692-4.225c-6.636.58-14.357,1.46-24.414,3.178-.657.477-1.3.97-1.916,1.5-5.736,4.888-9.268,12.651-6.53,19.362" transform="translate(0.606 0.145)" fill="#1a1a1a"/>
            <path id="Trazado_815462" data-name="Trazado 815462" d="M17,65.026c.66-1.777.852-3.689,1.333-5.522A18.139,18.139,0,0,1,26.1,48.9c2.834-1.792,6.1-2.751,9.237-3.925s6.294-2.661,8.478-5.2a9.747,9.747,0,0,0,2.3-5.31,27.631,27.631,0,0,0-23.845,6.776q-.407.362-.812.74s-10.176,9.427-8.77,27.169a3.306,3.306,0,0,0,.585-.111A6.23,6.23,0,0,0,17,65.026" transform="translate(0.069 0.187)" fill="#1a1a1a"/>
            <g id="Grupo_1071198" data-name="Grupo 1071198" transform="translate(174.368 27.603)" style="mix-blend-mode: multiply;isolation: isolate">
              <g id="Grupo_1071197" data-name="Grupo 1071197">
                <g id="Grupo_1071196" data-name="Grupo 1071196" clip-path="url(#clip-path-5)">
                  <path id="Trazado_815463" data-name="Trazado 815463" d="M176.088,27.452c-.989,2.584-6.078,16.635,1.1,30.931A38.136,38.136,0,0,0,190.1,72.869c1.5-3.9,3.4-8.713,5.129-14.036,2.59-7.961,4.033-18.383,1.683-27.545Z" transform="translate(-173.414 -27.452)" fill="#b3a69f"/>
                </g>
              </g>
            </g>
            <path id="Trazado_815464" data-name="Trazado 815464" d="M211.825.534a17.13,17.13,0,0,1-.8,4.365,16.913,16.913,0,0,1-1.97,4.143,17.543,17.543,0,0,1-1.441,1.9,16.766,16.766,0,0,1-1.769,1.679,18.006,18.006,0,0,1-4.246,2.588,3.085,3.085,0,1,1-1.75-5.848l.081-.011a12.617,12.617,0,0,0,3.344-.81,12.239,12.239,0,0,0,1.6-.769,13.6,13.6,0,0,0,1.489-1.06,13.952,13.952,0,0,0,2.6-2.809A15.618,15.618,0,0,0,210.819.381l.016-.045a.51.51,0,0,1,.989.2" transform="translate(1.085 0)" fill="#a18b66"/>
            <path id="Trazado_815465" data-name="Trazado 815465" d="M205.594,9.557a19.946,19.946,0,0,1-5.635,2.806,17.973,17.973,0,0,1-2.526.628,3.167,3.167,0,0,0,.205.585,3.085,3.085,0,0,0,4.1,1.487,18,18,0,0,0,4.245-2.588,16.776,16.776,0,0,0,1.77-1.679,17.535,17.535,0,0,0,1.441-1.9,16.889,16.889,0,0,0,1.969-4.143,18.022,18.022,0,0,0,.673-3.019,18.817,18.817,0,0,1-6.243,7.826" transform="translate(1.086 0.01)" fill="#8f7b5a"/>
            <path id="Trazado_815466" data-name="Trazado 815466" d="M186.329,55.943s3.1,3.973,6.549,4.7c9.861,2.074,13.383-.712,13.383-.712a5.48,5.48,0,0,0,3.559-5.268Z" transform="translate(1.025 0.301)" fill="#b3a69f"/>
            <path id="Trazado_815467" data-name="Trazado 815467" d="M186.952,53.607s3.1,3.973,6.549,4.7c9.861,2.075,13.383-.711,13.383-.711a5.481,5.481,0,0,0,3.559-5.268Z" transform="translate(1.028 0.288)" fill="#c9c2b8"/>
            <path id="Trazado_815468" data-name="Trazado 815468" d="M202.961,17.82s-.856,5.411,1.992,7.831a11.291,11.291,0,0,0,10.251.426c5.552-2.562,7.587-12.754,6.407-13.525-10.251-5.41-14.522,8.258-18.65,5.268" transform="translate(1.116 0.062)" fill="#121212"/>
            <path id="Trazado_815469" data-name="Trazado 815469" d="M210.531,25.225a9.723,9.723,0,0,1-4.479-1.114,6,6,0,0,1-1.341-4.022c1.777-.225,3.319-1.6,4.943-3.051,2.048-1.827,4.37-3.9,7.25-3.9a7.646,7.646,0,0,1,3.155.738c0,2.168-1.911,8.755-5.653,10.482a9.187,9.187,0,0,1-3.874.865Z" transform="translate(1.126 0.072)"/>
            <path id="Trazado_815470" data-name="Trazado 815470" d="M191.6,6.1s-17.084-2.349-18.58,19.647c0,0-4.832,33.195,18.428,32.277a5.379,5.379,0,0,0,1.109-.169c2.421-.616,12.515-2.987,17.2-.928a10.561,10.561,0,0,0-1.922-13.455,23.688,23.688,0,0,1,.213-12.173c1.923-6.193-.855-10.037-2.776-11.959,0,0-2.136-12.386-13.668-13.24" transform="translate(0.949 0.033)" fill="#c9c2b8"/>
            <path id="Trazado_815471" data-name="Trazado 815471" d="M193.8,46.872c-.132,1.841-.01,6.059,3.429,8.571a4.791,4.791,0,0,0,2.9.9l4.865-.075a4.872,4.872,0,0,0,4.521-3.216,14.1,14.1,0,0,0,.783-6.715,1.626,1.626,0,0,0-.963-1.251,17.126,17.126,0,0,0-14.64.448,1.649,1.649,0,0,0-.894,1.34" transform="translate(1.066 0.24)" fill="#d19292"/>
            <path id="Trazado_815472" data-name="Trazado 815472" d="M204.21,32.67a14.5,14.5,0,0,0,4.507,11.89,13.89,13.89,0,0,0-1.024-1.1,26.478,26.478,0,0,1,.68-12.023c1.922-6.193-.855-10.037-2.776-11.959,0,0-1.763-7.658-7.78-11.386,2.866,3.426,7.549,11.2,6.393,24.581" transform="translate(1.088 0.044)" fill="#141414"/>
            <path id="Trazado_815473" data-name="Trazado 815473" d="M189.337,20.3a18.78,18.78,0,0,0-12.259-7.6,25.447,25.447,0,0,0-3.791,8.1c-3.489-2.036-7.847-9.422-15.842-5.2-1.179.771.855,10.963,6.407,13.526a11.16,11.16,0,0,0,8.288.444c-.37,7.11.142,22.155,10.419,26.976a3.508,3.508,0,0,0,1.674.329c7.918-.438,5.89-6.171,9.481-12.8,2.673-4.933,2.741-14.1-4.378-23.776" transform="translate(0.864 0.07)" fill="#1a1a1a"/>
            <path id="Trazado_815474" data-name="Trazado 815474" d="M168.505,28.263a9.188,9.188,0,0,1-3.875-.865c-3.741-1.727-5.65-8.314-5.653-10.482a7.645,7.645,0,0,1,3.154-.738c2.881,0,5.2,2.071,7.25,3.9,1.624,1.45,3.166,2.826,4.944,3.051a5.992,5.992,0,0,1-1.342,4.023,9.725,9.725,0,0,1-4.477,1.113" transform="translate(0.874 0.089)"/>
            <path id="Trazado_815475" data-name="Trazado 815475" d="M187.083,57.4c1.725.5,3.633-.1,5.464-.532,1.848-.476,3.708-1.008,5.62-1.407a28.742,28.742,0,0,1,5.88-.691,9.5,9.5,0,0,1,5.726,1.673.241.241,0,0,1-.186.429h-.007a30.748,30.748,0,0,0-11.128.072c-1.871.327-3.748.738-5.666,1.061a24.432,24.432,0,0,1-2.927.338,6.018,6.018,0,0,1-2.986-.523.234.234,0,0,1,.178-.429Z" transform="translate(1.027 0.301)" fill="#8c827c"/>
            <path id="Trazado_815476" data-name="Trazado 815476" d="M209.958,45.765c-.039.509-2.663.235-7.2.43-4.428.191-8.574.345-8.574-.2s3.71-2.35,8.144-2.35,7.676,1.576,7.635,2.115" transform="translate(1.068 0.24)" fill="#d1a3a3"/>
            <path id="Trazado_815477" data-name="Trazado 815477" d="M208.888,26.44a3.3,3.3,0,0,0-.978,6.371c.4-2.145,1.147-4.139.978-6.371" transform="translate(1.132 0.145)"/>
            <path id="Trazado_815478" data-name="Trazado 815478" d="M208.9,27.5a2.23,2.23,0,0,0-.769,4.24,12.627,12.627,0,0,0,.769-4.24" transform="translate(1.138 0.151)" fill="#242424"/>
            <path id="Trazado_815479" data-name="Trazado 815479" d="M208.789,28.279a1.389,1.389,0,0,0-1.292,1.468,1.509,1.509,0,0,0,.881,1.37,3.4,3.4,0,0,0,.473-2.831c-.021,0-.04-.007-.061-.007" transform="translate(1.141 0.156)"/>
            <path id="Trazado_815480" data-name="Trazado 815480" d="M208.286,29.056a.394.394,0,1,1-.117-.581.421.421,0,0,1,.117.581" transform="translate(1.142 0.156)" fill="#ebebeb"/>
            <path id="Trazado_815481" data-name="Trazado 815481" d="M196.738,47.187a4.515,4.515,0,0,1,.992.353,8.436,8.436,0,0,1,.918.526c.3.189.591.4.877.618a7.489,7.489,0,0,1,.829.732.254.254,0,0,1-.187.43,7.668,7.668,0,0,1-1.1-.1c-.357-.058-.709-.129-1.051-.218a8.234,8.234,0,0,1-1.011-.312,4.444,4.444,0,0,1-.936-.484.86.86,0,0,1,.669-1.541" transform="translate(1.077 0.259)" fill="#735151"/>
            <path id="Trazado_815482" data-name="Trazado 815482" d="M209.042,48.573a4.469,4.469,0,0,1-.936.484,8.34,8.34,0,0,1-1.011.311c-.343.09-.694.161-1.051.219a7.666,7.666,0,0,1-1.1.1.255.255,0,0,1-.258-.251.259.259,0,0,1,.071-.179,7.568,7.568,0,0,1,.828-.732c.287-.221.578-.429.878-.618a8.326,8.326,0,0,1,.917-.526,4.484,4.484,0,0,1,.992-.353.86.86,0,0,1,.67,1.541" transform="translate(1.126 0.259)" fill="#735151"/>
            <path id="Trazado_815483" data-name="Trazado 815483" d="M187.31,32.124a4.3,4.3,0,0,1-.193-.722,5.491,5.491,0,0,1-.009-1.583,3.181,3.181,0,0,0-.287-1.7,3.3,3.3,0,1,0-2.528,4.632,7.436,7.436,0,0,1,1.551-.1c.352.022.695.058.992.1a.452.452,0,0,0,.473-.618" transform="translate(0.993 0.144)"/>
            <path id="Trazado_815484" data-name="Trazado 815484" d="M181.389,29.392A2.408,2.408,0,1,1,183.8,31.8a2.408,2.408,0,0,1-2.407-2.408" transform="translate(0.998 0.148)" fill="#242424"/>
            <path id="Trazado_815485" data-name="Trazado 815485" d="M181.992,29.389a1.8,1.8,0,1,1,1.8,1.8,1.8,1.8,0,0,1-1.8-1.8" transform="translate(1.001 0.152)"/>
            <path id="Trazado_815486" data-name="Trazado 815486" d="M183.38,28.156a.528.528,0,1,1-.529-.529.529.529,0,0,1,.529.529" transform="translate(1.003 0.152)" fill="#ebebeb"/>
            <path id="Trazado_815487" data-name="Trazado 815487" d="M170.913,2.178a19.785,19.785,0,0,0,.507,3.94,10.584,10.584,0,0,0,1.36,3.409,4.155,4.155,0,0,0,2.161,1.8,5.317,5.317,0,0,0,2.636-.069l.228-.041a2.767,2.767,0,0,1,3.2,2.3A2.776,2.776,0,0,1,178,16.817l-1.317-.143a5.255,5.255,0,0,1-1.314-.269c-.444-.144-.882-.271-1.307-.451-.422-.231-.836-.474-1.234-.722a8.308,8.308,0,0,1-3.032-4.319,13.652,13.652,0,0,1-.562-4.579,21.419,21.419,0,0,1,.573-4.311.563.563,0,0,1,.681-.425.576.576,0,0,1,.429.545Z" transform="translate(0.931 0.009)" fill="#c4a97c"/>
            <path id="Trazado_815488" data-name="Trazado 815488" d="M180.961,13.458a2.766,2.766,0,0,0-3.2-2.3l-.229.041a5.652,5.652,0,0,1-2.544.1c.319.224.652.442,1.007.659,1.239.754,3.01,1.719,3.167,3.342a2.528,2.528,0,0,1-.293,1.4,2.83,2.83,0,0,0,2.087-3.244" transform="translate(0.963 0.061)" fill="#b59c73"/>
            <g id="Grupo_1071201" data-name="Grupo 1071201" transform="translate(157.987 14.387)" opacity="0.83" style="mix-blend-mode: multiply;isolation: isolate">
              <g id="Grupo_1071200" data-name="Grupo 1071200">
                <g id="Grupo_1071199" data-name="Grupo 1071199" clip-path="url(#clip-path-6)">
                  <path id="Trazado_815489" data-name="Trazado 815489" d="M192.416,38.643a10.434,10.434,0,0,0-6-3.038c-2.1-.447-4.52-.429-6.409-1.564a7.474,7.474,0,0,1-3.342-6.083,21.319,21.319,0,0,0-1.077-5.5,18.873,18.873,0,0,1-1-5.364,24.864,24.864,0,0,0-1.3,3.7c-3.489-2.036-7.847-9.422-15.842-5.2-1.179.771.854,10.963,6.406,13.526a11.163,11.163,0,0,0,8.289.444c-.37,7.11.142,22.154,10.418,26.975a3.5,3.5,0,0,0,1.678.329c8.029-.445,5.826-6.339,9.638-13.088,0-.013,0-.025.007-.038a18.284,18.284,0,0,0-1.466-5.094" transform="translate(-157.123 -14.308)" fill="#b3a69f"/>
                </g>
              </g>
            </g>
          </g>
        </g>
      </g>
    </g>
  </g>
</svg>
