<svg xmlns="http://www.w3.org/2000/svg" xmlns:xlink="http://www.w3.org/1999/xlink" width="190" height="226" viewBox="0 0 190 226">
  <defs>
    <clipPath id="clip-path">
      <rect id="Rectángulo_376007" data-name="Rectángulo 376007" width="161.598" height="219.025" fill="none"/>
    </clipPath>
    <clipPath id="clip-path-3">
      <rect id="Rectángulo_376002" data-name="Rectángulo 376002" width="0.157" height="0.29" fill="none"/>
    </clipPath>
    <clipPath id="clip-path-4">
      <rect id="Rectángulo_376003" data-name="Rectángulo 376003" width="128.48" height="149.719" fill="none"/>
    </clipPath>
    <clipPath id="clip-path-5">
      <rect id="Rectángulo_376004" data-name="Rectángulo 376004" width="36.716" height="57.034" fill="none"/>
    </clipPath>
    <clipPath id="clip-path-6">
      <rect id="Rectángulo_376005" data-name="Rectángulo 376005" width="60.527" height="20.842" fill="none"/>
    </clipPath>
    <clipPath id="clip-path-7">
      <rect id="Rectángulo_376008" data-name="Rectángulo 376008" width="62.411" height="60.329" fill="none"/>
    </clipPath>
  </defs>
  <g id="Grupo_1071224" data-name="Grupo 1071224" transform="translate(-180 -4155)">
    <rect id="Rectángulo_376009" data-name="Rectángulo 376009" width="190" height="226" transform="translate(180 4155)" fill="#fff"/>
    <g id="Grupo_1071207" data-name="Grupo 1071207" transform="translate(184 4155)">
      <g id="Grupo_1071221" data-name="Grupo 1071221" transform="translate(0)" clip-path="url(#clip-path)">
        <g id="Grupo_1071220" data-name="Grupo 1071220" transform="translate(0)">
          <g id="Grupo_1071219" data-name="Grupo 1071219" clip-path="url(#clip-path)">
            <path id="Trazado_815490" data-name="Trazado 815490" d="M17.071,134.371c0,7.114,28.791,12.88,64.307,12.88s64.307-5.767,64.307-12.88-28.791-12.88-64.307-12.88-64.307,5.767-64.307,12.88" transform="translate(-11.242 71.773)" fill="#decec8"/>
            <path id="Trazado_815491" data-name="Trazado 815491" d="M12.545,15.894s8.985,3.064,4.688,12.48S4.723,35.58,5.48,27.09c.587-6.587,7.065-11.2,7.065-11.2" transform="translate(134.561 9.39)" fill="#c92121"/>
            <path id="Trazado_815492" data-name="Trazado 815492" d="M12.532,15.74s8.792,2.625,4.519,10.892S4.737,33.016,5.533,25.582c.617-5.768,7-9.842,7-9.842" transform="translate(134.661 9.299)" fill="#e82626"/>
            <path id="Trazado_815493" data-name="Trazado 815493" d="M51.93,125.082c5.856-1.244,10.225-6.352,10.225-6.352l-.835-17.2,5.245-2.466,1.215,20.591c4.056,10.9,17.99,9.538,17.99,9.538-4.508,2.782-12.86,1.3-12.86,1.3l14.209,9.4c-15.187-1.619-21.949-9.666-21.949-9.666l-7.235,11.387,3.5-16.736c-4.181,2.224-9.51.2-9.51.2" transform="translate(-8.13 58.524)" fill="#de8a8a"/>
            <path id="Trazado_815494" data-name="Trazado 815494" d="M36.1,134.958c5.857-1.244,10.225-6.352,10.225-6.352l-.835-17.2,5.245-2.466,1.215,20.591c4.056,10.9,17.992,9.54,17.992,9.54-4.51,2.781-12.86,1.3-12.86,1.3l14.209,9.4c-15.189-1.619-21.949-9.666-21.949-9.666l-7.235,11.387,3.5-16.736c-4.179,2.224-9.51.2-9.51.2" transform="translate(32.867 64.359)" fill="#e9a3a3"/>
            <path id="Trazado_815495" data-name="Trazado 815495" d="M3.032,12.823s7.372-1.424,11.46,6.96c0,0-12.543.56-14.492-2.02Z" transform="translate(147.106 7.521)" fill="#e8c431"/>
            <path id="Trazado_815496" data-name="Trazado 815496" d="M1.326,14.537,0,16.7c1.947,2.579,14.465,2.022,14.49,2.02C11.5,17.2,4.366,15.305,1.326,14.537" transform="translate(147.105 8.588)" fill="#e89931"/>
            <path id="Trazado_815497" data-name="Trazado 815497" d="M151.365,14.872c-.019-.032-.04-.062-.059-.094-5.219-8.113-14.613-6.966-22.115-2.327C113.675,22.046,104.957,41.8,98.8,58.1,93.413,72.308,54.882,76.977,44.822,44.511c0,0-16.068-61.313-35.072-2.6A74.205,74.205,0,0,0,6.425,72.7c1.2,11.132,4.847,25.211,14.511,37.394-4.112,20.085,2.684,47.3,57.861,63.686,0,0,29.49-3.656,40.55-35.449,0,0,39.12-14.543,26.636-62.178-2.537-9.685-6.3-18.886-7.475-28.922-.673-5.768-.69-11.845,1.211-17.4,2.225-6.5,7.252-10.041,11.646-14.963" transform="translate(0.657 5.212)" fill="#cc6101"/>
            <path id="Trazado_815498" data-name="Trazado 815498" d="M11.507,14.781a2.511,2.511,0,1,1,2.657,2.359A2.513,2.513,0,0,1,11.507,14.781Z" transform="translate(126.777 7.161)" fill="none" stroke="#4f4b47" stroke-miterlimit="10" stroke-width="0.902"/>
            <path id="Trazado_815499" data-name="Trazado 815499" d="M31.31,20.364A3.286,3.286,0,0,0,33.895,18.9a2.015,2.015,0,0,0-.6-2.706c-.762-.415-1.8-.194-2.464-.752-.857-.719-.468-2.082-.1-3.14s.434-2.572-.62-2.945c-1.083-.382-2.116.935-3.258.827-1.107-.1-1.635-1.465-1.554-2.575a12.122,12.122,0,0,0,.29-3.306c-.224-1.088-1.611-2.019-2.437-1.273-.884.8-.2,2.62-1.225,3.229-.679.4-1.584-.162-1.891-.891a7.543,7.543,0,0,1-.291-2.34A3.51,3.51,0,0,0,18.366.315a1.9,1.9,0,0,0-2.707.6c-.638,1.448,1.2,3.145.53,4.577a2.094,2.094,0,0,1-2.741.694,9,9,0,0,1-2.381-2.014c-1.406-1.381-3.452-2.456-5.3-1.786a4.056,4.056,0,0,0-2.475,3.53,6.388,6.388,0,0,0,1.419,4.23c2.614,3.449,7.243,4.548,11.508,5.283A35.146,35.146,0,0,1,24.145,17.4c2.607,1.117,4.09,3.239,7.165,2.959" transform="translate(122.22 0)" fill="#e82626"/>
            <path id="Trazado_815500" data-name="Trazado 815500" d="M92.419,56.4a66,66,0,0,0-11.87,25.589c.492.62.986,1.242,1.511,1.852Z" transform="translate(-58.956 33.319)" fill="#cc6101"/>
            <path id="Trazado_815501" data-name="Trazado 815501" d="M52.645,29.834c2.225-6.5,7.252-10.039,11.646-14.963-.019-.03-.04-.062-.06-.092C59.013,6.665,49.62,7.812,42.118,12.45,26.6,22.046,17.884,41.8,11.731,58.1A14.029,14.029,0,0,1,6.02,64.624a21.9,21.9,0,0,0,9.386-3.307,15.1,15.1,0,0,0-1.578,12.308,14.508,14.508,0,0,1,3.5-5.91A15.056,15.056,0,0,0,20.4,81.832,12.7,12.7,0,0,1,22.92,74a37.386,37.386,0,0,0,5.6,14.377,14.273,14.273,0,0,1,2.184-8.926A22.82,22.82,0,0,1,32.913,91a19.663,19.663,0,0,0,6.705-12.787,12.317,12.317,0,0,1,2.152,7.273,52.986,52.986,0,0,0,5.534-20.158,14.69,14.69,0,0,0,5.281,11.1,34.1,34.1,0,0,1-1.142-10.811,12.583,12.583,0,0,0,6.164,5.927c-2.38-8.035-5.189-15.879-6.174-24.31-.673-5.77-.69-11.845,1.211-17.4" transform="translate(87.73 5.212)" fill="#964801"/>
            <path id="Trazado_815502" data-name="Trazado 815502" d="M119.166,63.883c-8.436-3.226-16.1-10.154-19.84-22.213,0,0-16.068-61.315-35.072-2.6a74.205,74.205,0,0,0-3.325,30.8c1.193,11.059,4.806,25.026,14.33,37.154,7.362-19.864,23.227-38.708,43.907-43.132" transform="translate(-53.847 8.053)" fill="#964801"/>
            <path id="Trazado_815503" data-name="Trazado 815503" d="M82.7,67.348c1.382-1.18,3.719-1.39,4.912-.017-.544-1.821,1.11-5.369,3.218-3.469-1.33-2.477.261-8.447,2.672-7.152-2.89-6.357-1.43-12.072,2.168-11.986-.808-2.154-.027-5.914,1.955-7.084a5.105,5.105,0,0,1,6.268,1.048c1.8-2.76,6.643-.659,7.632,2.288,1.988-2.394,5.563-.689,7,1.341-.046-.146-.1-.282-.15-.43,0,0-10.531-40.463-23.833-25.168C93.3,15,91.179,13.652,89.427,14.01c-2.567.525-3.748,4.594-2.952,7.092-2.26-1.266-5.277.453-6.25,2.855s-.463,5.13.234,7.626c-1.131-1.467-3.651-1.017-4.8.437s-1.263,3.455-1.168,5.3a32.41,32.41,0,0,0,2.7,11.355,2.2,2.2,0,0,0-1.885-.547,3.237,3.237,0,0,0-2.267,2.5,8.356,8.356,0,0,0,.14,3.53A49.249,49.249,0,0,0,80.1,71.034c.056.463.121.937.185,1.408.019-.1.029-.2.049-.3a8.326,8.326,0,0,1,2.367-4.8" transform="translate(-72.902 7.836)" fill="#1c2124"/>
            <path id="Trazado_815504" data-name="Trazado 815504" d="M23.162,13.9s-4.955-3.6-10.513-3.393C9.3,10.628,6,11.993,6.118,16.038c.1,3.5,2.994,5.1,6.051,5.122a21.848,21.848,0,0,0,7.666-1.74A5.343,5.343,0,0,0,23.162,13.9" transform="translate(128.68 6.199)" fill="#c92121"/>
            <path id="Trazado_815505" data-name="Trazado 815505" d="M21.525,13.784a18.156,18.156,0,0,0-9.484-2.754c-3.029.119-6.019,1.261-5.929,4.6.08,2.889,2.684,4.2,5.445,4.2a21.39,21.39,0,0,0,6.937-1.471,4.445,4.445,0,0,0,3.03-4.581" transform="translate(130.329 6.511)" fill="#e82626"/>
            <path id="Trazado_815506" data-name="Trazado 815506" d="M11.363,14.472a2.152,2.152,0,1,1,2.275,2.022,2.152,2.152,0,0,1-2.275-2.022" transform="translate(127.863 7.204)" fill="#e8c431"/>
            <path id="Trazado_815507" data-name="Trazado 815507" d="M12,14.036A1.136,1.136,0,1,1,13.2,15.1,1.136,1.136,0,0,1,12,14.036" transform="translate(128.242 7.581)" fill="#1c2124"/>
            <g id="Grupo_1071209" data-name="Grupo 1071209" transform="translate(151.864 19.963)" style="mix-blend-mode: multiply;isolation: isolate">
              <g id="Grupo_1071208" data-name="Grupo 1071208" transform="translate(0)">
                <g id="Grupo_1071207-2" data-name="Grupo 1071207" clip-path="url(#clip-path-3)">
                  <path id="Trazado_815508" data-name="Trazado 815508" d="M6.118,12.576c0-.01-.016-.037-.016-.025a1.824,1.824,0,0,1-.081.286c.051-.057.1-.11.156-.167-.019-.032-.038-.064-.059-.094" transform="translate(-6.021 -12.549)" fill="#dbccc3"/>
                </g>
              </g>
            </g>
            <g id="Grupo_1071212" data-name="Grupo 1071212" transform="translate(20.618 29.276)" style="mix-blend-mode: multiply;isolation: isolate">
              <g id="Grupo_1071211" data-name="Grupo 1071211">
                <g id="Grupo_1071210" data-name="Grupo 1071210" clip-path="url(#clip-path-4)">
                  <path id="Trazado_815509" data-name="Trazado 815509" d="M130.744,18.4c-8.025,8.684-17.716,23.521-9.314,48.154,18.825,55.185-22.971,61.362-22.971,61.362s-6.948,20.293-31.909,29.671c0,0-48.251-9.852-49.52-47.626,0,0,22.735,7.763,45.23-4.823l-4.92-38.757s-36.209-.62-48.428,37.951a68.618,68.618,0,0,0-1.026,7.987c-.678,18.879,10.571,41.478,58.807,55.8,0,0,29.49-3.656,40.55-35.449,0,0,39.12-14.543,26.636-62.178-2.537-9.685-6.3-18.886-7.475-28.922-.673-5.768-.69-11.845,1.211-17.4a20.711,20.711,0,0,1,3.129-5.77" transform="translate(-7.857 -18.404)" fill="#dbccc3"/>
                </g>
              </g>
            </g>
            <g id="Grupo_1071215" data-name="Grupo 1071215" transform="translate(0 58.034)" style="mix-blend-mode: multiply;isolation: isolate">
              <g id="Grupo_1071214" data-name="Grupo 1071214">
                <g id="Grupo_1071213" data-name="Grupo 1071213" clip-path="url(#clip-path-5)">
                  <path id="Trazado_815510" data-name="Trazado 815510" d="M78.8,36.482a4.066,4.066,0,0,0-.157.434,8.356,8.356,0,0,0,.14,3.53A49.27,49.27,0,0,0,85.7,57.319l0,.014c1.3,10.9,4.963,24.4,14.213,36.184a80.478,80.478,0,0,1,15.3-25.573c-7.243,9.74-21.323,14.7-28.047-13.372C82.258,47.5,79.258,39.767,78.8,36.482" transform="translate(-78.505 -36.482)" fill="#d1c4ba"/>
                </g>
              </g>
            </g>
            <path id="Trazado_815511" data-name="Trazado 815511" d="M110.851,70.609a5.467,5.467,0,0,1-2.973-5.634A4.856,4.856,0,0,1,100.77,58.5,4.618,4.618,0,0,1,96.264,56.5c-.83-1.529.14-3.889,1.879-3.923-1.12-.415-2.364-.947-2.795-2.06a1.729,1.729,0,0,1,.576-1.844c-13.846-1.421-42.337-1.737-59.1,16.372,0,0,1.6,2.781,8.06,2.639,0,0,0,8.145,10.238,11.135,0,0,10,15.222,28.775,12.675,20.327-2.757,27.471-7.849,33.034-20.952a7.058,7.058,0,0,1-6.085.062" transform="translate(-13.923 28.406)" fill="#964801"/>
            <path id="Trazado_815512" data-name="Trazado 815512" d="M100.685,84.635c-13.2,1.677-8.121-6.708-8.121-6.708-13.5-.461-4.131-9.1-4.131-9.1-11.406-1.483-.169-8.972-.169-8.972-13.725-1.863-4.258-7.7,2.437-10.956-11.234,1.923-22.948,6.357-31.564,15.667,0,0,1.6,2.779,8.06,2.639,0,0,0,8.145,10.238,11.134,0,0,9.134,13.883,26.321,12.9-7.52-1.977-3.072-6.608-3.072-6.608" transform="translate(-36.232 28.889)" fill="#542801"/>
            <g id="Grupo_1071218" data-name="Grupo 1071218" transform="translate(42.306 99.351)" style="mix-blend-mode: multiply;isolation: isolate">
              <g id="Grupo_1071217" data-name="Grupo 1071217">
                <g id="Grupo_1071216" data-name="Grupo 1071216" clip-path="url(#clip-path-6)">
                  <path id="Trazado_815513" data-name="Trazado 815513" d="M36.941,71.787c3.067,3.741,12.5,13.28,27.673,11.221C84.728,80.28,91.93,75.253,97.468,62.454c-4.3,7.133-40.339,23.631-60.527,9.333" transform="translate(-36.941 -62.455)" fill="#dbccc3"/>
                </g>
              </g>
            </g>
          </g>
        </g>
      </g>
    </g>
    <g id="Grupo_1071208-2" data-name="Grupo 1071208" transform="translate(300.003 4307.835)">
      <g id="Grupo_1071223" data-name="Grupo 1071223" transform="translate(0 0)" clip-path="url(#clip-path-7)">
        <path id="Trazado_815514" data-name="Trazado 815514" d="M0,52.232c0,4.472,11.227,8.1,25.075,8.1S50.15,56.7,50.15,52.232s-11.226-8.1-25.075-8.1S0,47.76,0,52.232" transform="translate(12.261 0)" fill="#decec8"/>
        <path id="Trazado_815515" data-name="Trazado 815515" d="M24.315,46.4c.216-.072,4.876,4.47,6.814,6.372A2.067,2.067,0,0,0,33.1,53.3l3.779-.979-.129.125a1.228,1.228,0,0,0,.751,2.1l8.026.685-7.713.373a2.749,2.749,0,0,0-2.485,3.583l.366,1.142-2.176-2.112a8.7,8.7,0,0,0-5.9-2.455l-1.751-.03,3.393-1.411a.466.466,0,0,0,.144-.767L21.948,46.4Z" transform="translate(-5.064 0)" fill="#cc6101"/>
        <path id="Trazado_815516" data-name="Trazado 815516" d="M17.672,42.889c.176-.059,3.964,3.635,5.54,5.181a1.683,1.683,0,0,0,1.6.427l3.072-.8-.105.1a1,1,0,0,0,.611,1.71l6.526.557-6.271.3a2.234,2.234,0,0,0-2.02,2.913l.3.928L25.156,52.5a7.075,7.075,0,0,0-4.8-2l-1.425-.025,2.76-1.147a.379.379,0,0,0,.117-.623l-6.06-5.817Z" transform="translate(11.745 0)" fill="#b85701"/>
        <path id="Trazado_815517" data-name="Trazado 815517" d="M12.086,28.958c.15.011.3.02.45.028,4.258.215,4.174.207,8.726-3.526A44.715,44.715,0,0,1,34.808,18c2.416-.855,3.221-2.925,3.546-5.279.627-4.54,1.875-8.412,5.719-10.756C50.732-2.1,57.421.77,59.42,4.886a7.931,7.931,0,0,1-.61,8.357,6.707,6.707,0,0,0-.213,7.715,8.877,8.877,0,0,1,.514.915c3.425,7.051-3.01,17.241-14.373,22.761s-23.351,4.278-26.776-2.773a9.192,9.192,0,0,1-.876-3.522,11.7,11.7,0,0,1-6.361-7.38c-.282-1.043.284-2.081,1.361-2" transform="translate(-8.566 0)" fill="#e8aa2c"/>
        <path id="Trazado_815518" data-name="Trazado 815518" d="M19.7,5.913a1.638,1.638,0,1,0-1.639,1.639A1.639,1.639,0,0,0,19.7,5.913" transform="translate(26.286 0)"/>
        <path id="Trazado_815519" data-name="Trazado 815519" d="M19.331,5.676a1.4,1.4,0,1,0-1.4,1.4,1.4,1.4,0,0,0,1.4-1.4" transform="translate(26.554 0)" fill="#291b21"/>
        <path id="Trazado_815520" data-name="Trazado 815520" d="M16.394,5a.683.683,0,1,0,.683-.683A.683.683,0,0,0,16.394,5" transform="translate(28.257 0)" fill="#fff"/>
        <path id="Trazado_815521" data-name="Trazado 815521" d="M27.569,31.074a33.1,33.1,0,0,1,7.048-9.829c6.009-5.443,14.767.47,12.123,8.246a15.793,15.793,0,0,1-2.367,4.08c-12.07,15.1-26.271.792-26.271.792,2.958-2.315,9.467-3.289,9.467-3.289" transform="translate(-2.916 0)" fill="#c28e2a"/>
        <path id="Trazado_815522" data-name="Trazado 815522" d="M27.663,29.612a33.173,33.173,0,0,1,7.255-9.829,7.666,7.666,0,0,1,12.477,8.246,15.683,15.683,0,0,1-2.436,4.08c-12.424,15.1-27.04.792-27.04.792,3.045-2.315,9.744-3.289,9.744-3.289" transform="translate(-3.402 0)" fill="#f0b033"/>
        <path id="Trazado_815523" data-name="Trazado 815523" d="M38.374,31.439c1.4-1.354,4.869-5.949,4.568-9.562-.031-.373-.069-.708-.111-1.015a7.629,7.629,0,0,1,.9,7.166A15.688,15.688,0,0,1,41.3,32.109c-8.6,10.457-18.252,6.814-23.378,3.583,5.29,2.417,12.538,3.421,20.455-4.253" transform="translate(0.26 0)" fill="#d49c2d"/>
        <path id="Trazado_815524" data-name="Trazado 815524" d="M14.869,33.713a13.429,13.429,0,0,1,2.549.3,11.146,11.146,0,0,1-1.385-3.05,1.65,1.65,0,0,1,.447-1.723c1.069,1.627,3.968,5.381,8.632,6.512,0,0,8.779,18.744,37.3-1.389A31.485,31.485,0,0,1,50.046,44.634c-7.917,3.845-16.134,4.405-21.55,2.009l.015.022C18.4,44.594,11.134,33.632,14.869,33.713" transform="translate(-13.873 0)" fill="#cf992c"/>
        <path id="Trazado_815525" data-name="Trazado 815525" d="M14.077,21.873c.028.057.049.116.076.174A17.7,17.7,0,0,1,12.5,20.564c-1.765-1.875-2.343-5.382-.636-7.477.895-1.1,2.212-1.719,3.233-2.686a7.34,7.34,0,0,1-1.323,2.842,6.708,6.708,0,0,0-.214,7.715,8.7,8.7,0,0,1,.515.915" transform="translate(36.469 0)" fill="#cf992c"/>
        <path id="Trazado_815526" data-name="Trazado 815526" d="M34.609,2.676a14.5,14.5,0,0,0-2.3,6.3c-.4,2.35-.691,5.1-2.355,6.947a7.711,7.711,0,0,1-5.384,2.149l.2-.074c2.416-.855,3.221-2.924,3.546-5.279.627-4.54,1.875-8.411,5.719-10.755A14.12,14.12,0,0,1,36.365.813a9.845,9.845,0,0,0-1.756,1.863" transform="translate(1.479 0)" fill="#cf992c"/>
        <path id="Trazado_815527" data-name="Trazado 815527" d="M16.977,10.032c0,.987,1.182,1.786,2.639,1.786s2.639-.8,2.639-1.786-1.181-1.786-2.639-1.786-2.639.8-2.639,1.786" transform="translate(23.179 0)" fill="#e8b346"/>
        <path id="Trazado_815528" data-name="Trazado 815528" d="M8.725,7.229S6.336,9.482,6.608,10.916A7.8,7.8,0,0,0,14.46,8.6Z" transform="translate(41.365 0)" fill="#b35501"/>
        <path id="Trazado_815529" data-name="Trazado 815529" d="M7.739,6.524,13.93,8.618A31.106,31.106,0,0,1,5.2,9.13,4.519,4.519,0,0,1,7.739,6.524" transform="translate(43.285 0)" fill="#cc6101"/>
        <path id="Trazado_815530" data-name="Trazado 815530" d="M9.184,8.26,8.012,7.835a.291.291,0,0,0-.2.548.282.282,0,0,0,.071.016l1.24.121a.134.134,0,0,0,.059-.26" transform="translate(45.517 0)" fill="#693301"/>
      </g>
    </g>
  </g>
</svg>
