<svg id="detector" xmlns="http://www.w3.org/2000/svg" width="139" height="139" viewBox="0 0 139 139">
  <path id="Trazado_806978" data-name="Trazado 806978" d="M68.342,376.544l-7.679-30.716-18.237,33.6,11.518,11.518Zm0,0" transform="translate(-30.908 -251.941)"/>
  <path id="Trazado_806979" data-name="Trazado 806979" d="M14.4,374.113,0,388.511l11.518,11.518,25.916-25.916Zm0,0" transform="translate(0 -272.547)" fill="#292c32"/>
  <path id="Trazado_806980" data-name="Trazado 806980" d="M106.979,344.416l21.571-21.571-21.116-21.117L95.461,332.9Zm0,0" transform="translate(-69.545 -219.813)" fill="#292c32"/>
  <path id="Trazado_806981" data-name="Trazado 806981" d="M74.606,294.652,86.124,306.17,64.553,327.741,53.035,316.223Zm0,0" transform="translate(-38.637 -214.659)" fill="#3c4047"/>
  <path id="Trazado_806982" data-name="Trazado 806982" d="M283.177,67.8,270.647,46.156,197.906,103.54l35.385,23.867Zm0,0" transform="translate(-144.177 -33.626)" fill="#3c4047"/>
  <path id="Trazado_806983" data-name="Trazado 806983" d="M247.81,12.531,226.165,0,166.558,49.886l16.189,27.706Zm0,0" transform="translate(-121.34)" fill="#50545b"/>
  <path id="Trazado_806984" data-name="Trazado 806984" d="M178.587,286.174l12.832-15.334-16.1-27.8-34.894,10.9,1.2,22.8,21.884,12.67,6.192-6.191Zm0,0" transform="translate(-102.305 -177.058)"/>
  <path id="Trazado_806985" data-name="Trazado 806985" d="M116.744,183.754,101.41,196.586l2.961,8.882L98.18,211.66l12.67,21.884,33.695-33.695Zm0,0" transform="translate(-71.526 -133.868)" fill="#292c32"/>
</svg>
