<svg xmlns="http://www.w3.org/2000/svg" width="190" height="190" viewBox="0 0 190 190">
  <g id="Grupo_1071358" data-name="Grupo 1071358" transform="translate(-1125 -4818)">
    <rect id="Rectángulo_375957" data-name="Rectángulo 375957" width="190" height="190" rx="18" transform="translate(1125 4818)" fill="#fffad0"/>
    <g id="fangs_1" data-name="fangs 1" transform="translate(1139.416 4773.25)">
      <path id="Trazado_806986" data-name="Trazado 806986" d="M158.839,511.374l4.55,13.652H31.427l4.55-13.652,6.826-4.551h109.21Z" transform="translate(-16.824 -328.038)" fill="#835cc5"/>
      <path id="Trazado_806987" data-name="Trazado 806987" d="M10.052,103.7V90.052H151.116V103.7l-4.551,4.55H14.6Z" fill="#835cc5"/>
      <path id="Trazado_806988" data-name="Trazado 806988" d="M192.412,410.646l11.376,20.477H181.036Z" transform="translate(-134.58 -252.338)" fill="#95adc0"/>
      <path id="Trazado_806989" data-name="Trazado 806989" d="M406.142,410.646l11.376,20.477H394.766Z" transform="translate(-302.806 -252.338)" fill="#95adc0"/>
      <path id="Trazado_806990" data-name="Trazado 806990" d="M510.747,175.542,499.371,196.02l-9.1-15.927-.182-.114,2.457-4.437Z" transform="translate(-377.834 -67.289)" fill="#95adc0"/>
      <path id="Trazado_806991" data-name="Trazado 806991" d="M310.653,175.542,299.277,200.57,287.9,175.542Z" transform="translate(-218.693 -67.289)" fill="#95adc0"/>
      <path id="Trazado_806992" data-name="Trazado 806992" d="M113.748,175.542l2.457,4.437-.182.114-9.1,15.927L95.547,175.542Z" transform="translate(-67.292 -67.289)" fill="#95adc0"/>
      <path id="Trazado_806993" data-name="Trazado 806993" d="M130.568,431.123H116.917V410.646S130.568,412.921,130.568,431.123Z" transform="translate(-84.113 -252.338)" fill="#d9eef7"/>
      <path id="Trazado_806994" data-name="Trazado 806994" d="M299.277,389.276,310.653,414.3H287.9Z" transform="translate(-218.693 -235.517)" fill="#d9eef7"/>
      <path id="Trazado_806995" data-name="Trazado 806995" d="M515.282,410.646v20.477H501.63C501.63,412.921,515.282,410.646,515.282,410.646Z" transform="translate(-386.918 -252.338)" fill="#d9eef7"/>
      <path id="Trazado_806996" data-name="Trazado 806996" d="M600.772,175.542V196.02s-13.652-2.276-13.652-20.478Z" transform="translate(-454.207 -67.289)" fill="#d9eef7"/>
      <path id="Trazado_806997" data-name="Trazado 806997" d="M417.518,175.542l-2.457,4.437-8.919,16.041-11.376-20.478Z" transform="translate(-302.806 -67.289)" fill="#d9eef7"/>
      <path id="Trazado_806998" data-name="Trazado 806998" d="M203.788,175.542,192.412,196.02l-8.919-16.041-2.457-4.437Z" transform="translate(-134.58 -67.289)" fill="#d9eef7"/>
      <path id="Trazado_806999" data-name="Trazado 806999" d="M31.427,175.542H45.079c0,18.2-13.651,20.478-13.651,20.478Z" transform="translate(-16.824 -67.289)" fill="#d9eef7"/>
      <path id="Trazado_807000" data-name="Trazado 807000" d="M32.8,90.052H10.052V103.7l4.551,4.55H37.355L32.8,103.7Z" fill="#8327c5"/>
      <path id="Trazado_807001" data-name="Trazado 807001" d="M65.555,506.823H42.8l-6.826,4.551-4.55,13.652H54.179l4.55-13.652Z" transform="translate(-16.824 -328.038)" fill="#8327c5"/>
      <path id="Trazado_807002" data-name="Trazado 807002" d="M42.109,122.745H142.22v4.28H42.109Z" transform="translate(-25.232 -25.732)" fill="#fff"/>
      <path id="Trazado_807003" data-name="Trazado 807003" d="M576.438,122.745h4.55v4.28h-4.55Z" transform="translate(-445.799 -25.732)" fill="#fff"/>
      <path id="Trazado_807004" data-name="Trazado 807004" d="M298.589,539.521h54.6V543.8h-54.6Z" transform="translate(-227.106 -353.774)" fill="#fff"/>
      <path id="Trazado_807005" data-name="Trazado 807005" d="M213.094,539.521h4.551V543.8h-4.551Z" transform="translate(-159.813 -353.774)" fill="#fff"/>
      <path id="Trazado_807006" data-name="Trazado 807006" d="M533.688,122.745h4.551v4.28h-4.551Z" transform="translate(-412.151 -25.732)" fill="#231f20"/>
      <path id="Trazado_807007" data-name="Trazado 807007" d="M255.844,539.521h4.55V543.8h-4.55Z" transform="translate(-193.461 -353.774)" fill="#231f20"/>
      <path id="Trazado_807008" data-name="Trazado 807008" d="M170.349,539.521H174.9V543.8h-4.551Z" transform="translate(-126.169 -353.774)" fill="#231f20"/>
      <path id="Trazado_807009" data-name="Trazado 807009" d="M127.6,539.521h4.551V543.8H127.6Z" transform="translate(-92.524 -353.774)" fill="#fff"/>
    </g>
  </g>
</svg>
