<svg xmlns="http://www.w3.org/2000/svg" width="190" height="190" viewBox="0 0 190 190">
  <g id="Grupo_1071360" data-name="Grupo 1071360" transform="translate(-1125 -4818)">
    <rect id="Rectángulo_375957" data-name="Rectángulo 375957" width="190" height="190" rx="18" transform="translate(1125 4818)" fill="#fffad0"/>
    <g id="Flat" transform="translate(1143.917 4816.705)">
      <path id="Trazado_807041" data-name="Trazado 807041" d="M142.384,128a24.929,24.929,0,0,0-17.628,7.3l-27.6,27.6a10.577,10.577,0,0,0,14.958,14.958l27.422-27.422h27.422l-41.775,41.775a10.577,10.577,0,0,0,7.479,18.055h.064a10.421,10.421,0,0,0,7.368-3.053l.046-.046a10.577,10.577,0,0,0,14.957,14.96l-.06.06A10.348,10.348,0,0,0,152,229.51v.323a10.348,10.348,0,0,0,18.041,6.923l19.353-21.5h9.972a24.929,24.929,0,0,0,19.943-9.972V128Z" transform="translate(-48.227 -71.592)" fill="#4aaeda"/>
      <path id="Trazado_807042" data-name="Trazado 807042" d="M0,0H32.762V4.986H0Z" transform="translate(88.798 135.139) rotate(-45)" fill="#3ba5d3"/>
      <path id="Trazado_807043" data-name="Trazado 807043" d="M0,0H32.762V4.986H0Z" transform="translate(103.752 150.096) rotate(-45)" fill="#3ba5d3"/>
      <path id="Trazado_807044" data-name="Trazado 807044" d="M24,146.153,143.073,27.081A10.518,10.518,0,0,1,150.51,24h.083a10.518,10.518,0,0,1,7.338,18.054L66.38,131.2v12.465L53.791,156.25A42.13,42.13,0,0,1,24,168.59Z" fill="#dfdfdd"/>
      <g id="Grupo_1067440" data-name="Grupo 1067440" transform="translate(69.587 37.206)">
        <path id="Trazado_807045" data-name="Trazado 807045" d="M0,0H4.986V7.051H0Z" transform="translate(62.323 11.002) rotate(-45)" fill="#d5d5d3"/>
        <path id="Trazado_807046" data-name="Trazado 807046" d="M0,0H4.986V7.051H0Z" transform="translate(54.844 18.479) rotate(-45)" fill="#d5d5d3"/>
        <path id="Trazado_807047" data-name="Trazado 807047" d="M0,0H4.986V7.051H0Z" transform="translate(69.802 3.525) rotate(-45)" fill="#d5d5d3"/>
        <path id="Trazado_807048" data-name="Trazado 807048" d="M0,0H4.986V7.051H0Z" transform="translate(47.366 25.957) rotate(-45)" fill="#d5d5d3"/>
        <path id="Trazado_807049" data-name="Trazado 807049" d="M0,0H4.986V7.051H0Z" transform="translate(39.887 33.434) rotate(-45)" fill="#d5d5d3"/>
        <path id="Trazado_807050" data-name="Trazado 807050" d="M0,0H4.986V7.051H0Z" transform="translate(7.479 65.835) rotate(-45)" fill="#d5d5d3"/>
        <path id="Trazado_807051" data-name="Trazado 807051" d="M0,0H4.986V7.051H0Z" transform="translate(0 73.312) rotate(-45)" fill="#d5d5d3"/>
      </g>
      <path id="Trazado_807052" data-name="Trazado 807052" d="M47.047,402.164l-1.577-4.73a36.5,36.5,0,0,0,12.558-7.2l14.011-12.259,3.283,3.752L61.311,393.99A41.465,41.465,0,0,1,47.047,402.164Z" transform="translate(-14.78 -243.673)" fill="#eaeae8"/>
      <path id="Trazado_807053" data-name="Trazado 807053" d="M236.465,200a12.465,12.465,0,0,0,0,24.929H266.38l5.038,5.667a49.962,49.962,0,0,0,37.342,16.769V200Z" transform="translate(-137.677 -121.156)" fill="#4db6e4"/>
    </g>
  </g>
</svg>
