<svg xmlns="http://www.w3.org/2000/svg" width="105" height="104.955" viewBox="0 0 105 104.955">
  <g id="Grupo_1071361" data-name="Grupo 1071361" transform="translate(-105 -126.022)">
    <g id="scalpel_1_" data-name="scalpel (1)" transform="translate(105.001 125.925)">
      <path id="Trazado_807054" data-name="Trazado 807054" d="M407.437.1a7.239,7.239,0,0,1,7.238,7.238V61.623H400.2V7.336A7.239,7.239,0,0,1,407.437.1Zm0,0" transform="translate(-309.677)" fill="#ee1442"/>
      <path id="Trazado_807055" data-name="Trazado 807055" d="M410.152.66A7.218,7.218,0,0,0,400.2,7.355V61.642h5.429V7.355A7.237,7.237,0,0,1,410.152.66Zm0,0" transform="translate(-309.676 -0.019)" fill="#ce1743"/>
      <path id="Trazado_807056" data-name="Trazado 807056" d="M411.056,279.336V272.1H400.2v43.43a14.476,14.476,0,0,0,14.477-14.477v-18.1A3.619,3.619,0,0,0,411.056,279.336Zm0,0" transform="translate(-309.677 -210.475)" fill="#88d3d1"/>
      <path id="Trazado_807057" data-name="Trazado 807057" d="M403.818,302.645v-23.31a3.619,3.619,0,0,1,3.619-3.619h3.619V272.1H400.2v43.43h.181a3.575,3.575,0,0,0,3.438-3.619Zm0,0" transform="translate(-309.677 -210.474)" fill="#33b1a2"/>
      <path id="Trazado_807058" data-name="Trazado 807058" d="M426.009,358.575a1.809,1.809,0,0,1-1.81-1.81V345.908a1.81,1.81,0,1,1,3.619,0v10.857A1.809,1.809,0,0,1,426.009,358.575Zm0,0" transform="translate(-328.248 -266.189)" fill="#c5dddc"/>
      <path id="Trazado_807059" data-name="Trazado 807059" d="M400.2,208.1h14.477v7.238H400.2Zm0,0" transform="translate(-309.677 -160.952)" fill="#88d3d1"/>
      <path id="Trazado_807060" data-name="Trazado 807060" d="M400.2,176.1h14.477v7.238H400.2Zm0,0" transform="translate(-309.677 -136.19)" fill="#c5dddc"/>
      <path id="Trazado_807061" data-name="Trazado 807061" d="M400.2,176.1h5.429v7.238H400.2Zm0,0" transform="translate(-309.677 -136.19)" fill="#88d3d1"/>
      <path id="Trazado_807062" data-name="Trazado 807062" d="M400.2,208.1h5.429v7.238H400.2Zm0,0" transform="translate(-309.677 -160.952)" fill="#33b1a2"/>
      <path id="Trazado_807063" data-name="Trazado 807063" d="M190.722,370.477a1.809,1.809,0,0,1-.617-3.509l6.793-2.485a1.81,1.81,0,1,1,1.238,3.4l-6.8,2.478a1.783,1.783,0,0,1-.611.116Zm0,0" transform="translate(-146.186 -281.869)" fill="#c5dddc"/>
      <path id="Trazado_807064" data-name="Trazado 807064" d="M115.929,370.582a1.8,1.8,0,0,1-.619-.109l-6.8-2.477a1.81,1.81,0,0,1,1.237-3.4l6.8,2.478a1.81,1.81,0,0,1-.619,3.509Zm0,0" transform="translate(-83.069 -281.974)" fill="#88d3d1"/>
      <path id="Trazado_807065" data-name="Trazado 807065" d="M162.769,91.35a10.958,10.958,0,0,0-11.331-5.874,10.683,10.683,0,0,0-5.281,2.353L128.6,39.623a1.81,1.81,0,0,1,1.086-2.32,1.808,1.808,0,0,0,1.085-2.319L119.014,2.676a10.858,10.858,0,0,0-6.489,13.915L119.763,36.5,142.7,99.522a11.141,11.141,0,0,0,13.536,7.057,10.858,10.858,0,0,0,6.529-15.229Zm-8.483,8.259a3.619,3.619,0,1,1,2.048-1.87,3.618,3.618,0,0,1-2.048,1.87Zm0,0" transform="translate(-86.564 -1.995)" fill="#c5dddc"/>
      <path id="Trazado_807066" data-name="Trazado 807066" d="M44.6,36.519l7.238-19.9A10.857,10.857,0,0,0,45.352,2.708L39.1,19.869l5.514,15.146M39.1,51.614,35.253,41.033,18.208,87.86a10.688,10.688,0,0,0-5.28-2.353,10.858,10.858,0,0,0-4.807,21.1,11.14,11.14,0,0,0,13.536-7.057ZM14.71,97.47a3.62,3.62,0,1,1-.125-2.769A3.62,3.62,0,0,1,14.71,97.47Zm0,0" transform="translate(-0.405 -2.02)" fill="#88d3d1"/>
      <path id="Trazado_807067" data-name="Trazado 807067" d="M147.477,172.141l-1.925,5.291,3.851,10.581,1.925-5.29Zm0,0" transform="translate(-112.629 -133.128)" fill="#33b1a2"/>
      <path id="Trazado_807068" data-name="Trazado 807068" d="M176.6,75.625l-.019,1.5,2.21-6.068-5.779-15.873-1.925,5.291Zm0,0" transform="translate(-132.388 -42.629)" fill="#33b1a2"/>
      <path id="Trazado_807069" data-name="Trazado 807069" d="M160.382,104.687a11.141,11.141,0,0,1-13.536-7.057L123.9,34.6l-7.238-19.9a10.828,10.828,0,0,1,1.226-9.8,10.859,10.859,0,0,0-5.347,13.418l7.238,19.905,22.94,63.02a11.141,11.141,0,0,0,13.536,7.057,10.8,10.8,0,0,0,5.8-4.312,10.971,10.971,0,0,1-1.678.7Zm0,0" transform="translate(-86.58 -3.715)" fill="#88d3d1"/>
      <path id="Trazado_807070" data-name="Trazado 807070" d="M13.145,387.443A10.859,10.859,0,0,1,6.62,372.207a10.381,10.381,0,0,1,1.251-1.9,10.807,10.807,0,1,0,11.386,17.136,10.4,10.4,0,0,1-6.112,0Zm0,0" transform="translate(0 -286.471)" fill="#33b1a2"/>
    </g>
  </g>
</svg>
