<svg id="hormone-free" xmlns="http://www.w3.org/2000/svg" width="125.217" height="125.217" viewBox="0 0 125.217 125.217">
  <path id="Trazado_807071" data-name="Trazado 807071" d="M340.68,346.218l5.533-5.534L356,350.468,350.464,356Zm0,0" transform="translate(-257.362 -257.365)" fill="#d7dee2"/>
  <path id="Trazado_807072" data-name="Trazado 807072" d="M91.3,107.912l16.6-16.6,19.371,19.366-16.6,16.6Zm0,0" transform="translate(-68.975 -68.978)" fill="#d7dee2"/>
  <path id="Trazado_807073" data-name="Trazado 807073" d="M68.684,96.368,96.353,68.7l5.533,5.534L74.217,101.9Zm0,0" transform="translate(-51.886 -51.898)" fill="#77959e"/>
  <path id="Trazado_807074" data-name="Trazado 807074" d="M159.834,187.5l-34.588-34.588,27.669-27.669L187.5,159.834l-3.459,24.21Zm0,0" transform="translate(-94.615 -94.615)" fill="#40a2e7"/>
  <path id="Trazado_807075" data-name="Trazado 807075" d="M287.246,256.42l11.74-11.74,5.534,5.534-11.74,11.74Zm0,0" transform="translate(-216.996 -184.84)" fill="#fff"/>
  <path id="Trazado_807076" data-name="Trazado 807076" d="M158.425,208.668a4,4,0,0,1,0-5.646l20.935-20.935-16.6-16.6-20.935,20.935a4,4,0,0,1-5.646,0l-7.021-7.021-3.913,3.913L159.834,217.9l24.214-3.459,1.139-7.963L161.81,209.8a3.981,3.981,0,0,1-3.386-1.127Zm0,0" transform="translate(-94.615 -125.016)" fill="#168de2"/>
  <path id="Trazado_807077" data-name="Trazado 807077" d="M62.609,0a62.609,62.609,0,1,0,62.609,62.609A62.682,62.682,0,0,0,62.609,0Zm0,7.826a54.483,54.483,0,0,1,35.82,13.429L21.255,98.429a54.7,54.7,0,0,1,41.353-90.6Zm0,109.565a54.483,54.483,0,0,1-35.82-13.429l77.174-77.174a54.7,54.7,0,0,1-41.353,90.6Zm0,0" fill="#e76e54"/>
</svg>
