<svg xmlns="http://www.w3.org/2000/svg" width="110.498" height="110.512" viewBox="0 0 110.498 110.512">
  <g id="rubber-bands" transform="translate(-0.5 -0.001)">
    <path id="Trazado_807078" data-name="Trazado 807078" d="M86.461,7.72c-.454-.454-.906-.841-1.36-1.23A25.52,25.52,0,0,0,49.814,7.72c-5.373,5.373-6.021,11.459-6.6,16.833-.583,4.856-1.036,9.13-4.856,12.884-3.755,3.82-8.461,4.274-13.317,4.857-5.373.583-11.459,1.23-16.833,6.6a26.028,26.028,0,0,0,18.323,44.35,27.076,27.076,0,0,0,18.754-7.7c5.374-5.373,6.022-11.459,6.6-16.833.583-4.921,1.036-9.129,4.791-12.949C60.5,52,64.706,51.552,69.626,50.97c6.276-.661,11.78-1.551,16.834-6.6a25.6,25.6,0,0,0,0-36.645Zm-4.6,32.049c-3.755,3.755-8.028,4.208-12.949,4.791-5.309.583-11.4,1.23-16.769,6.669C46.707,56.6,46.06,62.688,45.477,68c-.583,4.921-1.036,9.194-4.792,12.949a19.707,19.707,0,0,1-27.884,0,19.191,19.191,0,0,1,0-27.452c3.755-3.755,8.028-4.273,12.949-4.791,5.309-.583,11.827-1.3,17.2-6.669s6.086-11.46,6.668-16.769c.518-4.92,1.036-9.193,4.792-12.949a19.191,19.191,0,0,1,27.452,0A19.752,19.752,0,0,1,85.1,16.524a19.214,19.214,0,0,1-3.237,23.244Zm0,0" fill="#ff7816"/>
    <path id="Trazado_807079" data-name="Trazado 807079" d="M114.451,34.99c-.073-.073-.147-.142-.22-.212l-4.6,4.6c.073.071.149.138.222.211a19.775,19.775,0,0,1,3.237,4.208,19.214,19.214,0,0,1-3.237,23.244c-3.756,3.755-8.028,4.208-12.949,4.792-5.309.583-11.4,1.23-16.769,6.668-5.438,5.373-6.087,11.46-6.668,16.769-.583,4.921-1.036,9.194-4.792,12.949a19.708,19.708,0,0,1-27.884,0h0l-4.6,4.6a25.866,25.866,0,0,0,18.323,7.7,27.082,27.082,0,0,0,18.754-7.7c5.374-5.373,6.022-11.46,6.6-16.834.583-4.921,1.036-9.129,4.791-12.949,3.82-3.755,8.028-4.208,12.949-4.791,6.276-.661,11.78-1.551,16.834-6.6a25.6,25.6,0,0,0,0-36.645Zm0,0" transform="translate(-27.99 -27.27)" fill="#ff4b00"/>
    <path id="Trazado_807080" data-name="Trazado 807080" d="M311.312,55.1c0-5.308,2.654-8.676,5.763-12.56,3.366-4.208,7.186-8.935,7.186-16.575a25.9,25.9,0,0,0-51.8,0c0,7.64,3.82,12.366,7.187,16.575,3.108,3.884,5.762,7.252,5.762,12.56s-2.654,8.676-5.762,12.561c-3.367,4.208-7.187,8.935-7.187,16.575a25.9,25.9,0,1,0,51.8,0c0-7.64-3.82-12.366-7.186-16.575-3.109-3.885-5.763-7.252-5.763-12.561ZM298.363,104.09A19.6,19.6,0,0,1,278.94,84.235c0-5.309,2.654-8.676,5.763-12.56,3.366-4.209,7.186-8.935,7.186-16.575s-3.82-12.366-7.186-16.575c-3.109-3.884-5.763-7.251-5.763-12.56a19.424,19.424,0,1,1,38.847,0c0,5.309-2.654,8.676-5.762,12.56-3.367,4.208-7.187,8.935-7.187,16.575s3.82,12.366,7.187,16.575c3.108,3.884,5.762,7.251,5.762,12.56A19.6,19.6,0,0,1,298.363,104.09Zm0,0" transform="translate(-213.263 -0.052)" fill="#ffd400"/>
    <path id="Trazado_807081" data-name="Trazado 807081" d="M411.162,67.66c3.366,4.208,7.186,8.935,7.186,16.575a26.013,26.013,0,0,1-25.9,26.33V104.09a19.6,19.6,0,0,0,19.423-19.855c0-5.309-2.654-8.676-5.762-12.56-3.367-4.209-7.187-8.935-7.187-16.575s3.82-12.366,7.187-16.575c3.108-3.884,5.762-7.251,5.762-12.56A19.235,19.235,0,0,0,392.45,6.541V.066a25.646,25.646,0,0,1,25.9,25.9c0,7.64-3.82,12.366-7.186,16.575-3.109,3.884-5.763,7.252-5.763,12.56s2.654,8.676,5.763,12.561Zm0,0" transform="translate(-307.349 -0.051)" fill="#fdbf00"/>
  </g>
</svg>
