<svg xmlns="http://www.w3.org/2000/svg" width="230" height="153" viewBox="0 0 230 153">
  <g id="Grupo_1071130" data-name="Grupo 1071130" transform="translate(-999.855 -1421)">
    <rect id="Rectángulo_375952" data-name="Rectángulo 375952" width="230" height="153" rx="21" transform="translate(999.855 1421)" fill="#fffad0"/>
    <g id="latido-del-corazon_1_" data-name="latido-del-corazon (1)" transform="translate(1027.08 1442.291)">
      <g id="Grupo_1067099" data-name="Grupo 1067099" transform="translate(39.761 69.231)">
        <g id="Grupo_1067098" data-name="Grupo 1067098">
          <path id="Trazado_805639" data-name="Trazado 805639" d="M216.039,292.973a9.957,9.957,0,0,0-10.153,1.106l-26.343,20.3,3.493,16.861a18.211,18.211,0,0,0,8.767-5.194l26.365-28.166c1.744-1.863-.921-4.335-2.129-4.91Z" transform="translate(-146.247 -291.727)" fill="#f89f8e"/>
          <path id="Trazado_805640" data-name="Trazado 805640" d="M283.642,292.973a9.957,9.957,0,0,0-10.153,1.106l-26.343,20.3,3.493,16.861a18.211,18.211,0,0,0,8.767-5.194l26.365-28.166C287.516,296.02,284.85,293.548,283.642,292.973Z" transform="translate(-197.747 -291.727)" fill="#fdb0a0"/>
          <path id="Trazado_805641" data-name="Trazado 805641" d="M140.618,292.668a9.8,9.8,0,0,0-10.153,1.106l-24.613,18.97a5.613,5.613,0,0,1-3.907,1.147l-20.968-1.8,14.713-14.115a3.324,3.324,0,0,0,.232-4.55A7.919,7.919,0,0,0,84.918,292.4c-3.77,3.027-9.15,6.2-18.718,6.2-13.273,0-16.479,14.981-16.479,14.981a9.96,9.96,0,0,0-9.96,9.96v7.512A12.315,12.315,0,0,0,54.109,343.2l16.5-2.761,37-9.5a18.21,18.21,0,0,0,8.767-5.194l25.379-27.112a3.755,3.755,0,0,0-1.143-5.964Z" transform="translate(-39.761 -290.645)" fill="#ffdfd0"/>
          <path id="Trazado_805642" data-name="Trazado 805642" d="M335.836,302.118l-25.378,27.113a18.22,18.22,0,0,1-8.768,5.192l-7.173,1.843a18.3,18.3,0,0,0,4.547-3.529l28.966-31.11a3.754,3.754,0,0,0-.859-5.813,9.773,9.773,0,0,1,7.521.339,3.756,3.756,0,0,1,1.143,5.965Z" transform="translate(-233.835 -294.13)" fill="#ffcec0"/>
        </g>
      </g>
      <g id="Grupo_1067104" data-name="Grupo 1067104" transform="translate(48.308 0)">
        <g id="Grupo_1067102" data-name="Grupo 1067102">
          <g id="Grupo_1067101" data-name="Grupo 1067101">
            <g id="Grupo_1067100" data-name="Grupo 1067100">
              <path id="Trazado_805643" data-name="Trazado 805643" d="M110.668,9.58C100.794-6.652,74.8-1.887,75.662,21.074c.714,18.921,20.909,36.056,33.923,42.491a2.444,2.444,0,0,0,2.164,0c13.015-6.435,33.209-23.57,33.923-42.491.866-22.961-25.131-27.726-35.005-11.494Z" transform="translate(-75.641 0)" fill="#fb4a59"/>
              <path id="Trazado_805644" data-name="Trazado 805644" d="M236.2,21.075C235.49,40,215.3,57.13,202.28,63.566a2.446,2.446,0,0,1-2.163,0,61.554,61.554,0,0,1-5.638-3.2c12.255-5.806,32.033-22.258,32.72-40.462.42-11.165-5.883-17.777-13.374-19.47C224.666-1.915,236.8,5.268,236.2,21.075Z" transform="translate(-166.172 -0.001)" fill="#f82f40"/>
            </g>
          </g>
          <path id="Trazado_805645" data-name="Trazado 805645" d="M146.567,99.8h-.026a1.84,1.84,0,0,1-1.751-1.357l-5.492-20.2-1.708,6.875a1.84,1.84,0,0,1-1.786,1.4H125.244a1.84,1.84,0,1,1,0-3.681h9.121l3.067-12.345a1.84,1.84,0,0,1,3.562-.039l5.664,20.833,4.994-16.551a1.84,1.84,0,0,1,3.537.046l2.2,8.055h8.519a1.84,1.84,0,1,1,0,3.681H155.99a1.84,1.84,0,0,1-1.775-1.355l-.886-3.239-5,16.569A1.841,1.841,0,0,1,146.567,99.8Z" transform="translate(-112.027 -52.638)" fill="#eaf6ff"/>
        </g>
        <g id="Grupo_1067103" data-name="Grupo 1067103" transform="translate(54.184 16.172)">
          <path id="Trazado_805646" data-name="Trazado 805646" d="M332.9,77.173h-7.323V69.85a1.956,1.956,0,0,0-1.956-1.956H314.35a1.956,1.956,0,0,0-1.956,1.956v7.323H305.07a1.956,1.956,0,0,0-1.956,1.956V88.4a1.956,1.956,0,0,0,1.956,1.956h7.323v7.323a1.956,1.956,0,0,0,1.956,1.956h9.267a1.956,1.956,0,0,0,1.956-1.956V90.353H332.9a1.956,1.956,0,0,0,1.956-1.956V79.129A1.956,1.956,0,0,0,332.9,77.173Z" transform="translate(-303.114 -67.894)" fill="#31a7fb"/>
          <path id="Trazado_805647" data-name="Trazado 805647" d="M409.334,108.806v9.266a1.956,1.956,0,0,1-1.955,1.958h-6.493a1.957,1.957,0,0,0,1.958-1.958v-9.266a1.956,1.956,0,0,0-1.958-1.955h6.493A1.956,1.956,0,0,1,409.334,108.806Z" transform="translate(-377.597 -97.571)" fill="#1c96f9"/>
        </g>
      </g>
    </g>
  </g>
</svg>
