<svg xmlns="http://www.w3.org/2000/svg" width="230" height="153" viewBox="0 0 230 153">
  <g id="Grupo_1071131" data-name="Grupo 1071131" transform="translate(-369.855 -1680)">
    <rect id="Rectángulo_375953" data-name="Rectángulo 375953" width="230" height="153" rx="21" transform="translate(369.855 1680)" fill="#fffad0"/>
    <g id="_x33_2" transform="translate(388.289 1683.961)">
      <g id="Grupo_1067151" data-name="Grupo 1067151" transform="translate(88.849 10.34)">
        <g id="Grupo_1067108" data-name="Grupo 1067108" transform="translate(8.695 0)">
          <g id="Grupo_1067105" data-name="Grupo 1067105" transform="translate(0 0.005)">
            <path id="Trazado_805648" data-name="Trazado 805648" d="M33.508,18.709a2.132,2.132,0,0,1-2.838.639c-.592-.528-.45-1.253-.443-5.157,0-1.021-.637-1.11-1.222-.524-1.481,1.481-.7,2.879-1.228,2.959-.559.088-.46-2.369-.384-2.925.526-3.908,4.488-4.444,5.827-1.412.505,1.142.482,2.505.572,4.478.067,1.457.18,1.407-.283,1.942Z" transform="translate(-27.333 -10.341)" fill="#5b5e8b"/>
          </g>
          <g id="Grupo_1067106" data-name="Grupo 1067106">
            <path id="Trazado_805649" data-name="Trazado 805649" d="M31,10.391c-1.367.277-2.684,1.644-2.684,4.268A3.434,3.434,0,0,0,28,16.137c0,.2-.028.463-.224.493-.559.088-.46-2.369-.384-2.925C27.724,11.243,29.481,10.072,31,10.391Z" transform="translate(-27.333 -10.34)" fill="#312e4b"/>
          </g>
          <g id="Grupo_1067107" data-name="Grupo 1067107" transform="translate(2.777 2.966)">
            <path id="Trazado_805650" data-name="Trazado 805650" d="M31.457,16.521a2.6,2.6,0,0,1-1.535.916c-2.272.349-1.753-1.93-1.747-5.433a1.3,1.3,0,0,0-.117-.633c.516-.451,1.106-.344,1.106.633q0,.014,0,.029a2.422,2.422,0,0,0,2.528,2.415h.043c.042,1.5.227,1.49-.278,2.074Z" transform="translate(-28.059 -11.115)" fill="#312e4b"/>
          </g>
        </g>
        <g id="Grupo_1067112" data-name="Grupo 1067112" transform="translate(16.769)">
          <g id="Grupo_1067109" data-name="Grupo 1067109" transform="translate(0 0.006)">
            <path id="Trazado_805651" data-name="Trazado 805651" d="M35.772,16.483c-.15.249-.484.216-.479-.35a3.466,3.466,0,0,0-1-2.467c-.271-.271-.631-.487-.949-.279-.762.5.276,5.075-.716,5.96-1.059.94-3.143-.424-3.179-1.274-.018-.431.034-.8.063-1.44a12.6,12.6,0,0,1,.566-4.346c1.338-3.031,5.3-2.495,5.827,1.412a7.789,7.789,0,0,1-.131,2.783Z" transform="translate(-29.443 -10.341)" fill="#5b5e8b"/>
          </g>
          <g id="Grupo_1067110" data-name="Grupo 1067110" transform="translate(2.847)">
            <path id="Trazado_805652" data-name="Trazado 805652" d="M30.187,10.391c1.375.278,2.684,1.652,2.684,4.268a3.434,3.434,0,0,1,.32,1.478c-.013.662.485.659.556.055.215-1.688.2-3.465-.884-4.765A2.93,2.93,0,0,0,30.7,10.34a2.386,2.386,0,0,0-.518.051Z" transform="translate(-30.187 -10.34)" fill="#312e4b"/>
          </g>
          <g id="Grupo_1067111" data-name="Grupo 1067111" transform="translate(0 2.967)">
            <path id="Trazado_805653" data-name="Trazado 805653" d="M33.076,15.32c-.009.446.078,1.367-.451,1.839-1.047.929-3.141-.379-3.179-1.274-.02-.475.05-.967.062-1.439h.043a2.422,2.422,0,0,0,2.528-2.415q0-.014,0-.029c0-.97.587-1.087,1.106-.633-.184.319-.115.761-.109,3.95Z" transform="translate(-29.443 -11.115)" fill="#312e4b"/>
          </g>
        </g>
        <g id="Grupo_1067113" data-name="Grupo 1067113" transform="translate(76.294 50.007)">
          <path id="Trazado_805654" data-name="Trazado 805654" d="M49.58,23.406s-.893,6.356,2.872,11.436a3.473,3.473,0,0,1,.69,2.143l-.419,19.105a.593.593,0,0,1-.593.58h-3.6a.593.593,0,0,1-.576-.733c1.743-7.16.649-11.792-1.126-15.119-2.983-8.473-2.494-14.57,2.754-17.411Z" transform="translate(-44.995 -23.406)" fill="#c6c6f7"/>
        </g>
        <g id="Grupo_1067114" data-name="Grupo 1067114" transform="translate(79.234 80.346)">
          <path id="Trazado_805655" data-name="Trazado 805655" d="M46.24,31.333c-.124.7-.275,1.433-.459,2.192a.593.593,0,0,0,.576.733h3.6a.593.593,0,0,0,.593-.58l.051-2.345Z" transform="translate(-45.763 -31.333)" fill="#312e4b"/>
        </g>
        <g id="Grupo_1067115" data-name="Grupo 1067115" transform="translate(26.258 53.159)">
          <path id="Trazado_805656" data-name="Trazado 805656" d="M39.871,54.183a.593.593,0,0,0,.592-.635c-.144-2.032-.239-5.188-.287-6.944-.509-18.613,2.089-18.861.739-20.969-.613-.957-1.9-1.169-3.026-1.291-1.984-.214-4.292-.328-5.446,1.583-1.351,2.239.247,5.1,1.15,7.02,2.6,5.54,2.878,14.341,1.695,20.534a.592.592,0,0,0,.582.7h4Z" transform="translate(-31.922 -24.229)" fill="#c6c6f7"/>
        </g>
        <g id="Grupo_1067116" data-name="Grupo 1067116" transform="translate(14.268 15.837)">
          <path id="Trazado_805657" data-name="Trazado 805657" d="M104.255,35.228a4.647,4.647,0,0,1-2.9-2.018,6.962,6.962,0,0,0-2.633-2.441,1.859,1.859,0,0,0-1.326-.077,1.084,1.084,0,0,0-.75,1.019c.019.577.538.961.865,1.4a4.762,4.762,0,0,1,.577,3.421,49.956,49.956,0,0,1-2.864,12.629,35.438,35.438,0,0,1-1.826,3.864,7.363,7.363,0,0,0-.884,4.517c.154,1.211.615,2.384.75,3.595a13.866,13.866,0,0,1-.615,4.921c-1.23,4.959-2.441,9.919-3.691,14.859a2.7,2.7,0,0,1-.654,1.422,2.841,2.841,0,0,1-1.961.481c-1.038-.019-2.076-.019-3.114-.038-.384,0-.865-.077-.961-.442-.1-.327.173-.615.4-.846a11.137,11.137,0,0,0,2.018-3.172,22.541,22.541,0,0,0,1.826-11.514,22.969,22.969,0,0,0-4.306-10.956,36.278,36.278,0,0,1-24.1.788c-9.7-3.176-12.579-6.4-13.321-2.191C43.955,59.313,42.648,77,42.744,81.13a.58.58,0,0,1-.6.615c-5.374-.09-4.648.982-3.518-3.979.362-1.563.272-1.164.538-22.547.2-13.152-7.981-3.871-9.284-23.412-.019-.442-.038-.9-.077-1.346-.327-.115-.673-.288-1.019-.442V16.851a7.507,7.507,0,0,1,6.247-2.307c3.227.481,5.4,3.245,8.208,4.671,1.718.859,14.382,4.619,18.107,4.844,7.03.437,20.737-3.792,25.258-2.979a8.482,8.482,0,0,1,5.863,4c1.9.327,3.806.653,5.728.98a6.779,6.779,0,0,1,3.287,1.173,6.224,6.224,0,0,1,1.769,3.364,47.31,47.31,0,0,1,1,4.632Z" transform="translate(-28.789 -14.478)" fill="#deddff"/>
        </g>
        <g id="Grupo_1067117" data-name="Grupo 1067117" transform="translate(14.263 15.836)">
          <path id="Trazado_805658" data-name="Trazado 805658" d="M41.562,55.214c-.243,22.266-.216,21.193-.53,22.557-.628,2.733-1.226,3.774-.368,3.982-3.745.029-3.047.483-2.021-3.982.335-1.454.29-.492.53-22.557.1-6.993-1.76-7.247-4.3-9.482a13.959,13.959,0,0,1-4.035-7.073,41.659,41.659,0,0,1-1.017-8.195c-.328-.125-.678-.283-1.029-.451V16.857a7.522,7.522,0,0,1,6.26-2.316,10.925,10.925,0,0,1,4.777,2.37c.016,4.982-1.29,10.056-5.136,13.191a5.6,5.6,0,0,0-2.074,5.044c1.06,9.761,5.54,10.713,7.388,12.993,1.549,1.921,1.594,4.6,1.559,7.075Z" transform="translate(-28.788 -14.477)" fill="#c6c6f7"/>
        </g>
        <g id="Grupo_1067118" data-name="Grupo 1067118" transform="translate(29.613 80.28)">
          <path id="Trazado_805659" data-name="Trazado 805659" d="M33.144,31.315c-.094.736-.2,1.449-.335,2.13a.592.592,0,0,0,.582.7h4a.593.593,0,0,0,.592-.635c-.046-.646-.086-1.406-.122-2.2Z" transform="translate(-32.799 -31.315)" fill="#312e4b"/>
        </g>
        <g id="Grupo_1067119" data-name="Grupo 1067119" transform="translate(23.323 80.28)">
          <path id="Trazado_805660" data-name="Trazado 805660" d="M36.083,31.315h-4.42c-.951,3.653-1,2.78,3.8,2.826a.592.592,0,0,0,.6-.609c-.014-.533,0-1.292.025-2.217Z" transform="translate(-31.155 -31.315)" fill="#312e4b"/>
        </g>
        <g id="Grupo_1067120" data-name="Grupo 1067120" transform="translate(67.718 80.28)">
          <path id="Trazado_805661" data-name="Trazado 805661" d="M44.912,31.315a10.107,10.107,0,0,1-1.728,2.567c-.237.237-.509.531-.407.859.1.362.576.429.961.441l3.119.034a2.806,2.806,0,0,0,1.966-.486,2.771,2.771,0,0,0,.655-1.413q.249-1,.5-2Z" transform="translate(-42.755 -31.315)" fill="#312e4b"/>
        </g>
        <g id="Grupo_1067121" data-name="Grupo 1067121" transform="translate(21.495 4.102)">
          <path id="Trazado_805662" data-name="Trazado 805662" d="M41.145,12.959a7.206,7.206,0,0,1-1.834,4.411c-1.417,1.433-4.906,2.984-8.634,2.836l.593-3.347c3.9-3.781,3.618-3.937,8.127-5.3a1.563,1.563,0,0,1,1.394.04,1.492,1.492,0,0,1,.352,1.363Z" transform="translate(-30.677 -11.412)" fill="#deddff"/>
        </g>
        <g id="Grupo_1067122" data-name="Grupo 1067122" transform="translate(21.495 8.601)">
          <path id="Trazado_805663" data-name="Trazado 805663" d="M33.963,16.6a13.277,13.277,0,0,1-3.285.281l.593-3.347c.326-.316.653-.635.979-.949A7.76,7.76,0,0,1,33.963,16.6Z" transform="translate(-30.677 -12.587)" fill="#c6c6f7"/>
        </g>
        <g id="Grupo_1067123" data-name="Grupo 1067123" transform="translate(22.675 5.168)">
          <path id="Trazado_805664" data-name="Trazado 805664" d="M39.289,12.065v.008a6.364,6.364,0,0,1-1.553,3.814,11.3,11.3,0,0,1-6.751,2.536V16.843L33.4,14.537c2.273-2.21,2.914-1.862,5.449-2.832a.343.343,0,0,1,.439.36Z" transform="translate(-30.986 -11.69)" fill="#f879ca"/>
        </g>
        <g id="Grupo_1067124" data-name="Grupo 1067124" transform="translate(22.675 5.17)">
          <path id="Trazado_805665" data-name="Trazado 805665" d="M39.289,12.057v.014a6.364,6.364,0,0,1-1.553,3.814,11.359,11.359,0,0,1-6.751,2.536V16.842l.967-.924s.006.01.01.014a1.966,1.966,0,0,0,2.429.787c2.456-1.029,3.668-2.2,4.081-4.9l.382-.117a.347.347,0,0,1,.435.356Z" transform="translate(-30.986 -11.691)" fill="#f44aaf"/>
        </g>
        <g id="Grupo_1067125" data-name="Grupo 1067125" transform="translate(0 4.122)">
          <path id="Trazado_805666" data-name="Trazado 805666" d="M35.548,20.192c-3.716.147-7.2-1.4-8.634-2.836a7.229,7.229,0,0,1-1.834-4.411c-.237-2.337,1.679-1.471,3.62-.8,2.538.886,2.608,1.158,6.256,4.7Z" transform="translate(-25.061 -11.417)" fill="#deddff"/>
        </g>
        <g id="Grupo_1067126" data-name="Grupo 1067126" transform="translate(7.204 8.601)">
          <path id="Trazado_805667" data-name="Trazado 805667" d="M30.227,16.883a13.269,13.269,0,0,1-3.283-.281,7.764,7.764,0,0,1,1.713-4.015c.326.314.653.633.979.949Z" transform="translate(-26.943 -12.587)" fill="#c6c6f7"/>
        </g>
        <g id="Grupo_1067127" data-name="Grupo 1067127" transform="translate(1.001 5.168)">
          <path id="Trazado_805668" data-name="Trazado 805668" d="M33.628,16.843v1.578a11.314,11.314,0,0,1-6.751-2.536,6.462,6.462,0,0,1-1.553-3.821.343.343,0,0,1,.439-.36c2.568.98,3.176.623,5.449,2.832l2.415,2.306Z" transform="translate(-25.323 -11.69)" fill="#f879ca"/>
        </g>
        <g id="Grupo_1067128" data-name="Grupo 1067128" transform="translate(1.003 5.17)">
          <path id="Trazado_805669" data-name="Trazado 805669" d="M33.627,16.842V18.42a11.384,11.384,0,0,1-6.751-2.536,6.435,6.435,0,0,1-1.553-3.827.347.347,0,0,1,.435-.356l.382.117c.376,2.467,1.4,3.893,4.456,5.052a1.583,1.583,0,0,0,1.923-.714c.045-.077.093-.156.142-.235Z" transform="translate(-25.323 -11.691)" fill="#f44aaf"/>
        </g>
        <g id="Grupo_1067129" data-name="Grupo 1067129" transform="translate(23.318 80.28)">
          <path id="Trazado_805670" data-name="Trazado 805670" d="M36.061,33.533a.592.592,0,0,1-.6.609c-.917-.008-1.373.006-1.756.006-3.058.035-2.842.333-2.041-2.832h4.421c-.03.926-.04,1.683-.026,2.217Z" transform="translate(-31.154 -31.315)" fill="#312e4b"/>
        </g>
        <g id="Grupo_1067130" data-name="Grupo 1067130" transform="translate(23.318 80.28)">
          <path id="Trazado_805671" data-name="Trazado 805671" d="M33.972,34.146c-3.319,0-3.138.456-2.306-2.83h2.389c-.184.708-.374,1.416-.522,2.134A.6.6,0,0,0,33.972,34.146Z" transform="translate(-31.154 -31.315)" fill="#21203a"/>
        </g>
        <g id="Grupo_1067132" data-name="Grupo 1067132" transform="translate(41.61 22.325)" opacity="0.3">
          <g id="Grupo_1067131" data-name="Grupo 1067131">
            <path id="Trazado_805672" data-name="Trazado 805672" d="M84.057,30.435a4.647,4.647,0,0,1-2.9-2.018,6.962,6.962,0,0,0-2.633-2.441A1.859,1.859,0,0,0,77.2,25.9a1.084,1.084,0,0,0-.75,1.019c.019.577.538.961.865,1.4a4.762,4.762,0,0,1,.577,3.421,49.955,49.955,0,0,1-2.864,12.629A48.128,48.128,0,0,0,62.375,42.2c-5.5-.4-11.168-.615-16.185-2.23-5-1.634-9.342-5.017-10.13-9.746-.6-3.652.98-7.593,3.191-11.187,7.536,1.37,22-3.677,27.161-2.749a8.482,8.482,0,0,1,5.863,4c1.9.327,3.806.653,5.728.98a6.779,6.779,0,0,1,3.287,1.173A6.225,6.225,0,0,1,83.058,25.8,47.31,47.31,0,0,1,84.057,30.435Z" transform="translate(-35.933 -16.173)" fill="#fff"/>
          </g>
        </g>
        <g id="Grupo_1067133" data-name="Grupo 1067133" transform="translate(6.592 7.274)">
          <path id="Trazado_805673" data-name="Trazado 805673" d="M44.574,23.959c-1.611,3.243-.777,1.046-1.69,4.529a22,22,0,0,1-3.89,7.212c-1.329,1.184-2.414.734-3.247.814a3,3,0,0,1-2.374-.814,21.873,21.873,0,0,1-3.895-7.212c-.87-3.317-.068-1.314-1.69-4.529-1.559-3.1-1.082-7.014-.062-8.538a8.362,8.362,0,0,1,8.457-2.991,8.911,8.911,0,0,1,6.325,1.032c2.569,1.549,2.948,3.3,3.057,5.972a9.277,9.277,0,0,1-.992,4.524Z" transform="translate(-26.783 -12.24)" fill="#deddff"/>
        </g>
        <g id="Grupo_1067138" data-name="Grupo 1067138" transform="translate(12.953 25.279)">
          <g id="Grupo_1067134" data-name="Grupo 1067134">
            <path id="Trazado_805674" data-name="Trazado 805674" d="M33.687,16.945a.837.837,0,0,1,.779,1.139,3.194,3.194,0,0,1-5.964,0,.837.837,0,0,1,.779-1.139Z" transform="translate(-28.446 -16.945)" fill="#5b5e8b"/>
          </g>
          <g id="Grupo_1067135" data-name="Grupo 1067135" transform="translate(0.086 2.658)">
            <path id="Trazado_805675" data-name="Trazado 805675" d="M34.372,18.325s-.034,1.8-2.951,1.958c-2.919-.154-2.953-1.958-2.953-1.958,2.36,1.3,1.891-.686,1.891-.686h2.122S32.013,19.623,34.372,18.325Z" transform="translate(-28.468 -17.639)" fill="#5b5e8b"/>
          </g>
          <g id="Grupo_1067136" data-name="Grupo 1067136" transform="translate(3.693 0.794)">
            <path id="Trazado_805676" data-name="Trazado 805676" d="M29.45,18.72c-.3-.306,1.224-1.834,1.527-1.527C31.1,17.319,29.753,19.023,29.45,18.72Z" transform="translate(-29.411 -17.152)"/>
          </g>
          <g id="Grupo_1067137" data-name="Grupo 1067137" transform="translate(0.808 0.794)">
            <path id="Trazado_805677" data-name="Trazado 805677" d="M30.192,18.72c.3-.306-1.224-1.834-1.527-1.527C28.539,17.319,29.889,19.023,30.192,18.72Z" transform="translate(-28.657 -17.152)"/>
          </g>
        </g>
        <g id="Grupo_1067147" data-name="Grupo 1067147" transform="translate(9.306 15.136)">
          <g id="Grupo_1067142" data-name="Grupo 1067142" transform="translate(10.507)">
            <g id="Grupo_1067139" data-name="Grupo 1067139">
              <path id="Trazado_805678" data-name="Trazado 805678" d="M30.249,16.856a4.577,4.577,0,0,1,.942-1.834c1.586-1.2,1.541-.4,2.326-.722a.063.063,0,0,1,.058.111c-.039.032-.086.85-.147,1.036a1.29,1.29,0,0,1-.507.839,2.289,2.289,0,0,1-1.641.353c-.2.069-.388.137-.436.312C30.743,17.329,30.149,17.24,30.249,16.856Z" transform="translate(-30.238 -14.294)" fill="#312e4b"/>
            </g>
            <g id="Grupo_1067140" data-name="Grupo 1067140" transform="translate(1.355 1.707)">
              <path id="Trazado_805679" data-name="Trazado 805679" d="M30.688,14.976a.118.118,0,1,0-.017-.235C30.6,14.75,30.526,14.991,30.688,14.976Z" transform="translate(-30.592 -14.74)" fill="#fff"/>
            </g>
            <g id="Grupo_1067141" data-name="Grupo 1067141" transform="translate(1.113 1.012)">
              <path id="Trazado_805680" data-name="Trazado 805680" d="M30.715,15.016a.228.228,0,1,0-.034-.455C30.55,14.575,30.4,15.051,30.715,15.016Z" transform="translate(-30.529 -14.559)" fill="#fff"/>
            </g>
          </g>
          <g id="Grupo_1067146" data-name="Grupo 1067146">
            <g id="Grupo_1067143" data-name="Grupo 1067143">
              <path id="Trazado_805681" data-name="Trazado 805681" d="M30.845,16.856a4.8,4.8,0,0,0-.386-1,2.482,2.482,0,0,0-.556-.833c-1.586-1.2-1.541-.4-2.326-.722a.063.063,0,0,0-.058.111c.039.032.086.85.147,1.036a1.29,1.29,0,0,0,.507.839,2.289,2.289,0,0,0,1.641.353c.2.069.388.137.436.312C30.351,17.329,30.945,17.24,30.845,16.856Z" transform="translate(-27.493 -14.294)" fill="#312e4b"/>
            </g>
            <g id="Grupo_1067144" data-name="Grupo 1067144" transform="translate(1.799 1.707)">
              <path id="Trazado_805682" data-name="Trazado 805682" d="M28.076,14.976a.118.118,0,1,1,.017-.235C28.16,14.75,28.238,14.991,28.076,14.976Z" transform="translate(-27.963 -14.74)" fill="#fff"/>
            </g>
            <g id="Grupo_1067145" data-name="Grupo 1067145" transform="translate(1.842 1.012)">
              <path id="Trazado_805683" data-name="Trazado 805683" d="M28.195,15.016a.228.228,0,1,1,.034-.455C28.361,14.575,28.508,15.051,28.195,15.016Z" transform="translate(-27.974 -14.559)" fill="#fff"/>
            </g>
          </g>
        </g>
        <g id="Grupo_1067150" data-name="Grupo 1067150" transform="translate(11.682 14.282)">
          <g id="Grupo_1067148" data-name="Grupo 1067148" transform="translate(5.818)">
            <path id="Trazado_805684" data-name="Trazado 805684" d="M30.041,14.072c.168,3.739-.191,7.994,2.392,8.828C29.266,22.747,29.313,17.031,30.041,14.072Z" transform="translate(-29.634 -14.072)" fill="#c6c6f7"/>
          </g>
          <g id="Grupo_1067149" data-name="Grupo 1067149">
            <path id="Trazado_805685" data-name="Trazado 805685" d="M30.506,14.072c.729,2.962.774,8.675-2.393,8.828C30.625,22.089,30.311,18.425,30.506,14.072Z" transform="translate(-28.114 -14.072)" fill="#c6c6f7"/>
          </g>
        </g>
      </g>
      <g id="Grupo_1067182" data-name="Grupo 1067182" transform="translate(2.5 38.215)">
        <g id="Grupo_1067152" data-name="Grupo 1067152" transform="translate(2.488)">
          <path id="Trazado_805686" data-name="Trazado 805686" d="M180.508,54.4V82.879H3.15V74.65a5.252,5.252,0,0,1,5.244-5.243h2.028V63.551A9.18,9.18,0,0,1,19.608,54.4h8.382c3.333,0,3.945-3.538,4.325-4.1a55.485,55.485,0,0,1,50.6-32.685h5.4a4.018,4.018,0,0,1,4.019,4.019V54.4Z" transform="translate(-3.15 -17.623)" fill="#65b9ff"/>
        </g>
        <g id="Grupo_1067153" data-name="Grupo 1067153" transform="translate(2.495 60.146)">
          <path id="Trazado_805687" data-name="Trazado 805687" d="M3.152,33.338H180.51v5.129H3.152Z" transform="translate(-3.152 -33.338)" fill="#3e7fff"/>
        </g>
        <g id="Grupo_1067154" data-name="Grupo 1067154" transform="translate(41.996 6.545)">
          <path id="Trazado_805688" data-name="Trazado 805688" d="M56.6,21.247V41.072a1.9,1.9,0,0,1-1.914,1.914H15.376a1.918,1.918,0,0,1-1.531-3.062A49.018,49.018,0,0,1,53.726,19.333h.957A1.9,1.9,0,0,1,56.6,21.247Z" transform="translate(-13.473 -19.333)" fill="#e4e3ff"/>
        </g>
        <g id="Grupo_1067155" data-name="Grupo 1067155" transform="translate(0 65.256)">
          <path id="Trazado_805689" data-name="Trazado 805689" d="M186.211,36.089v7.846a1.413,1.413,0,0,1-1.416,1.416H3.954A1.421,1.421,0,0,1,2.5,43.935V36.089a1.421,1.421,0,0,1,1.454-1.416h180.84A1.413,1.413,0,0,1,186.211,36.089Z" transform="translate(-2.5 -34.673)" fill="#5b5e8b"/>
        </g>
        <g id="Grupo_1067156" data-name="Grupo 1067156" transform="translate(12.317 54.614)">
          <path id="Trazado_805690" data-name="Trazado 805690" d="M50.689,53.213H5.718a20.446,20.446,0,0,1,1.416-6.851c7.36-19.363,34.795-19.222,42.1,0A21.451,21.451,0,0,1,50.689,53.213Z" transform="translate(-5.718 -31.893)" fill="#deddff"/>
        </g>
        <g id="Grupo_1067157" data-name="Grupo 1067157" transform="translate(9.76 43.019)">
          <path id="Trazado_805691" data-name="Trazado 805691" d="M11.824,33.265a4.378,4.378,0,0,1-4.4,4.4L5.05,37.628V31.772a8.151,8.151,0,0,1,.5-2.909H7.423a4.378,4.378,0,0,1,4.4,4.4Z" transform="translate(-5.05 -28.863)" fill="#fcb73e"/>
        </g>
        <g id="Grupo_1067158" data-name="Grupo 1067158" transform="translate(174.226 52.933)">
          <path id="Trazado_805692" data-name="Trazado 805692" d="M53.641,31.453v9.222h-3.9a1.721,1.721,0,0,1-1.716-1.716V33.169a1.721,1.721,0,0,1,1.716-1.716h3.9Z" transform="translate(-48.022 -31.453)" fill="#e83d62"/>
        </g>
        <g id="Grupo_1067165" data-name="Grupo 1067165" transform="translate(16.534 58.403)">
          <g id="Grupo_1067164" data-name="Grupo 1067164">
            <g id="Grupo_1067163" data-name="Grupo 1067163">
              <g id="Grupo_1067159" data-name="Grupo 1067159">
                <path id="Trazado_805693" data-name="Trazado 805693" d="M44.242,51.579a17.948,17.948,0,0,1-.442,4,18.664,18.664,0,1,1,.442-4Z" transform="translate(-6.82 -32.883)" fill="#5b5e8b"/>
              </g>
              <g id="Grupo_1067160" data-name="Grupo 1067160" transform="translate(0.007 3.005)">
                <path id="Trazado_805694" data-name="Trazado 805694" d="M41.153,59.617a18.7,18.7,0,1,1-25.8-25.949,18.358,18.358,0,0,0-3.062,10.219,17.17,17.17,0,0,0,.459,3.981,18.689,18.689,0,0,0,28.4,11.75Z" transform="translate(-6.822 -33.668)" fill="#312e4b"/>
              </g>
              <g id="Grupo_1067161" data-name="Grupo 1067161" transform="translate(9.689 10.269)">
                <path id="Trazado_805695" data-name="Trazado 805695" d="M17.919,52.724a8.579,8.579,0,1,1,8.593-8.592A8.613,8.613,0,0,1,17.919,52.724Z" transform="translate(-9.351 -35.566)" fill="#deddff"/>
              </g>
              <g id="Grupo_1067162" data-name="Grupo 1067162" transform="translate(9.69 11.464)">
                <path id="Trazado_805696" data-name="Trazado 805696" d="M25.312,47.589c-4.37,7.507-15.96,4.4-15.96-4.325A8.429,8.429,0,0,1,13.6,35.878c-4.335,7.528,4.151,16.064,11.712,11.712Z" transform="translate(-9.352 -35.878)" fill="#c6c6f7"/>
              </g>
            </g>
          </g>
        </g>
        <g id="Grupo_1067173" data-name="Grupo 1067173" transform="translate(126.217 54.578)">
          <g id="Grupo_1067166" data-name="Grupo 1067166">
            <path id="Trazado_805697" data-name="Trazado 805697" d="M80.449,53.24H35.478a20.446,20.446,0,0,1,1.416-6.851,22.527,22.527,0,0,1,42.1,0A21.451,21.451,0,0,1,80.449,53.24Z" transform="translate(-35.478 -31.883)" fill="#deddff"/>
          </g>
          <g id="Grupo_1067172" data-name="Grupo 1067172" transform="translate(3.751 3.825)">
            <g id="Grupo_1067171" data-name="Grupo 1067171">
              <g id="Grupo_1067167" data-name="Grupo 1067167">
                <path id="Trazado_805698" data-name="Trazado 805698" d="M73.88,51.579a17.948,17.948,0,0,1-.442,4,18.7,18.7,0,0,1-36.538,0,17.938,17.938,0,0,1-.442-4,18.711,18.711,0,0,1,37.422,0Z" transform="translate(-36.458 -32.883)" fill="#5b5e8b"/>
              </g>
              <g id="Grupo_1067168" data-name="Grupo 1067168" transform="translate(0.014 3.005)">
                <path id="Trazado_805699" data-name="Trazado 805699" d="M70.831,59.54a18.69,18.69,0,0,1-33.948-6.162,17.471,17.471,0,0,1-.421-4.019A18.735,18.735,0,0,1,45,33.668a18.356,18.356,0,0,0-3.062,10.219,17.157,17.157,0,0,0,.459,3.981A18.668,18.668,0,0,0,60.612,62.6,18.355,18.355,0,0,0,70.831,59.54Z" transform="translate(-36.462 -33.668)" fill="#312e4b"/>
              </g>
              <g id="Grupo_1067169" data-name="Grupo 1067169" transform="translate(9.688 10.269)">
                <path id="Trazado_805700" data-name="Trazado 805700" d="M47.557,52.724a8.579,8.579,0,1,1,8.593-8.592A8.613,8.613,0,0,1,47.557,52.724Z" transform="translate(-38.989 -35.566)" fill="#deddff"/>
              </g>
              <g id="Grupo_1067170" data-name="Grupo 1067170" transform="translate(9.697 11.464)">
                <path id="Trazado_805701" data-name="Trazado 805701" d="M54.952,47.589c-4.486,7.514-15.96,4.392-15.96-4.325a8.429,8.429,0,0,1,4.249-7.387C39.024,43.2,47.224,52.039,54.952,47.589Z" transform="translate(-38.992 -35.878)" fill="#c6c6f7"/>
              </g>
            </g>
          </g>
        </g>
        <g id="Grupo_1067175" data-name="Grupo 1067175" transform="translate(72.374 33.882)">
          <g id="Grupo_1067174" data-name="Grupo 1067174">
            <path id="Trazado_805702" data-name="Trazado 805702" d="M34.156,28.911a2.432,2.432,0,0,1-2.435,2.435H23.845a2.435,2.435,0,0,1,0-4.87H31.72A2.432,2.432,0,0,1,34.156,28.911Z" transform="translate(-21.41 -26.476)" fill="#3e7fff"/>
          </g>
        </g>
        <g id="Grupo_1067181" data-name="Grupo 1067181" transform="translate(91.656 7.057)">
          <g id="Grupo_1067176" data-name="Grupo 1067176">
            <path id="Trazado_805703" data-name="Trazado 805703" d="M26.448,19.467h88.189v7.161H26.448Z" transform="translate(-26.448 -19.467)" fill="#ab604b"/>
          </g>
          <g id="Grupo_1067177" data-name="Grupo 1067177" transform="translate(0 14.842)">
            <path id="Trazado_805704" data-name="Trazado 805704" d="M26.448,23.345h88.189v7.161H26.448Z" transform="translate(-26.448 -23.345)" fill="#ab604b"/>
          </g>
          <g id="Grupo_1067178" data-name="Grupo 1067178" transform="translate(0)">
            <path id="Trazado_805705" data-name="Trazado 805705" d="M26.448,19.467h7.161V49.155H26.448Z" transform="translate(-26.448 -19.467)" fill="#c7754f"/>
          </g>
          <g id="Grupo_1067179" data-name="Grupo 1067179" transform="translate(40.516)">
            <path id="Trazado_805706" data-name="Trazado 805706" d="M37.034,19.467h7.161V49.155H37.034Z" transform="translate(-37.034 -19.467)" fill="#c7754f"/>
          </g>
          <g id="Grupo_1067180" data-name="Grupo 1067180" transform="translate(81.028)">
            <path id="Trazado_805707" data-name="Trazado 805707" d="M47.619,19.467H54.78V49.155H47.619Z" transform="translate(-47.619 -19.467)" fill="#c7754f"/>
          </g>
        </g>
      </g>
    </g>
  </g>
</svg>
