<svg xmlns="http://www.w3.org/2000/svg" width="296" height="144" viewBox="0 0 296 144">
  <g id="Grupo_1071352" data-name="Grupo 1071352" transform="translate(-335.855 -2086)">
    <rect id="Rectángulo_375955" data-name="Rectángulo 375955" width="296" height="144" rx="17" transform="translate(335.855 2086)" fill="#fff"/>
    <g id="contrato_1_" data-name="contrato (1)" transform="translate(434.5 2100.658)">
      <path id="Trazado_805834" data-name="Trazado 805834" d="M79.983,19.22H63.966V3.2a3.172,3.172,0,0,0-3.2-3.2H9.61A9.6,9.6,0,0,0,0,9.61V99.732a9.6,9.6,0,0,0,9.61,9.61H73.576a9.6,9.6,0,0,0,9.61-9.61V22.424A3.172,3.172,0,0,0,79.983,19.22Z" fill="#cae8f9"/>
      <path id="Trazado_805835" data-name="Trazado 805835" d="M236.169,22.424V99.732a9.6,9.6,0,0,1-9.61,9.61H194.525V0h19.22a3.172,3.172,0,0,1,3.2,3.2V19.22h16.017A3.172,3.172,0,0,1,236.169,22.424Z" transform="translate(-152.983)" fill="#b7e0f6"/>
      <path id="Trazado_805836" data-name="Trazado 805836" d="M295.152,25.627H272.728a3.2,3.2,0,0,1-3.2-3.2V0h6.982a9.616,9.616,0,0,1,6.757,2.8l9.091,9.094a9.633,9.633,0,0,1,2.8,6.751Z" transform="translate(-211.966)" fill="#cae8f9"/>
      <path id="Trazado_805837" data-name="Trazado 805837" d="M424.642,150.714a9.789,9.789,0,0,0-13.582,0l-3.267,3.332-2.306,2.242a3.1,3.1,0,0,0,0,4.485l4.549,4.549,4.549,4.549a3.1,3.1,0,0,0,4.484,0l2.306-2.242,3.267-3.332A9.552,9.552,0,0,0,424.642,150.714Z" transform="translate(-318.135 -116.374)" fill="#1689fc"/>
      <path id="Trazado_805838" data-name="Trazado 805838" d="M281.02,307.145l-6.6-6.6a.24.24,0,0,0-.384,0l-.192.128a2.988,2.988,0,0,0-.77,1.281L268.527,315.6a3,3,0,0,0,.769,3.267v.064a3.1,3.1,0,0,0,3.267.7l13.646-4.549a2.987,2.987,0,0,0,1.281-.769l.128-.128a.24.24,0,0,0,0-.384C285.5,311.63,283.2,309.323,281.02,307.145Z" transform="translate(-211.032 -236.286)" fill="#fedbab"/>
      <g id="Grupo_1067212" data-name="Grupo 1067212" transform="translate(12.846 32.034)">
        <path id="Trazado_805839" data-name="Trazado 805839" d="M108.069,156.407H63.323c-4.228,0-4.228-6.407,0-6.407h44.746C112.3,150,112.3,156.407,108.069,156.407Z" transform="translate(-60.152 -150)" fill="#17ace8"/>
        <path id="Trazado_805840" data-name="Trazado 805840" d="M95.255,216.407H63.323c-4.228,0-4.228-6.407,0-6.407H95.255C99.483,210,99.483,216.407,95.255,216.407Z" transform="translate(-60.152 -197.187)" fill="#17ace8"/>
        <path id="Trazado_805841" data-name="Trazado 805841" d="M95.255,276.407H63.323c-4.228,0-4.228-6.407,0-6.407H95.255C99.483,270,99.483,276.407,95.255,276.407Z" transform="translate(-60.152 -244.373)" fill="#17ace8"/>
        <path id="Trazado_805842" data-name="Trazado 805842" d="M95.255,336.407H63.323c-4.228,0-4.228-6.407,0-6.407H95.255C99.483,330,99.483,336.407,95.255,336.407Z" transform="translate(-60.152 -291.56)" fill="#17ace8"/>
        <path id="Trazado_805843" data-name="Trazado 805843" d="M202.068,428.407h-19.22c-4.228,0-4.228-6.407,0-6.407h19.22C206.3,422,206.3,428.407,202.068,428.407Z" transform="translate(-154.152 -363.912)" fill="#17ace8"/>
      </g>
      <path id="Trazado_805844" data-name="Trazado 805844" d="M284.549,331.8c2.179,2.178,4.485,4.485,6.6,6.663a.24.24,0,0,1,0,.384l-.128.128a2.984,2.984,0,0,1-1.281.769l-13.646,4.549a3.1,3.1,0,0,1-3.267-.7v-.064Z" transform="translate(-214.561 -260.941)" fill="#fec478"/>
      <path id="Trazado_805845" data-name="Trazado 805845" d="M444.933,174.381l-3.268,3.332-2.306,2.242a3.1,3.1,0,0,1-4.484,0l-4.549-4.549L444.933,160.8A9.552,9.552,0,0,1,444.933,174.381Z" transform="translate(-338.426 -126.459)" fill="#136ef1"/>
      <path id="Trazado_805846" data-name="Trazado 805846" d="M331.719,189.746l-2.306,2.242c-12.685,12.622-8.457,8.393-19.862,19.8,0,.128-4.549,4.677-4.613,4.741a2.983,2.983,0,0,1-1.281.769l-13.134-13.134a2.989,2.989,0,0,1,.77-1.281c.064-.064,4.613-4.613,4.741-4.613,8.328-8.329,4.228-4.164,19.8-19.861l2.242-2.306Z" transform="translate(-228.479 -138.492)" fill="#fd003a"/>
      <path id="Trazado_805847" data-name="Trazado 805847" d="M356.02,214.991l-2.306,2.242c-12.685,12.622-8.457,8.393-19.862,19.8,0,.128-4.549,4.677-4.613,4.741a2.984,2.984,0,0,1-1.281.769l-6.535-6.535L349.229,208.2Z" transform="translate(-252.781 -163.737)" fill="#e50027"/>
      <g id="Grupo_1067213" data-name="Grupo 1067213" transform="translate(41.542 32.034)">
        <path id="Trazado_805848" data-name="Trazado 805848" d="M200.932,336.407h-6.407V330h6.407C205.16,330,205.16,336.407,200.932,336.407Z" transform="translate(-194.525 -291.56)" fill="#1689fc"/>
        <path id="Trazado_805849" data-name="Trazado 805849" d="M200.932,276.407h-6.407V270h6.407C205.16,270,205.16,276.407,200.932,276.407Z" transform="translate(-194.525 -244.373)" fill="#1689fc"/>
        <path id="Trazado_805850" data-name="Trazado 805850" d="M200.932,216.407h-6.407V210h6.407C205.16,210,205.16,216.407,200.932,216.407Z" transform="translate(-194.525 -197.187)" fill="#1689fc"/>
        <path id="Trazado_805851" data-name="Trazado 805851" d="M213.745,428.407h-19.22V422h19.22C217.973,422,217.973,428.407,213.745,428.407Z" transform="translate(-194.525 -363.912)" fill="#1689fc"/>
        <path id="Trazado_805852" data-name="Trazado 805852" d="M213.745,156.407h-19.22V150h19.22C217.973,150,217.973,156.407,213.745,156.407Z" transform="translate(-194.525 -150)" fill="#1689fc"/>
      </g>
    </g>
  </g>
</svg>
