<svg id="g1326" xmlns="http://www.w3.org/2000/svg" xmlns:xlink="http://www.w3.org/1999/xlink" width="108.242" height="108.242" viewBox="0 0 108.242 108.242">
  <defs>
    <clipPath id="clip-path">
      <path id="path1332" d="M0-682.665H108.242v108.242H0Z" transform="translate(0 682.665)"/>
    </clipPath>
  </defs>
  <g id="g1328">
    <g id="g1330" clip-path="url(#clip-path)">
      <g id="g1336" transform="translate(3.177 3.143)">
        <path id="path1338" d="M-229.048-23.861-270.986,60.1a9,9,0,0,0,7.794,13.511h83.876A9,9,0,0,0-171.521,60.1l-41.938-83.958a9,9,0,0,0-15.588,0" transform="translate(272.209 28.357)" fill="#ffe107"/>
      </g>
      <g id="g1340" transform="translate(54.099 3.144)">
        <path id="path1342" d="M-41.542-23.856a8.92,8.92,0,0,0-7.828-4.5V73.613H-7.4A9,9,0,0,0,.4,60.1Z" transform="translate(49.371 28.351)" fill="#ffc125"/>
      </g>
      <g id="g1344" transform="translate(0 -0.028)">
        <path id="path1346" d="M-23.351-486.238h0Zm44.727-82.445-41.89,83.862q-.043.087-.092.17a5.773,5.773,0,0,0,0,5.835,5.773,5.773,0,0,0,5.052,2.918H68.319a5.773,5.773,0,0,0,5.052-2.918,5.773,5.773,0,0,0,0-5.835q-.049-.084-.092-.171l-41.89-83.862a5.772,5.772,0,0,0-5.005-2.838,5.772,5.772,0,0,0-5,2.838m46.943,99.128H-15.557A12.05,12.05,0,0,1-26.1-475.646a12.048,12.048,0,0,1-.045-12.089l41.9-83.878q.043-.087.092-.17a12.052,12.052,0,0,1,10.539-6.08,12.052,12.052,0,0,1,10.54,6.08q.048.084.092.17l41.9,83.877a12.048,12.048,0,0,1-.045,12.089,12.051,12.051,0,0,1-10.546,6.092" transform="translate(27.752 577.863)" fill="#475a61"/>
      </g>
      <g id="g1348" transform="translate(47.17 30.053)">
        <path id="path1350" d="M-60.9-183.873l2.4-27.141a6.95,6.95,0,0,0-6.941-7.507,6.95,6.95,0,0,0-6.91,7.559l2.625,27.122a4.428,4.428,0,0,0,4.443,4.04,4.428,4.428,0,0,0,4.38-4.073" transform="translate(72.377 218.521)" fill="#475a61"/>
      </g>
      <g id="g1352" transform="translate(48.127 80.798)">
        <path id="path1354" d="M-63.625-31.812a6,6,0,0,1-5.995,5.995,6,6,0,0,1-5.995-5.995,6,6,0,0,1,5.995-5.995,6,6,0,0,1,5.995,5.995" transform="translate(75.614 37.807)" fill="#475a61"/>
      </g>
      <g id="g1356" transform="translate(54.099 -0.028)">
        <path id="path1358" d="M-56.6-33.168q-.043-.087-.092-.17a12.052,12.052,0,0,0-10.539-6.08h-.034v6.343h.034a5.772,5.772,0,0,1,5.005,2.838l41.89,83.862c.029.058.059.115.092.171a5.773,5.773,0,0,1,0,5.835,5.773,5.773,0,0,1-5.052,2.918H-67.262v6.342h41.972A12.051,12.051,0,0,0-14.745,62.8,12.049,12.049,0,0,0-14.7,50.709Z" transform="translate(67.262 39.419)" fill="#2d2d2d"/>
      </g>
      <g id="g1360" transform="translate(54.098 30.053)">
        <path id="path1362" d="M-.05,0H-.06V38.714c.056,0,.111.007.167.007a4.428,4.428,0,0,0,4.38-4.073l2.4-27.141A6.95,6.95,0,0,0-.05,0" transform="translate(0.06 0)" fill="#2d2d2d"/>
      </g>
      <g id="g1364" transform="translate(54.099 80.798)">
        <path id="path1366" d="M-.12,0H-.143V11.989H-.12A6,6,0,0,0,5.875,5.995,6,6,0,0,0-.12,0" transform="translate(0.143)" fill="#2d2d2d"/>
      </g>
    </g>
  </g>
</svg>
