<svg id="correct" xmlns="http://www.w3.org/2000/svg" width="96.357" height="117.622" viewBox="0 0 96.357 117.622">
  <path id="Trazado_805593" data-name="Trazado 805593" d="M136.481,19.873v83.358a3.46,3.46,0,0,1-3.459,3.459H55.431a3.461,3.461,0,0,1-3.459-3.459l-.03-99.77A3.461,3.461,0,0,1,55.4,0h61.208a3.458,3.458,0,0,1,2.444,1.012l16.413,16.413a3.465,3.465,0,0,1,1.015,2.447Zm0,0" transform="translate(-40.124 0)" fill="#d9f5ff"/>
  <path id="Trazado_805594" data-name="Trazado 805594" d="M258.873,18.8a3.444,3.444,0,0,0-.844-1.377L241.615,1.012A3.458,3.458,0,0,0,239.171,0H211.058V106.69h44.526a3.46,3.46,0,0,0,3.459-3.459V19.873a3.41,3.41,0,0,0-.171-1.071Zm0,0" transform="translate(-162.687 0)" fill="#87e4f9"/>
  <path id="Trazado_805595" data-name="Trazado 805595" d="M358.608,20.177l-14.23-.043a3.855,3.855,0,0,1-3.839-3.853V1.785a3.421,3.421,0,0,1,.811.6L357.763,18.8a3.445,3.445,0,0,1,.844,1.377Zm0,0" transform="translate(-262.421 -1.375)" fill="#18c1e8"/>
  <path id="Trazado_805596" data-name="Trazado 805596" d="M24.006,307.359a23.506,23.506,0,1,0,23.506,23.506A23.533,23.533,0,0,0,24.006,307.359Zm0,0" transform="translate(-0.5 -236.749)" fill="#97d85d"/>
  <path id="Trazado_805597" data-name="Trazado 805597" d="M156.454,142.524H130.7a3.459,3.459,0,0,1,0-6.918h25.749a3.459,3.459,0,0,1,0,6.918Zm0,0" transform="translate(-98.129 -104.453)" fill="#87e4f9"/>
  <path id="Trazado_805598" data-name="Trazado 805598" d="M221.012,135.605h-9.953v6.918h9.953a3.459,3.459,0,0,0,0-6.918Zm0,0" transform="translate(-162.687 -104.452)" fill="#18c1e8"/>
  <path id="Trazado_805599" data-name="Trazado 805599" d="M172.364,201.746H130.7a3.459,3.459,0,0,1,0-6.918h41.659a3.459,3.459,0,0,1,0,6.918Zm0,0" transform="translate(-98.129 -150.07)" fill="#87e4f9"/>
  <path id="Trazado_805600" data-name="Trazado 805600" d="M236.923,194.828H211.059v6.918h25.864a3.459,3.459,0,0,0,0-6.918Zm0,0" transform="translate(-162.687 -150.07)" fill="#18c1e8"/>
  <path id="Trazado_805601" data-name="Trazado 805601" d="M172.364,260.968H130.7a3.459,3.459,0,1,1,0-6.917h41.659a3.459,3.459,0,1,1,0,6.917Zm0,0" transform="translate(-98.129 -195.687)" fill="#87e4f9"/>
  <path id="Trazado_805602" data-name="Trazado 805602" d="M236.923,254.051H211.059v6.917h25.864a3.459,3.459,0,0,0,0-6.917Zm0,0" transform="translate(-162.687 -195.688)" fill="#18c1e8"/>
  <path id="Trazado_805603" data-name="Trazado 805603" d="M49.638,391.532a3.452,3.452,0,0,1-2.615-1.193l-7.133-8.226a3.459,3.459,0,1,1,5.226-4.532l4.937,5.693L61.809,373.7a3.459,3.459,0,0,1,4.367,5.365L51.82,390.756a3.443,3.443,0,0,1-2.182.776Zm0,0" transform="translate(-30.189 -287.254)" fill="#71b22d"/>
</svg>
