<svg xmlns="http://www.w3.org/2000/svg" width="162.701" height="131.058" viewBox="0 0 162.701 131.058">
  <g id="cow_2_" data-name="cow (2)" transform="translate(0 -49.788)">
    <path id="Trazado_807010" data-name="Trazado 807010" d="M115.937,367.24V338.883h-3.042a9.369,9.369,0,0,1-9.358-9.359h-.318V367.24Z" transform="translate(-70.419 -190.843)" fill="#ea9b58"/>
    <path id="Trazado_807011" data-name="Trazado 807011" d="M109.67,367.24V338.31a9.374,9.374,0,0,1-6.133-8.786h-.318V367.24Z" transform="translate(-70.419 -190.843)" fill="#c57a44"/>
    <path id="Trazado_807012" data-name="Trazado 807012" d="M353.888,358.974h12.718v28.358H353.888Z" transform="translate(-241.431 -210.934)" fill="#d88a55"/>
    <path id="Trazado_807013" data-name="Trazado 807013" d="M353.888,358.974h6.451v28.358h-6.451Z" transform="translate(-241.431 -210.934)" fill="#c57a44"/>
    <path id="Trazado_807014" data-name="Trazado 807014" d="M353.888,422.99h12.718V431H353.888Z" transform="translate(-241.431 -254.607)" fill="#32569d"/>
    <path id="Trazado_807015" data-name="Trazado 807015" d="M353.888,422.99h6.451V431h-6.451Z" transform="translate(-241.431 -254.607)" fill="#303a78"/>
    <path id="Trazado_807016" data-name="Trazado 807016" d="M112.895,191.08H125.43a3.225,3.225,0,0,1,3.225,3.225V219.12h12.718V194.306a3.225,3.225,0,0,1,3.225-3.225h60.488a3.225,3.225,0,0,1,3.225,3.225V219.12H221.03V134.989a22.578,22.578,0,0,0-22.578-22.578H149.626a12.044,12.044,0,0,1-13.06,3.831l-.416-.135v16.524a24.736,24.736,0,0,1-3.718,13.037l-.074.119.038.134a11.383,11.383,0,0,1,.425,3.073v1.254a11.476,11.476,0,0,1-11.463,11.462h-18.14V181.4a9.676,9.676,0,0,0,9.676,9.676Z" transform="translate(-70.419 -42.723)" fill="#ea9b58"/>
    <path id="Trazado_807017" data-name="Trazado 807017" d="M112.9,287.245V267.552h-9.677v19.693a9.676,9.676,0,0,0,9.676,9.676h9.677A9.676,9.676,0,0,1,112.9,287.245Z" transform="translate(-70.418 -148.564)" fill="#d88a55"/>
    <path id="Trazado_807018" data-name="Trazado 807018" d="M77.353,62.367v-8.43A4.162,4.162,0,0,0,73.2,49.788h-.442a4.162,4.162,0,0,0-4.149,4.149v8.43Z" transform="translate(-46.809)" fill="#edcab2"/>
    <path id="Trazado_807019" data-name="Trazado 807019" d="M169.689,62.367v-8.43a4.162,4.162,0,0,0-4.149-4.149H165.1a4.162,4.162,0,0,0-4.149,4.149v8.43Z" transform="translate(-109.803)" fill="#edcab2"/>
    <path id="Trazado_807020" data-name="Trazado 807020" d="M219.568,88.374H206.85V100.04a12.389,12.389,0,0,0,15.759-7.361A3.217,3.217,0,0,0,219.568,88.374Z" transform="translate(-141.118 -26.324)" fill="#f6a96c"/>
    <path id="Trazado_807021" data-name="Trazado 807021" d="M15.957,88.374H3.24A3.217,3.217,0,0,0,.2,92.679a12.388,12.388,0,0,0,15.758,7.361Z" transform="translate(0 -26.324)" fill="#f6a96c"/>
    <path id="Trazado_807022" data-name="Trazado 807022" d="M6.65,92.679a3.217,3.217,0,0,1,3.041-4.3H3.24A3.217,3.217,0,0,0,.2,92.679a12.386,12.386,0,0,0,14.835,7.649A12.407,12.407,0,0,1,6.65,92.679Z" transform="translate(0 -26.324)" fill="#ea9b58"/>
    <path id="Trazado_807023" data-name="Trazado 807023" d="M49.216,88.374v27.858a25,25,0,0,0,3.995,13.561,11.482,11.482,0,0,1,11.115-8.66H84.517a11.482,11.482,0,0,1,11.115,8.66,25,25,0,0,0,3.994-13.561V88.374Z" transform="translate(-33.576 -26.324)" fill="#d88a55"/>
    <path id="Trazado_807024" data-name="Trazado 807024" d="M59.606,122.154a25.012,25.012,0,0,1-.713-5.922V88.374H49.216v27.858a25,25,0,0,0,3.994,13.561A11.509,11.509,0,0,1,59.606,122.154Z" transform="translate(-33.576 -26.324)" fill="#c57a44"/>
    <path id="Trazado_807025" data-name="Trazado 807025" d="M89.747,146.839a2.383,2.383,0,0,1-2.383-2.383v-4.864a2.383,2.383,0,1,1,4.767,0v4.864A2.383,2.383,0,0,1,89.747,146.839Z" transform="translate(-59.602 -59.641)" fill="#303a78"/>
    <path id="Trazado_807026" data-name="Trazado 807026" d="M157.083,146.839a2.383,2.383,0,0,1-2.383-2.383v-4.864a2.383,2.383,0,1,1,4.767,0v4.864A2.383,2.383,0,0,1,157.083,146.839Z" transform="translate(-105.54 -59.641)" fill="#303a78"/>
    <path id="Trazado_807027" data-name="Trazado 807027" d="M91.663,215.278H71.471a11.815,11.815,0,0,1-11.78-11.78v-1.254a11.815,11.815,0,0,1,11.78-11.78H91.663a11.815,11.815,0,0,1,11.78,11.78V203.5A11.815,11.815,0,0,1,91.663,215.278Z" transform="translate(-40.723 -95.972)" fill="#f5e2d4"/>
    <path id="Trazado_807028" data-name="Trazado 807028" d="M66.788,203.32v-.9a11.993,11.993,0,0,1,11.958-11.958h-7.1a11.993,11.993,0,0,0-11.958,11.958v.9a11.993,11.993,0,0,0,11.958,11.958h7.1A11.993,11.993,0,0,1,66.788,203.32Z" transform="translate(-40.723 -95.972)" fill="#edcab2"/>
    <path id="Trazado_807029" data-name="Trazado 807029" d="M252.233,433.184v-4.617a2.383,2.383,0,0,0-4.767,0v4.617Z" transform="translate(-168.827 -256.786)" fill="#09a76d"/>
    <path id="Trazado_807030" data-name="Trazado 807030" d="M300.953,433.184v-4.617a2.383,2.383,0,0,0-4.767,0v4.617Z" transform="translate(-202.065 -256.786)" fill="#09a76d"/>
    <path id="Trazado_807031" data-name="Trazado 807031" d="M54.307,433.184v-4.617a2.383,2.383,0,0,0-4.767,0v4.617Z" transform="translate(-33.797 -256.786)" fill="#09a76d"/>
    <g id="Grupo_1067437" data-name="Grupo 1067437" transform="translate(28.14 103.356)">
      <path id="Trazado_807032" data-name="Trazado 807032" d="M94.806,223.127H90.935a2.383,2.383,0,1,1,0-4.767h3.871a2.383,2.383,0,1,1,0,4.767Z" transform="translate(-88.552 -218.36)" fill="#32569d"/>
      <path id="Trazado_807033" data-name="Trazado 807033" d="M147.587,223.127h-3.871a2.383,2.383,0,1,1,0-4.767h3.871a2.383,2.383,0,1,1,0,4.767Z" transform="translate(-124.56 -218.36)" fill="#32569d"/>
      <path id="Trazado_807034" data-name="Trazado 807034" d="M103.218,422.99h12.718V431H103.218Z" transform="translate(-98.558 -357.964)" fill="#32569d"/>
    </g>
    <path id="Trazado_807035" data-name="Trazado 807035" d="M103.218,422.99h6.451V431h-6.451Z" transform="translate(-70.418 -254.607)" fill="#303a78"/>
    <path id="Trazado_807036" data-name="Trazado 807036" d="M433.933,422.99h12.718V431H433.933Z" transform="translate(-296.04 -254.607)" fill="#32569d"/>
    <path id="Trazado_807037" data-name="Trazado 807037" d="M433.933,422.99h6.451V431h-6.451Z" transform="translate(-296.04 -254.607)" fill="#303a78"/>
    <path id="Trazado_807038" data-name="Trazado 807038" d="M183.264,422.99h12.718V431H183.264Z" transform="translate(-125.027 -254.607)" fill="#32569d"/>
    <path id="Trazado_807039" data-name="Trazado 807039" d="M183.264,422.99h6.451V431h-6.451Z" transform="translate(-125.027 -254.607)" fill="#303a78"/>
    <path id="Trazado_807040" data-name="Trazado 807040" d="M182.152,432.866H128.463v-4.3a2.383,2.383,0,0,0-4.767,0v4.3H112.981v-4.3a2.383,2.383,0,0,0-4.767,0v4.3h-59.1v-4.3a2.383,2.383,0,0,0-4.767,0v4.3H34.388a2.383,2.383,0,0,0,0,4.767H182.152a2.383,2.383,0,0,0,0-4.767Z" transform="translate(-21.835 -256.786)" fill="#8bc727"/>
  </g>
</svg>
