<svg xmlns="http://www.w3.org/2000/svg" width="190" height="190" viewBox="0 0 190 190">
  <g id="Grupo_1071356" data-name="Grupo 1071356" transform="translate(-1125 -4818)">
    <rect id="Rectángulo_375957" data-name="Rectángulo 375957" width="190" height="190" rx="18" transform="translate(1125 4818)" fill="#fffad0"/>
    <g id="cow_1_1" data-name="cow (1) 1" transform="translate(1140.214 4833.213)">
      <path id="Trazado_806965" data-name="Trazado 806965" d="M184.723,126.217a20.633,20.633,0,0,0-14.119-5.583H126.986a20.641,20.641,0,0,0-20.549,22.639l1.256,12.931a144.431,144.431,0,0,0,9.091,38.274l5.578,14.4a13.527,13.527,0,0,0,3.972,5.515l.821-3.735a7.978,7.978,0,0,1,7.792-6.265h27.7a7.978,7.978,0,0,1,7.792,6.265l.821,3.735a13.528,13.528,0,0,0,3.972-5.515l5.578-14.4A144.43,144.43,0,0,0,189.9,156.2l1.256-12.931A20.584,20.584,0,0,0,184.723,126.217Z" transform="translate(-69.009 -79.248)" fill="#fed8b2"/>
      <path id="Trazado_806966" data-name="Trazado 806966" d="M211.889,440.328h-31.42a7.978,7.978,0,0,1-7.792-9.69l1.861-8.469a7.978,7.978,0,0,1,7.792-6.265h27.7a7.978,7.978,0,0,1,7.792,6.265l1.861,8.469A7.978,7.978,0,0,1,211.889,440.328Z" transform="translate(-116.393 -290.756)" fill="#ed6637"/>
      <path id="Trazado_806967" data-name="Trazado 806967" d="M404.413,153.595a15.86,15.86,0,0,0-4.168,2.6,20.537,20.537,0,0,1,1.438,9.823l-1.256,12.931c-.007.072-.016.143-.023.215,4.561,1.441,10,2.195,14.775.2,10.667-4.457,13.932-20.954,13.932-20.954S415.08,149.138,404.413,153.595Z" transform="translate(-279.54 -101.991)" fill="#fed8b2"/>
      <path id="Trazado_806968" data-name="Trazado 806968" d="M38.685,178.946l-1.256-12.931a20.685,20.685,0,0,1,1.439-9.821,15.858,15.858,0,0,0-4.168-2.6c-10.667-4.457-24.7,4.814-24.7,4.814s3.264,16.5,13.932,20.954c4.771,1.993,10.215,1.24,14.775-.2C38.7,179.089,38.692,179.017,38.685,178.946Z" transform="translate(-0.001 -101.99)" fill="#fed8b2"/>
      <path id="Trazado_806969" data-name="Trazado 806969" d="M37.427,166.015a20.685,20.685,0,0,1,1.439-9.821,15.858,15.858,0,0,0-4.168-2.6c-10.667-4.457-24.7,4.814-24.7,4.814a44.2,44.2,0,0,0,3.7,10.32c4.887-2.435,13.723-5.778,21-2.739a15.224,15.224,0,0,1,2.883,1.608Z" transform="translate(0 -101.99)" fill="#ed6637"/>
      <path id="Trazado_806970" data-name="Trazado 806970" d="M404.413,153.595a15.86,15.86,0,0,0-4.168,2.6,20.537,20.537,0,0,1,1.438,9.823l-.154,1.582a15.238,15.238,0,0,1,2.884-1.608c7.274-3.039,16.11.3,21,2.739a44.2,44.2,0,0,0,3.7-10.32S415.08,149.138,404.413,153.595Z" transform="translate(-279.54 -101.991)" fill="#ed6637"/>
      <path id="Trazado_806971" data-name="Trazado 806971" d="M179.773,76.208a310.116,310.116,0,0,0-74.759,0h0a8.653,8.653,0,0,0,.768,17.239,20.746,20.746,0,0,1,3.126-2.64,20.5,20.5,0,0,1,11.677-3.617H164.2a20.633,20.633,0,0,1,14.119,5.583c.233.219.46.444.683.673a8.653,8.653,0,0,0,.769-17.239Z" transform="translate(-62.608 -45.806)" fill="#f7b141"/>
      <path id="Trazado_806972" data-name="Trazado 806972" d="M65.66,47.642a8.653,8.653,0,0,1-7.124-13.136c-3.425-1-6.049-2.189-6.823-3.587C48.555,25.213,46.281,10,46.281,10s-9.2,20.832-2.359,28.851c3.307,3.876,12.232,7.75,20.163,10.612A20.869,20.869,0,0,1,65.66,47.642Z" transform="translate(-22.486 0)" fill="#edeeef"/>
      <path id="Trazado_806973" data-name="Trazado 806973" d="M404.435,10S402.161,25.213,399,30.918c-.774,1.4-3.4,2.59-6.823,3.587a8.653,8.653,0,0,1-7.126,13.137,20.8,20.8,0,0,1,1.577,1.822c7.931-2.862,16.855-6.736,20.162-10.612C413.637,30.833,404.435,10,404.435,10Z" transform="translate(-268.658 0)" fill="#edeeef"/>
      <path id="Trazado_806974" data-name="Trazado 806974" d="M184.817,126.217a21.152,21.152,0,0,0-4.37-.6s-3.368,5.949-11.631,11.341l-.582-7.02a2,2,0,0,0-3.092-1.513c-6.7,4.381-22.259,11.773-29.315,11.836l3.488-6.16a2,2,0,0,0-2.589-2.805c-7.323,3.45-19.225,7.736-30.255,8.744a20.646,20.646,0,0,1,20.609-19.408H170.7A20.536,20.536,0,0,1,184.817,126.217Z" transform="translate(-69.104 -79.248)" fill="#ed6637"/>
      <path id="Trazado_806975" data-name="Trazado 806975" d="M216.878,143.729q-1.255-2.709-2.713-5.217a19.379,19.379,0,0,0-2.937-.306s-3.368,5.949-11.631,11.341l-.582-7.02a2,2,0,0,0-3.092-1.513c-6.7,4.381-22.259,11.773-29.315,11.836l3.488-6.16a2,2,0,0,0-2.589-2.805,108.113,108.113,0,0,1-18.065,6.521c9.539,11.137,15.6,27.757,15.6,46.326a81.272,81.272,0,0,1-2.734,21.076,7.95,7.95,0,0,1,3.518-.824h27.7a7.949,7.949,0,0,1,3.518.824,81.284,81.284,0,0,1-2.734-21.076C194.3,173.962,203.409,154.12,216.878,143.729Z" transform="translate(-99.886 -91.836)" fill="#f7b141"/>
      <path id="Trazado_806976" data-name="Trazado 806976" d="M349.575,266.435a2.867,2.867,0,0,1-.532-.05,2.837,2.837,0,0,1-2.258-3.316l1.347-7.095a2.837,2.837,0,0,1,5.574,1.058l-1.347,7.094A2.838,2.838,0,0,1,349.575,266.435Z" transform="translate(-241.209 -174.542)"/>
      <path id="Trazado_806977" data-name="Trazado 806977" d="M144.7,266.435a2.837,2.837,0,0,1-2.784-2.308l-1.347-7.094a2.837,2.837,0,1,1,5.574-1.058l1.347,7.094a2.839,2.839,0,0,1-2.79,3.366Z" transform="translate(-93.492 -174.542)"/>
    </g>
  </g>
</svg>
