<svg xmlns="http://www.w3.org/2000/svg" xmlns:xlink="http://www.w3.org/1999/xlink" width="85.862" height="85.862" viewBox="0 0 85.862 85.862">
  <defs>
    <clipPath id="clip-path">
      <path id="path6903" d="M0-682.665H85.862V-596.8H0Z" transform="translate(0 682.665)"/>
    </clipPath>
  </defs>
  <g id="g6897" transform="translate(0 682.665)">
    <g id="g6899" transform="translate(0 -682.665)">
      <g id="g6901" clip-path="url(#clip-path)">
        <g id="g6907" transform="translate(6.805 19.249)">
          <path id="path6909" d="M-198.349-17.349l-1.677-1.2a6.914,6.914,0,0,0-8.361.232l-6.149,5.381a1.721,1.721,0,0,1-1.153.427c-4.047-.048-8.824.312-11.2,2.352V14.26h25.207V-6.707a48.406,48.406,0,0,0,4.159-4.417,4.57,4.57,0,0,0-.83-6.224" transform="translate(226.886 19.844)" fill="#ffe7c7"/>
        </g>
        <g id="g6911" transform="translate(21.327 19.248)">
          <path id="path6913" d="M-97.415-17.357l-1.677-1.2a6.912,6.912,0,0,0-8.36.231l-3.122,2.733c.007.088.016.178.026.268a9.3,9.3,0,0,0,1.38,3.907,1.6,1.6,0,0,1,.006,1.7l-.018.029c-1.935,3.089-2.626,5.945-2.058,8.486.022.1.047.2.075.292h0a5.8,5.8,0,0,0,2.155,3.134,1.544,1.544,0,0,1,.643,1.239V14.251h7.621V-6.717a48.377,48.377,0,0,0,4.158-4.415,4.569,4.569,0,0,0-.829-6.225" transform="translate(111.43 19.854)" fill="#ffd693"/>
        </g>
        <g id="g6915" transform="translate(4.526 1.148)">
          <path id="path6917" d="M-31.684-367.459h-4.558V-418.6a1.728,1.728,0,0,1,1.728-1.728h1.1a1.728,1.728,0,0,1,1.728,1.728Z" transform="translate(36.243 420.326)" fill="#deecf0"/>
        </g>
        <path id="path6919" d="M35.984-587.8h4.558v-6.736H35.984Z" transform="translate(-31.458 605.619)" fill="#a8d3d9"/>
        <g id="g6921" transform="translate(28.609 1.149)">
          <path id="path6923" d="M-31.69-12.008V39.129h-4.559V-12.008a1.728,1.728,0,0,1,1.728-1.728h1.1a1.728,1.728,0,0,1,1.728,1.728" transform="translate(36.249 13.736)" fill="#deecf0"/>
        </g>
        <g id="g6925" transform="translate(28.609 31.756)">
          <path id="path6927" d="M0,0V10.536A5.81,5.81,0,0,0,3.17,8.511L4.559,6.778V0Z" fill="#a8d3d9"/>
        </g>
        <path id="path6929" d="M227.469-587.8h4.559v-6.736h-4.559Z" transform="translate(-198.859 605.619)" fill="#a8d3d9"/>
        <g id="g6931" transform="translate(11.959 26.422)">
          <path id="path6933" d="M-47.175,0l-4.637,4.056a1.291,1.291,0,0,1-.853.321,1.3,1.3,0,0,1-.976-.442,1.3,1.3,0,0,1,.123-1.829L-51.39.244c1.168-.078,2.348-.1,3.471-.083A1.7,1.7,0,0,0-47.175,0" transform="translate(53.962)" fill="#ffd693"/>
        </g>
        <g id="g6935" transform="translate(14.539 35.107)">
          <path id="path6937" d="M-9-23.984a1.289,1.289,0,0,1-.67-.187,1.3,1.3,0,0,1-.438-1.779l.52-.859a1.3,1.3,0,0,1,1.78-.437,1.3,1.3,0,0,1,.437,1.779l-.52.859A1.3,1.3,0,0,1-9-23.984" transform="translate(10.294 27.435)" fill="#fdc266"/>
        </g>
        <g id="g6939" transform="translate(16.741 39.816)">
          <path id="path6941" d="M-9-23.985a1.288,1.288,0,0,1-.67-.187,1.3,1.3,0,0,1-.438-1.779l.52-.859a1.3,1.3,0,0,1,1.779-.437,1.3,1.3,0,0,1,.438,1.779l-.52.859A1.3,1.3,0,0,1-9-23.985" transform="translate(10.295 27.436)" fill="#ffd693"/>
        </g>
        <g id="g6943" transform="translate(18.745 35.307)">
          <path id="path6945" d="M-12.631-23.982a1.3,1.3,0,0,1-1.109-.625l-.52-.859a1.3,1.3,0,0,1,.437-1.779,1.3,1.3,0,0,1,1.779.437l.52.859a1.3,1.3,0,0,1-.437,1.78,1.289,1.289,0,0,1-.67.187" transform="translate(14.448 27.432)" fill="#ffd693"/>
        </g>
        <g id="g6947" transform="translate(21.727 39.976)">
          <path id="path6949" d="M-12.631-23.982a1.3,1.3,0,0,1-1.11-.625l-.52-.859a1.3,1.3,0,0,1,.437-1.779,1.3,1.3,0,0,1,1.779.437l.52.859a1.3,1.3,0,0,1-.437,1.779,1.29,1.29,0,0,1-.67.188" transform="translate(14.449 27.432)" fill="#fdc266"/>
        </g>
        <g id="g6951" transform="translate(11.552 39.976)">
          <path id="path6953" d="M-12.631-23.982a1.3,1.3,0,0,1-1.11-.625l-.52-.859a1.3,1.3,0,0,1,.437-1.779,1.3,1.3,0,0,1,1.78.437l.52.859a1.3,1.3,0,0,1-.437,1.779,1.29,1.29,0,0,1-.67.188" transform="translate(14.449 27.432)" fill="#ffd693"/>
        </g>
        <g id="g6955" transform="translate(48.828 19.249)">
          <path id="path6957" d="M-11.766-17.349l1.677-1.2a6.914,6.914,0,0,1,8.361.232l6.149,5.381a1.721,1.721,0,0,0,1.153.427c4.047-.048,8.824.312,11.2,2.352V14.26H-8.437V-6.707A48.409,48.409,0,0,1-12.6-11.124a4.57,4.57,0,0,1,.83-6.224" transform="translate(13.459 19.844)" fill="#bc5d4c"/>
        </g>
        <g id="g6959" transform="translate(73.618 26.903)">
          <path id="path6961" d="M0,0V26.451H5.44V2.032A10.9,10.9,0,0,0,0,0" fill="#a54f3e"/>
        </g>
        <g id="g6963" transform="translate(48.828 19.248)">
          <path id="path6965" d="M-11.767-17.357l1.678-1.2a6.912,6.912,0,0,1,8.36.231l3.122,2.733c-.007.088-.016.178-.026.268A9.3,9.3,0,0,1-.014-11.42a1.6,1.6,0,0,0-.006,1.7L0-9.7C1.933-6.606,2.624-3.75,2.056-1.209c-.022.1-.047.2-.075.292h0A5.8,5.8,0,0,1-.173,2.218,1.544,1.544,0,0,0-.817,3.457V14.251H-8.437V-6.717A48.376,48.376,0,0,1-12.6-11.132a4.569,4.569,0,0,1,.829-6.225" transform="translate(13.46 19.854)" fill="#a54f3e"/>
        </g>
        <g id="g6967" transform="translate(76.778 1.148)">
          <path id="path6969" d="M0-367.459H4.559V-418.6a1.728,1.728,0,0,0-1.728-1.728h-1.1A1.728,1.728,0,0,0,0-418.6Z" transform="translate(0 420.326)" fill="#deecf0"/>
        </g>
        <path id="path6971" d="M615-587.8h-4.558v-6.736H615Z" transform="translate(-533.66 605.619)" fill="#a8d3d9"/>
        <g id="g6973" transform="translate(52.694 1.149)">
          <path id="path6975" d="M0-12.008V39.129H4.559V-12.008a1.728,1.728,0,0,0-1.728-1.728h-1.1A1.728,1.728,0,0,0,0-12.008" transform="translate(0 13.736)" fill="#deecf0"/>
        </g>
        <g id="g6977" transform="translate(52.694 31.756)">
          <path id="path6979" d="M-31.69,0V10.536a5.809,5.809,0,0,1-3.17-2.025l-1.389-1.733V0Z" transform="translate(36.249)" fill="#a8d3d9"/>
        </g>
        <path id="path6981" d="M423.511-587.8h-4.559v-6.736h4.559Z" transform="translate(-366.258 605.619)" fill="#a8d3d9"/>
        <g id="g6983" transform="translate(67.116 26.422)">
          <path id="path6985" d="M-44.947-27.355a1.3,1.3,0,0,1-.976.442,1.292,1.292,0,0,1-.853-.321l-4.637-4.056a1.693,1.693,0,0,0,.745.161c1.123-.014,2.3.005,3.471.083l2.128,1.862a1.3,1.3,0,0,1,.123,1.829" transform="translate(51.413 31.291)" fill="#a54f3e"/>
        </g>
        <g id="g6987" transform="translate(68.211 35.107)">
          <path id="path6989" d="M-12.631-23.983a1.3,1.3,0,0,1-1.11-.625l-.52-.859a1.3,1.3,0,0,1,.437-1.779,1.3,1.3,0,0,1,1.78.437l.52.859a1.3,1.3,0,0,1-.437,1.779,1.289,1.289,0,0,1-.67.188" transform="translate(14.449 27.433)" fill="#9a4739"/>
        </g>
        <g id="g6991" transform="translate(66.009 39.816)">
          <path id="path6993" d="M-12.631-23.985a1.3,1.3,0,0,1-1.11-.625l-.52-.859a1.3,1.3,0,0,1,.437-1.779,1.3,1.3,0,0,1,1.779.437l.52.859a1.3,1.3,0,0,1-.437,1.779,1.289,1.289,0,0,1-.67.188" transform="translate(14.448 27.436)" fill="#a54f3e"/>
        </g>
        <g id="g6995" transform="translate(64.006 35.307)">
          <path id="path6997" d="M-9-23.982a1.289,1.289,0,0,1-.67-.187,1.3,1.3,0,0,1-.437-1.78l.52-.859a1.3,1.3,0,0,1,1.779-.437,1.3,1.3,0,0,1,.437,1.779l-.52.859A1.3,1.3,0,0,1-9-23.982" transform="translate(10.295 27.433)" fill="#a54f3e"/>
        </g>
        <g id="g6999" transform="translate(61.023 39.976)">
          <path id="path7001" d="M-9-23.983a1.29,1.29,0,0,1-.67-.188,1.3,1.3,0,0,1-.437-1.779l.52-.859a1.3,1.3,0,0,1,1.779-.437,1.3,1.3,0,0,1,.437,1.779l-.52.859A1.3,1.3,0,0,1-9-23.983" transform="translate(10.294 27.433)" fill="#9a4739"/>
        </g>
        <g id="g7003" transform="translate(71.198 39.976)">
          <path id="path7005" d="M-9-23.983a1.29,1.29,0,0,1-.67-.188,1.3,1.3,0,0,1-.437-1.779l.52-.859a1.3,1.3,0,0,1,1.78-.437,1.3,1.3,0,0,1,.437,1.779l-.52.859A1.3,1.3,0,0,1-9-23.983" transform="translate(10.294 27.433)" fill="#9a4739"/>
        </g>
        <g id="g7007" transform="translate(1.804 46.932)">
          <path id="path7009" d="M0-54.872s4.261-9.063,18.463-7.768c27.758,2.531,46.984-1.559,54.5.606s9.295,7.162,9.295,7.162Z" transform="translate(0 62.767)" fill="#fdc266"/>
        </g>
        <g id="g7011" transform="translate(63.139 47.007)">
          <path id="path7013" d="M-145.408-54.347h-8.242s-1.784-5-9.3-7.161a16.973,16.973,0,0,0-3.383-.545c5.151-.2,9.067-.192,11.624.545,7.511,2.164,9.3,7.161,9.3,7.161" transform="translate(166.328 62.166)" fill="#fea714"/>
        </g>
        <path id="path7015" d="M85.862-179.249H0v-16.442H85.862Z" transform="translate(0 256.941)" fill="#0694fc"/>
        <path id="path7017" d="M85.862-188.976H0v-6.716H85.862Z" transform="translate(0 256.941)" fill="#0182fc"/>
        <g id="g7019" transform="translate(0 54.015)">
          <path id="path7021" d="M-596.8-63.675h-85.862v-7.433a1.728,1.728,0,0,1,1.728-1.728h82.407a1.728,1.728,0,0,1,1.728,1.728Z" transform="translate(682.665 72.836)" fill="#8bc9fe"/>
        </g>
        <g id="g7023" transform="translate(9.653 58.74)">
          <path id="path7025" d="M-106.246-116.934c-4.516,4.517-9.423,4.063-12.73.757s-3.759-8.213.757-12.73,12.99-6.234,15.6-3.626.891,11.082-3.626,15.6" transform="translate(121.532 133.757)" fill="#ffd693"/>
        </g>
        <g id="g7027" transform="translate(13.145 58.74)">
          <path id="path7029" d="M-81.967-116.933c-4.106,4.106-8.536,4.1-11.793,1.584,2.277.038,4.727-.967,7.071-3.312,4.255-4.255,6.026-12.024,4.034-15.091a5.885,5.885,0,0,1,4.314,1.22c2.609,2.609.891,11.083-3.626,15.6" transform="translate(93.76 133.756)" fill="#fdc266"/>
        </g>
        <g id="g7031" transform="translate(35.706 61.944)">
          <path id="path7033" d="M-94.482,0c6.387,0,9.536,3.791,9.536,8.466s-3.149,8.466-9.536,8.466-13.593-4.777-13.593-8.466S-100.87,0-94.482,0" transform="translate(108.076)" fill="#fdc266"/>
        </g>
        <g id="g7035" transform="translate(45.605 61.944)">
          <path id="path7037" d="M-91.959-58.84c0,4.677-3.149,8.467-9.536,8.467a15.263,15.263,0,0,1-3.694-.482,7.9,7.9,0,0,0,5.917-7.985,7.9,7.9,0,0,0-5.915-7.983,15.23,15.23,0,0,1,3.692-.482c6.387,0,9.536,3.79,9.536,8.465" transform="translate(105.189 67.305)" fill="#feb541"/>
        </g>
        <g id="g7039" transform="translate(54.521 58.74)">
          <path id="path7041" d="M-116.934-33.715c4.516,4.516,4.063,9.423.757,12.73s-8.213,3.759-12.73-.757-6.234-12.99-3.625-15.6,11.082-.891,15.6,3.626" transform="translate(133.757 38.566)" fill="#ffd693"/>
        </g>
        <g id="g7043" transform="translate(55.339 58.74)">
          <path id="path7045" d="M-116.515-122.19a8.182,8.182,0,0,1-5.66,2.555,9.988,9.988,0,0,0,.936-.827c3.307-3.3,3.761-8.213-.757-12.729a17.934,17.934,0,0,0-11.283-4.846,3.034,3.034,0,0,1,.408-.508c2.609-2.607,11.081-.89,15.6,3.626s4.062,9.424.757,12.729" transform="translate(133.278 139.769)" fill="#fdc266"/>
        </g>
        <g id="g7047" transform="translate(0 73.625)">
          <path id="path7049" d="M-584.794-77.076H-667.2a1.728,1.728,0,0,1-1.728-1.728v-9.361h85.862V-78.8a1.728,1.728,0,0,1-1.728,1.728" transform="translate(668.929 88.165)" fill="#7ca2b1"/>
        </g>
        <path id="path7051" d="M85.862-52.071H0v-2.591H85.862Z" transform="translate(0 133.65)" fill="#688d98"/>
        <g id="g7053" transform="translate(0 5.27)">
          <path id="path7055" d="M-584.794-57.126H-667.2a1.728,1.728,0,0,1-1.728-1.728v-4.764a1.728,1.728,0,0,1,1.728-1.728h82.407a1.728,1.728,0,0,1,1.728,1.728v4.764a1.728,1.728,0,0,1-1.728,1.728" transform="translate(668.929 65.345)" fill="#7ca2b1"/>
        </g>
        <g id="g7057" transform="translate(46.075 10.348)">
          <path id="path7059" d="M-127.5-39.267a3.945,3.945,0,0,0-3.93-2.137.877.877,0,0,1-.869-.583,4.352,4.352,0,0,0-2.494-2.661c-2.029-.781-4.372.2-5.767,2.241a.867.867,0,0,1-1.007.335,3.139,3.139,0,0,0-2.355.05c-1.773.787-2.439,3.161-1.489,5.3s3.158,3.238,4.931,2.451a2.949,2.949,0,0,0,.482-.271,3.993,3.993,0,0,0,1.074.621,4.36,4.36,0,0,0,3.667-.32,4.806,4.806,0,0,0,5.022.475c2.388-1.061,3.612-3.524,2.734-5.5" transform="translate(145.846 44.916)" fill="#fe5426"/>
        </g>
        <g id="g7061" transform="translate(51.934 10.348)">
          <path id="path7063" d="M-67.774-77.5a5.744,5.744,0,0,1-.808.29,3.884,3.884,0,0,0,.848-4.136,3.879,3.879,0,0,0-3.629-2.142,1.366,1.366,0,0,1-1.263-.814,4.3,4.3,0,0,0-2.4-2.425,4.14,4.14,0,0,0-2.5-.138,4.785,4.785,0,0,1,5.191-1.517,4.342,4.342,0,0,1,2.494,2.661.878.878,0,0,0,.869.584A3.946,3.946,0,0,1-65.04-83c.878,1.978-.346,4.44-2.735,5.5" transform="translate(77.525 88.65)" fill="#ef4523"/>
        </g>
        <g id="g7065" transform="translate(47.603 18.434)">
          <path id="path7067" d="M-82.7-10.149c.788,1.467,1.772,4.619-1.756,7.825a.867.867,0,0,0-.086,1.2C-83.3.358-80.5,4.1-81.251,7.173a2.384,2.384,0,0,1-4.174.889L-93.613-2.15a4.383,4.383,0,0,1,.843-6.334l2.56-1.835a6.894,6.894,0,0,1,6.2-.935,2.317,2.317,0,0,1,1.306,1.1" transform="translate(94.601 11.61)" fill="#fe6a30"/>
        </g>
        <g id="g7069" transform="translate(54.29 18.434)">
          <path id="path7071" d="M-46.435-130.006a2.387,2.387,0,0,1-4.043,1.137,2.357,2.357,0,0,0,.6-1.137c.6-2.674-1.436-5.834-2.784-7.566a1.836,1.836,0,0,1,.107-2.389c2.877-3.024,1.948-5.918,1.2-7.3a2.3,2.3,0,0,0-.546-.672,2.337,2.337,0,0,0-.755-.423c-.156-.052-.311-.1-.468-.137a6.884,6.884,0,0,1,3.9.137,2.337,2.337,0,0,1,.755.423,2.3,2.3,0,0,1,.548.672c.788,1.463,1.787,4.627-1.763,7.844a.862.862,0,0,0-.074,1.193c1.237,1.467,4,5.159,3.311,8.216" transform="translate(53.116 148.711)" fill="#fe5426"/>
        </g>
        <g id="g7073" transform="translate(47.539 26.849)">
          <path id="path7075" d="M-.21-29.407a12.678,12.678,0,0,1,1.549-3.749,1.047,1.047,0,0,1,1.485-.291l1.468,1.03a1.47,1.47,0,0,1,.605,1.45l0,.013a1.466,1.466,0,0,1-.785,1.063L1.062-28.351a.9.9,0,0,1-1.137-.278.946.946,0,0,1-.135-.778" transform="translate(0.24 33.637)" fill="#fdc266"/>
        </g>
        <g id="g7077" transform="translate(22.613 9.872)">
          <path id="path7079" d="M-126.442-32.276a3.945,3.945,0,0,0-4.148-1.675.878.878,0,0,1-.93-.48,4.352,4.352,0,0,0-2.781-2.36c-2.1-.545-4.32.7-5.474,2.884a.867.867,0,0,1-.962.447,3.139,3.139,0,0,0-2.334.318c-1.672.984-2.064,3.418-.875,5.437s3.507,2.857,5.178,1.873a2.946,2.946,0,0,0,.448-.324,3.993,3.993,0,0,0,1.138.494,4.361,4.361,0,0,0,3.607-.736,4.806,4.806,0,0,0,5.043-.1c2.252-1.326,3.187-3.912,2.089-5.777" transform="translate(144.633 36.92)" fill="#fe5426"/>
        </g>
        <g id="g7081" transform="translate(28.415 9.873)">
          <path id="path7083" d="M-71.59-72.427a5.589,5.589,0,0,1-1.831.685,4.059,4.059,0,0,0,.871-4.818A3.877,3.877,0,0,0-76.4-78.275,1.436,1.436,0,0,1-77.778-79a4.291,4.291,0,0,0-2.631-2.078,4.037,4.037,0,0,0-1.481-.1,4.623,4.623,0,0,1,4.53-1.544,4.348,4.348,0,0,1,2.781,2.359.877.877,0,0,0,.93.48A3.945,3.945,0,0,1-69.5-78.2c1.1,1.864.162,4.451-2.091,5.777" transform="translate(81.889 82.847)" fill="#ef4523"/>
        </g>
        <g id="g7085" transform="translate(24.784 18.434)">
          <path id="path7087" d="M-10.961-10.149C-11.749-8.683-12.733-5.53-9.2-2.324a.867.867,0,0,1,.086,1.2C-10.367.358-13.162,4.1-12.412,7.173a2.384,2.384,0,0,0,4.174.889L-.05-2.15A4.383,4.383,0,0,0-.893-8.484l-2.56-1.835a6.894,6.894,0,0,0-6.2-.935,2.317,2.317,0,0,0-1.306,1.1" transform="translate(12.538 11.61)" fill="#fe6a30"/>
        </g>
        <g id="g7089" transform="translate(24.831 19.812)">
          <path id="path7091" d="M-86.47-56.173l-8.187,10.212a2.388,2.388,0,0,1-4.193-.968c-.024-.109-.045-.22-.061-.33A2.352,2.352,0,0,0-97.57-48.1l8.189-10.214a4.382,4.382,0,0,0-.37-5.941l2.438,1.747a4.383,4.383,0,0,1,.843,6.335" transform="translate(98.91 64.255)" fill="#fe5426"/>
        </g>
        <g id="g7093" transform="translate(33.165 26.849)">
          <path id="path7095" d="M-35.644-29.407a12.682,12.682,0,0,0-1.549-3.749,1.047,1.047,0,0,0-1.485-.291l-1.468,1.03a1.47,1.47,0,0,0-.605,1.45l0,.013a1.466,1.466,0,0,0,.785,1.063l3.048,1.539a.9.9,0,0,0,1.137-.278.946.946,0,0,0,.135-.778" transform="translate(40.773 33.637)" fill="#fdc266"/>
        </g>
      </g>
    </g>
  </g>
</svg>
