<svg xmlns="http://www.w3.org/2000/svg" width="230" height="153" viewBox="0 0 230 153">
  <g id="Grupo_1071132" data-name="Grupo 1071132" transform="translate(-999.855 -2012)">
    <rect id="Rectángulo_375954" data-name="Rectángulo 375954" width="230" height="153" rx="21" transform="translate(999.855 2012)" fill="#fffad0"/>
    <g id="vaca_1_" data-name="vaca (1)" transform="translate(1043.115 1984.998)">
      <g id="Grupo_1067183" data-name="Grupo 1067183" transform="translate(0 57.946)">
        <path id="Trazado_805708" data-name="Trazado 805708" d="M10.451,134.618a2.13,2.13,0,0,1-1.642-.77c-5.528-6.657-13.555-20.6-5.2-39.156A2.133,2.133,0,0,1,7.5,96.443c-7.035,15.625-1.387,27.483,4.59,34.679a2.133,2.133,0,0,1-1.64,3.5Z" transform="translate(0 -93.434)" fill="#dddaec"/>
      </g>
      <g id="Grupo_1067184" data-name="Grupo 1067184" transform="translate(93.62 54.024)">
        <path id="Trazado_805709" data-name="Trazado 805709" d="M341.94,81.512c-1.54-1.967-3.451-2.37-4.676-1.887-1.274.306-2.62,1.734-2.757,4.225l-.427,8.127a24.3,24.3,0,0,1,12.545-4.458Z" transform="translate(-334.079 -79.439)" fill="#2b4d66" fill-rule="evenodd"/>
      </g>
      <g id="Grupo_1067185" data-name="Grupo 1067185" transform="translate(109.397 54.024)">
        <path id="Trazado_805710" data-name="Trazado 805710" d="M395.065,81.511l-4.684,6.007a24.344,24.344,0,0,1,12.545,4.459l-.427-8.127c-.137-2.491-1.475-3.918-2.757-4.225C398.524,79.141,396.6,79.544,395.065,81.511Z" transform="translate(-390.381 -79.439)" fill="#2b4d66" fill-rule="evenodd"/>
      </g>
      <g id="Grupo_1067186" data-name="Grupo 1067186" transform="translate(2.72 44.129)">
        <path id="Trazado_805711" data-name="Trazado 805711" d="M22.942,44.672c-3.322-2.136-9.126,2.411-12.238,7.039a5.942,5.942,0,0,0,1.621,8.224l.218.145a5.945,5.945,0,0,0,8.006-1.758C24.732,52.1,26.264,46.817,22.942,44.672Z" transform="translate(-9.705 -44.129)" fill="#365e7d" fill-rule="evenodd"/>
      </g>
      <g id="Grupo_1067187" data-name="Grupo 1067187" transform="translate(94.039 132.48)">
        <path id="Trazado_805712" data-name="Trazado 805712" d="M351.675,359.406c-4.974,1.862-11.061,2.427-16.1,2.54l1.451,19.076h12.722Z" transform="translate(-335.575 -359.406)" fill="#d0cee7" fill-rule="evenodd"/>
      </g>
      <g id="Grupo_1067188" data-name="Grupo 1067188" transform="translate(9.886 72.726)">
        <path id="Trazado_805713" data-name="Trazado 805713" d="M77.249,146.188c-6.6,3.483-33.918,29.323-41.972,34.5.113,11.336.645,20.47,1.548,32.411l1.1,14.448H50.644l1.306-15.98a18.946,18.946,0,0,0,2.548.169H94.067l1.193,15.81h12.722l1.717-19.172c.814-.1,4.757.218,9.731.1,5.039-.113,11.126-.677,16.1-2.54,5.385-2.016,9.457-5.563,9.473-11.731l.008-2.225c-11.424-16.141-19.889-40.86-43.407-45.73C101.8,146.14,82.868,146.188,77.249,146.188Z" transform="translate(-35.277 -146.177)" fill="#dddaec" fill-rule="evenodd"/>
      </g>
      <g id="Grupo_1067189" data-name="Grupo 1067189" transform="translate(122.998 66.329)">
        <path id="Trazado_805714" data-name="Trazado 805714" d="M450.815,126.274a10.524,10.524,0,0,0-11.9-1.879c0,5.361,1.64,8.029,3.132,12.665.589,1.806,2.133,3.109,5.688,3.9,5.466-.911,10.674-4.088,11.513-8.054.822-3.886-1.757.363-8.433-6.627Z" transform="translate(-438.915 -123.349)" fill="#2b4d66" fill-rule="evenodd"/>
      </g>
      <g id="Grupo_1067190" data-name="Grupo 1067190" transform="translate(72.059 66.329)">
        <path id="Trazado_805715" data-name="Trazado 805715" d="M265.721,126.274a17.79,17.79,0,0,1-4.426,3.539c-3.37,1.782-4.612.226-4.007,3.088.838,3.967,6.071,7.039,11.537,7.95,3.28-1.839,9.876-11.094,8.8-16.455a10.525,10.525,0,0,0-11.9,1.878Z" transform="translate(-257.141 -123.349)" fill="#2b4d66" fill-rule="evenodd"/>
      </g>
      <g id="Grupo_1067191" data-name="Grupo 1067191" transform="translate(9.87 72.737)">
        <path id="Trazado_805716" data-name="Trazado 805716" d="M65.364,146.216A30.147,30.147,0,0,0,35.22,176.37c0,1.484.008,2.935.016,4.346,3.241,1.749,15.931,7.039,20.833-3.669,7.925-17.31,23.791-1.451,21.139-30.831H65.364Z" transform="translate(-35.22 -146.216)" fill="#365e7d" fill-rule="evenodd"/>
      </g>
      <g id="Grupo_1067192" data-name="Grupo 1067192" transform="translate(95.49 154.095)">
        <path id="Trazado_805717" data-name="Trazado 805717" d="M340.753,436.539l.427,5.628a3.255,3.255,0,0,0,3.152,3.152h9.118c3.313,0,3.926-2.419,2.6-4.58l-2.572-4.2Z" transform="translate(-340.753 -436.539)" fill="#365e7d" fill-rule="evenodd"/>
      </g>
      <g id="Grupo_1067193" data-name="Grupo 1067193" transform="translate(69.868 154.095)">
        <path id="Trazado_805718" data-name="Trazado 805718" d="M249.323,436.539l.427,5.628a3.26,3.26,0,0,0,3.152,3.152h9.126c3.306,0,3.918-2.419,2.6-4.58l-2.58-4.2Z" transform="translate(-249.323 -436.539)" fill="#365e7d" fill-rule="evenodd"/>
      </g>
      <g id="Grupo_1067194" data-name="Grupo 1067194" transform="translate(37.612 138.285)">
        <path id="Trazado_805719" data-name="Trazado 805719" d="M134.216,380.121l1.2,15.81h12.722l1.411-15.81Z" transform="translate(-134.216 -380.121)" fill="#d0cee7" fill-rule="evenodd"/>
      </g>
      <g id="Grupo_1067195" data-name="Grupo 1067195" transform="translate(38.813 154.095)">
        <path id="Trazado_805720" data-name="Trazado 805720" d="M151.225,436.539H138.5l.427,5.628a3.255,3.255,0,0,0,3.152,3.152H151.2c3.313,0,3.926-2.419,2.6-4.58Z" transform="translate(-138.503 -436.539)" fill="#365e7d" fill-rule="evenodd"/>
      </g>
      <g id="Grupo_1067196" data-name="Grupo 1067196" transform="translate(33.116 104.763)">
        <path id="Trazado_805721" data-name="Trazado 805721" d="M130.005,264.924c-3.386-.734-7.264.185-9.384,2.62-4.184,4.813-2.443,10.11,1.024,12.948,3.281,2.693,8.119,3.169,10.884-1.113a13.383,13.383,0,0,1,4.829-4.6c3.112-1.766,6.006-2.1,7.232-5.773a6.294,6.294,0,0,0-9.941-7.006c-1.765,1.475-2.4,3.4-4.644,2.919Z" transform="translate(-118.173 -260.499)" fill="#365e7d" fill-rule="evenodd"/>
      </g>
      <g id="Grupo_1067197" data-name="Grupo 1067197" transform="translate(69.701 89.709)">
        <path id="Trazado_805722" data-name="Trazado 805722" d="M250.135,228.692c-7.449,9.909,16.842,23.2,21.51,4.434-.129-.113-.258-.226-.387-.347-7.224-6.466-8.747-11.586-6.893-15.383l-.411-5.241c-.137-1.79-.427-3.58-.685-5.378-17.4-.073-5.934,12.343-13.133,21.914Z" transform="translate(-248.726 -206.778)" fill="#365e7d" fill-rule="evenodd"/>
      </g>
      <g id="Grupo_1067198" data-name="Grupo 1067198" transform="translate(12.53 154.095)">
        <path id="Trazado_805723" data-name="Trazado 805723" d="M57.436,436.539H44.714l.427,5.628a3.255,3.255,0,0,0,3.152,3.152H57.42c3.306,0,3.918-2.419,2.588-4.58Z" transform="translate(-44.714 -436.539)" fill="#365e7d" fill-rule="evenodd"/>
      </g>
      <g id="Grupo_1067199" data-name="Grupo 1067199" transform="translate(83.742 62.055)">
        <path id="Trazado_805724" data-name="Trazado 805724" d="M322.856,108.1a24.459,24.459,0,0,0-23.276,16.947,16.255,16.255,0,0,0-.75,4.829,38.063,38.063,0,0,0,.5,5.878c.258,1.8.548,3.588.685,5.378l.218,2.757.193,2.483c5.16-5.789,39.642-4.974,44.793.621l.589-7.692c.266-3.539,1.088-6.3,1.1-9.32a15.261,15.261,0,0,0-.774-4.934A24.459,24.459,0,0,0,322.856,108.1Z" transform="translate(-298.829 -108.096)" fill="#f9f6f6" fill-rule="evenodd"/>
      </g>
      <g id="Grupo_1067200" data-name="Grupo 1067200" transform="translate(84.619 92.177)">
        <path id="Trazado_805725" data-name="Trazado 805725" d="M347.473,224.358c-4.837-11.425-39.344-11.747-44.794-.621-1.854,3.8-.331,8.917,6.893,15.383l.387.347a28.178,28.178,0,0,0,4.152,2.991,21.1,21.1,0,0,0,14.318,2.83,22.582,22.582,0,0,0,8.53-3.354,28.618,28.618,0,0,0,3.685-2.814C347.465,233.025,349.053,228.1,347.473,224.358Z" transform="translate(-301.959 -215.587)" fill="#d09080" fill-rule="evenodd"/>
      </g>
      <g id="Grupo_1067201" data-name="Grupo 1067201" transform="translate(109.002 62.079)">
        <path id="Trazado_805726" data-name="Trazado 805726" d="M402.967,113.48a24.331,24.331,0,0,0-14-5.3A24.606,24.606,0,0,1,403.5,123.526a15.717,15.717,0,0,1,.774,4.934c-.016,3.023-.839,5.781-1.1,9.32L402.927,141c3.459,1.443,6.079,3.467,7.175,6.055l.588-7.692c.266-3.539,1.088-6.3,1.1-9.32a15.26,15.26,0,0,0-.774-4.934A24.438,24.438,0,0,0,402.967,113.48Z" transform="translate(-388.971 -108.183)" fill="#dddaec" fill-rule="evenodd"/>
      </g>
      <g id="Grupo_1067202" data-name="Grupo 1067202" transform="translate(89.274 94.893)">
        <path id="Trazado_805727" data-name="Trazado 805727" d="M349.3,236.05a35.872,35.872,0,0,1-3.87,3.991,29.213,29.213,0,0,1-3.685,2.814,22.757,22.757,0,0,1-8.538,3.354,21.168,21.168,0,0,1-14.318-2.83l-.314-.193a39.142,39.142,0,0,0,2.959,2.91l.387.347a28.173,28.173,0,0,0,4.152,2.991,21.1,21.1,0,0,0,14.318,2.83,22.582,22.582,0,0,0,8.53-3.354A28.617,28.617,0,0,0,352.6,246.1c6.821-6.1,8.409-11.021,6.829-14.762-1.1-2.588-3.717-4.612-7.175-6.055a7.147,7.147,0,0,1,.548,3.169C352.7,230.672,351.619,233.2,349.3,236.05Z" transform="translate(-318.572 -225.278)" fill="#ce775f" fill-rule="evenodd"/>
      </g>
      <g id="Grupo_1067203" data-name="Grupo 1067203" transform="translate(89.048 116.057)">
        <path id="Trazado_805728" data-name="Trazado 805728" d="M339.808,306.622a21.1,21.1,0,0,1-14.318-2.83,28.147,28.147,0,0,1-4.152-2.991,13.667,13.667,0,0,1-3.572,6.724c.073.056.137.121.2.177,5.926,5.216,15.536,6.3,28.1,4.66a10.865,10.865,0,0,0,2.265-6.869l.008-2.225A22.591,22.591,0,0,1,339.808,306.622Z" transform="translate(-317.766 -300.801)" fill="#d0cee7" fill-rule="evenodd"/>
      </g>
      <g id="Grupo_1067204" data-name="Grupo 1067204" transform="translate(78.995 89.709)">
        <path id="Trazado_805729" data-name="Trazado 805729" d="M287.139,206.778a21.24,21.24,0,0,0-5.249.524c.621,4.249.919,8.344,1.25,12.626-.782,5.878-.46,11.553,8.8,19.922a13.666,13.666,0,0,0,3.572-6.724l-.387-.347a39.243,39.243,0,0,1-2.959-2.91c-4.66-5.111-5.5-9.264-3.934-12.473l-.193-2.483-.218-2.757c-.137-1.79-.427-3.58-.685-5.378Z" transform="translate(-281.891 -206.778)" fill="#2b4d66" fill-rule="evenodd"/>
      </g>
      <g id="Grupo_1067205" data-name="Grupo 1067205" transform="translate(65.027 72.73)">
        <path id="Trazado_805730" data-name="Trazado 805730" d="M250.762,157.291a20.817,20.817,0,0,1-5.587-1.749c-3.064-1.475-5.41-3.652-5.95-6.2-.6-2.862.637-1.306,4.007-3.088.089-.048-5.845-.064-11.077-.064-1.524,13.642,13.3,13.771,13.859,17.5a21.24,21.24,0,0,1,5.248-.524,38.035,38.035,0,0,1-.5-5.878Z" transform="translate(-232.045 -146.189)" fill="#d0cee7" fill-rule="evenodd"/>
      </g>
      <g id="Grupo_1067206" data-name="Grupo 1067206" transform="translate(96.259 80.199)">
        <path id="Trazado_805731" data-name="Trazado 805731" d="M345.631,178.744a2.133,2.133,0,0,1-2.133-2.133v-1.637a2.133,2.133,0,1,1,4.266,0v1.637A2.133,2.133,0,0,1,345.631,178.744Z" transform="translate(-343.498 -172.841)" fill="#365e7d"/>
      </g>
      <g id="Grupo_1067207" data-name="Grupo 1067207" transform="translate(115.036 80.199)">
        <path id="Trazado_805732" data-name="Trazado 805732" d="M412.636,178.744a2.133,2.133,0,0,1-2.133-2.133v-1.637a2.133,2.133,0,0,1,4.266,0v1.637A2.133,2.133,0,0,1,412.636,178.744Z" transform="translate(-410.503 -172.841)" fill="#365e7d"/>
      </g>
      <g id="Grupo_1067208" data-name="Grupo 1067208" transform="translate(98.468 102.435)">
        <path id="Trazado_805733" data-name="Trazado 805733" d="M353.514,259.907a2.133,2.133,0,0,1-2.133-2.133v-3.451a2.133,2.133,0,1,1,4.266,0v3.451A2.133,2.133,0,0,1,353.514,259.907Z" transform="translate(-351.381 -252.19)" fill="#365e7d"/>
      </g>
      <g id="Grupo_1067209" data-name="Grupo 1067209" transform="translate(112.827 102.435)">
        <path id="Trazado_805734" data-name="Trazado 805734" d="M404.753,259.907a2.133,2.133,0,0,1-2.133-2.133v-3.451a2.133,2.133,0,1,1,4.266,0v3.451A2.133,2.133,0,0,1,404.753,259.907Z" transform="translate(-402.62 -252.19)" fill="#365e7d"/>
      </g>
    </g>
  </g>
</svg>
