<svg xmlns="http://www.w3.org/2000/svg" width="296" height="144" viewBox="0 0 296 144">
  <g id="Grupo_1071351" data-name="Grupo 1071351" transform="translate(-335.855 -2086)">
    <rect id="Rect치ngulo_375955" data-name="Rect치ngulo 375955" width="296" height="144" rx="17" transform="translate(335.855 2086)" fill="#fff"/>
    <g id="Capa_2_1_" transform="translate(369.002 2108.81)">
      <g id="Capa_1-2">
        <rect id="Rect치ngulo_375012" data-name="Rect치ngulo 375012" width="229.706" height="98.381" fill="none"/>
        <path id="Trazado_805735" data-name="Trazado 805735" d="M.3,55.6H2.265V66.179H.3Z" transform="translate(0.153 28.424)" fill="#2f7338"/>
        <path id="Trazado_805736" data-name="Trazado 805736" d="M2.8,57.51H4.462v.907h0a2.361,2.361,0,0,1,2.267-1.209c1.662,0,2.418,1.36,2.418,3.022v4.987H7.485V60.986c0-.907,0-2.267-1.209-2.267s-1.662,1.662-1.662,2.72v3.778H2.8Z" transform="translate(1.431 29.234)" fill="#2f7338"/>
        <path id="Trazado_805737" data-name="Trazado 805737" d="M12.685,59.062a5.433,5.433,0,0,0-1.662-.3c-.453,0-1.058.151-1.058.907,0,1.209,3.174.453,3.174,3.325,0,1.813-1.511,2.569-3.022,2.569A10.2,10.2,0,0,1,8,65.258L8.151,63.6a4.024,4.024,0,0,0,1.813.453c.453,0,1.209-.151,1.209-.907,0-1.511-3.174-.453-3.174-3.325A2.387,2.387,0,0,1,10.418,57.4h.3a8.844,8.844,0,0,1,1.965.3Z" transform="translate(4.09 29.344)" fill="#2f7338"/>
        <path id="Trazado_805738" data-name="Trazado 805738" d="M13.16,59.627H11.8V58.116h1.36V56.6l1.813-.6v2.267h1.662v1.511H14.974v3.627c0,.6.151,1.209.907,1.209a1.132,1.132,0,0,0,.756-.151v1.662a4.184,4.184,0,0,1-1.36.151,2.313,2.313,0,0,1-2.267-2.569Z" transform="translate(6.032 28.629)" fill="#2f7338"/>
        <path id="Trazado_805739" data-name="Trazado 805739" d="M15.8,55.2h1.813v1.965H15.8Zm0,3.325h1.813v7.858H15.8Z" transform="translate(8.077 28.22)" fill="#2f7338"/>
        <path id="Trazado_805740" data-name="Trazado 805740" d="M19.16,59.627H17.8V58.116h1.36V56.6l1.813-.6v2.267h1.662v1.511H20.974v3.627c0,.6.151,1.209.907,1.209a1.132,1.132,0,0,0,.756-.151v1.662a4.184,4.184,0,0,1-1.36.151c-1.511,0-2.267-1.058-2.267-2.569Z" transform="translate(9.1 28.629)" fill="#2f7338"/>
        <path id="Trazado_805741" data-name="Trazado 805741" d="M28.247,65.158H26.585V64.1h0a2.665,2.665,0,0,1-2.267,1.209c-1.662,0-2.418-1.36-2.418-3.022V57.3h1.662v4.231c0,.907,0,2.267,1.209,2.267s1.662-1.662,1.662-2.569V57.451h1.813Z" transform="translate(11.196 29.293)" fill="#2f7338"/>
        <path id="Trazado_805742" data-name="Trazado 805742" d="M28.16,59.627H26.8V58.116h1.36V56.6l1.813-.6v2.267h1.662v1.511H29.974v3.627c0,.6.151,1.209.907,1.209a1.132,1.132,0,0,0,.756-.151v1.662a4.184,4.184,0,0,1-1.36.151c-1.511,0-2.267-1.058-2.267-2.569Z" transform="translate(13.701 28.629)" fill="#2f7338"/>
        <path id="Trazado_805743" data-name="Trazado 805743" d="M34.24,57.3a3.741,3.741,0,0,1,3.778,3.778v.453a3.937,3.937,0,0,1-3.325,4.08,3.937,3.937,0,0,1-4.08-3.325v-.6a3.758,3.758,0,0,1,3.174-4.231A.555.555,0,0,1,34.24,57.3Zm0,6.5c1.36,0,1.813-1.36,1.813-2.72s-.6-2.267-1.813-2.267-1.813,1.209-1.813,2.267C32.427,62.287,32.88,63.8,34.24,63.8Z" transform="translate(15.63 29.293)" fill="#2f7338"/>
        <path id="Trazado_805744" data-name="Trazado 805744" d="M46.105,65.979a10.205,10.205,0,0,1-2.116.3A4.867,4.867,0,0,1,38.7,62.049V60.992c0-3.627,1.965-5.592,5.289-5.592a4.827,4.827,0,0,1,2.116.453l-.151,1.813a3.47,3.47,0,0,0-2.116-.6c-1.965,0-3.174,1.662-3.174,3.778a3.375,3.375,0,0,0,2.871,3.778h.3a5.333,5.333,0,0,0,2.116-.453Z" transform="translate(19.784 28.322)" fill="#2f7338"/>
        <path id="Trazado_805745" data-name="Trazado 805745" d="M47.791,57.3a3.53,3.53,0,0,1,3.627,3.778v.453a3.815,3.815,0,0,1-3.325,4.08,3.623,3.623,0,0,1-4.08-3.325v-.756A3.758,3.758,0,0,1,47.187,57.3Zm0,6.5c1.36,0,1.813-1.36,1.813-2.72s-.6-2.267-1.813-2.267-1.813,1.058-1.813,2.267S46.431,63.8,47.791,63.8Z" transform="translate(22.481 29.293)" fill="#2f7338"/>
        <path id="Trazado_805746" data-name="Trazado 805746" d="M49.9,55h1.813V66.334H49.9Z" transform="translate(25.51 28.117)" fill="#2f7338"/>
        <path id="Trazado_805747" data-name="Trazado 805747" d="M55.791,57.3a3.53,3.53,0,0,1,3.627,3.778v.453a3.722,3.722,0,1,1-7.405.756v-.6a3.758,3.758,0,0,1,3.174-4.231A1.142,1.142,0,0,1,55.791,57.3Zm0,6.5c1.36,0,1.813-1.36,1.813-2.72s-.6-2.267-1.813-2.267-1.813,1.209-1.813,2.267C54.129,62.287,54.431,63.8,55.791,63.8Z" transform="translate(26.571 29.293)" fill="#2f7338"/>
        <path id="Trazado_805748" data-name="Trazado 805748" d="M57.951,57.451h1.662v1.058h0A2.412,2.412,0,0,1,61.729,57.3a2.14,2.14,0,0,1,2.116,1.36,2.279,2.279,0,0,1,2.116-1.36c1.662,0,2.267,1.36,2.267,3.022V65.31H66.414V60.625c0-.756,0-1.813-1.058-1.813S64,60.474,64,61.38v3.778H62.031V60.474c0-.756,0-1.813-1.058-1.813s-1.36,1.662-1.36,2.569v3.778H57.8V57.451Z" transform="translate(29.549 29.293)" fill="#2f7338"/>
        <path id="Trazado_805749" data-name="Trazado 805749" d="M65.9,55h1.813v4.534h0a2.412,2.412,0,0,1,2.116-1.209c2.116,0,2.871,1.965,2.871,4.08s-.756,4.08-2.871,4.08a2.412,2.412,0,0,1-2.116-1.209h0v.907H65.9Zm3.476,9.974c1.209,0,1.511-1.511,1.511-2.569s-.3-2.418-1.511-2.418-1.662,1.36-1.662,2.418.453,2.569,1.662,2.569Z" transform="translate(33.69 28.117)" fill="#2f7338"/>
        <path id="Trazado_805750" data-name="Trazado 805750" d="M71.5,55.2h1.813v1.965H71.5Zm0,3.325h1.813v7.858H71.5Z" transform="translate(36.553 28.22)" fill="#2f7338"/>
        <path id="Trazado_805751" data-name="Trazado 805751" d="M74.312,57.9a7.113,7.113,0,0,1,2.418-.6c2.116,0,3.022,1.058,3.022,3.325v3.022a7.358,7.358,0,0,0,.151,1.813H78.393a2.946,2.946,0,0,0-.151-1.209h0a2.559,2.559,0,0,1-2.116,1.36A2.232,2.232,0,0,1,73.708,63.5v-.151a2.361,2.361,0,0,1,1.209-2.267,6.265,6.265,0,0,1,2.418-.453h.907c0-1.209-.453-1.662-1.511-1.662a2.984,2.984,0,0,0-2.116.907Zm2.267,6.045a1.346,1.346,0,0,0,1.209-.756,1.861,1.861,0,0,0,.3-1.511h-.756c-.756,0-1.965.151-1.965,1.36,0,.6.453.907,1.209.907Z" transform="translate(37.67 29.293)" fill="#2f7338"/>
        <path id="Trazado_805752" data-name="Trazado 805752" d="M78.9,57.5h1.813v.907h0A2.665,2.665,0,0,1,82.98,57.2c1.662,0,2.418,1.36,2.418,3.022V65.21H83.585V60.978c0-.907,0-2.267-1.209-2.267s-1.662,1.511-1.662,2.569v3.778H78.9Z" transform="translate(40.336 29.242)" fill="#2f7338"/>
        <path id="Trazado_805753" data-name="Trazado 805753" d="M87.891,57.3a3.53,3.53,0,0,1,3.627,3.778v.453a3.722,3.722,0,1,1-7.405.756v-.756A3.758,3.758,0,0,1,87.287,57.3Zm0,6.5c1.36,0,1.813-1.36,1.813-2.72s-.6-2.267-1.813-2.267-1.813,1.209-1.813,2.267C86.078,62.287,86.38,63.8,87.891,63.8Z" transform="translate(42.981 29.293)" fill="#2f7338"/>
        <path id="Trazado_805754" data-name="Trazado 805754" d="M95.729,55.6h2.116l3.778,10.579H99.507L98.6,63.761H94.671l-.907,2.418H91.8Zm1.058,2.116h0L95.427,62.1h2.72Z" transform="translate(46.931 28.424)" fill="#2f7338"/>
        <path id="Trazado_805755" data-name="Trazado 805755" d="M105.5,57.5v6.952c0,2.116-.756,4.08-3.627,4.08a4.434,4.434,0,0,1-2.418-.6l.151-1.662a5.281,5.281,0,0,0,1.965.756c1.965,0,2.116-1.662,2.116-3.022h0a2.412,2.412,0,0,1-2.116,1.209c-2.116,0-2.871-1.813-2.871-3.929s.907-4.08,3.022-4.08a2.246,2.246,0,0,1,2.116,1.209h0V57.351Zm-1.813,3.778c0-1.36-.453-2.418-1.511-2.418s-1.662,1.209-1.662,2.418.453,2.418,1.511,2.418S103.687,62.64,103.687,61.28Z" transform="translate(50.458 29.242)" fill="#2f7338"/>
        <path id="Trazado_805756" data-name="Trazado 805756" d="M104.5,57.451h1.662v1.813h0a2.1,2.1,0,0,1,1.965-1.965h.6v1.965a1.917,1.917,0,0,0-.907-.151c-1.511,0-1.511,1.965-1.511,3.174v2.871H104.5Z" transform="translate(53.423 29.293)" fill="#2f7338"/>
        <path id="Trazado_805757" data-name="Trazado 805757" d="M111.24,57.3a3.741,3.741,0,0,1,3.778,3.778v.453a3.722,3.722,0,1,1-7.405.756v-.6a3.758,3.758,0,0,1,3.174-4.231A.555.555,0,0,1,111.24,57.3Zm0,6.5c1.36,0,1.813-1.36,1.813-2.72s-.6-2.267-1.813-2.267-1.813,1.209-1.813,2.267C109.427,62.287,109.729,63.8,111.24,63.8Z" transform="translate(54.995 29.293)" fill="#2f7338"/>
        <path id="Trazado_805758" data-name="Trazado 805758" d="M113.3,57.459h1.813v1.058h0a2.145,2.145,0,0,1,2.116-1.209c2.116,0,3.022,1.965,3.022,4.08s-.756,4.08-3.022,4.08a2.451,2.451,0,0,1-2.116-1.058h0v4.08H113.3Zm1.965,3.929c0,1.058.453,2.569,1.662,2.569s1.511-1.511,1.511-2.569-.3-2.418-1.511-2.418S115.265,60.179,115.265,61.388Z" transform="translate(57.922 29.285)" fill="#2f7338"/>
        <path id="Trazado_805759" data-name="Trazado 805759" d="M124.645,64.856a4.434,4.434,0,0,1-2.418.6c-2.267,0-3.627-1.511-3.627-4.08,0-2.267,1.058-4.08,3.174-4.08,2.569,0,3.325,1.965,3.325,4.685h-4.836a1.874,1.874,0,0,0,1.813,1.965h.151a4.567,4.567,0,0,0,2.418-.756v1.662Zm-1.209-4.231c0-1.058-.453-1.813-1.511-1.813s-1.511.756-1.662,1.813Z" transform="translate(60.631 29.293)" fill="#2f7338"/>
        <path id="Trazado_805760" data-name="Trazado 805760" d="M128.536,59.113a3.557,3.557,0,0,0-1.209-.3c-1.209,0-1.813,1.058-1.813,2.418,0,1.511.6,2.569,1.965,2.569a4.412,4.412,0,0,0,1.36-.3l.151,1.662a7.585,7.585,0,0,1-1.813.3c-2.267,0-3.476-1.813-3.476-4.08s1.209-4.08,3.325-4.08a3.833,3.833,0,0,1,1.813.3Z" transform="translate(63.239 29.293)" fill="#2f7338"/>
        <path id="Trazado_805761" data-name="Trazado 805761" d="M134.247,65.158h-1.662V64.1h0a2.665,2.665,0,0,1-2.267,1.209c-1.662,0-2.418-1.36-2.418-3.022V57.3h1.813v4.231c0,.907,0,2.267,1.209,2.267s1.662-1.662,1.662-2.569V57.451H134.4Z" transform="translate(65.386 29.293)" fill="#2f7338"/>
        <path id="Trazado_805762" data-name="Trazado 805762" d="M133.907,57.9a7.113,7.113,0,0,1,2.418-.6c2.116,0,3.022,1.058,3.022,3.325v4.836h-1.662c0-.453-.151-.756-.151-1.209h0a2.559,2.559,0,0,1-2.116,1.36A2.387,2.387,0,0,1,133,63.194a2.412,2.412,0,0,1,1.209-2.116,6.265,6.265,0,0,1,2.418-.453h1.058c0-1.209-.453-1.662-1.662-1.662a2.984,2.984,0,0,0-2.116.907Zm2.116,6.045a1.8,1.8,0,0,0,1.36-.756,3.047,3.047,0,0,0,.453-1.662h-.756c-.756,0-2.116.151-2.116,1.36-.151.756.453,1.058,1.058,1.058Z" transform="translate(67.993 29.293)" fill="#2f7338"/>
        <path id="Trazado_805763" data-name="Trazado 805763" d="M138.4,57.451h1.662v1.813h0a2.242,2.242,0,0,1,1.965-1.965h.6v1.965a1.643,1.643,0,0,0-.756-.151c-1.511,0-1.511,1.965-1.511,3.174v2.871h-1.813Z" transform="translate(70.754 29.293)" fill="#2f7338"/>
        <path id="Trazado_805764" data-name="Trazado 805764" d="M141.9,55.2h1.813v1.965H141.9Zm0,3.325h1.813v7.858H141.9Z" transform="translate(72.543 28.22)" fill="#2f7338"/>
        <path id="Trazado_805765" data-name="Trazado 805765" d="M147.74,57.3a3.741,3.741,0,0,1,3.778,3.778v.453a3.722,3.722,0,1,1-7.4.756v-.6a3.758,3.758,0,0,1,3.174-4.231A.555.555,0,0,1,147.74,57.3Zm0,6.5c1.36,0,1.813-1.36,1.813-2.72s-.6-2.267-1.813-2.267-1.813,1.209-1.813,2.267C146.078,62.287,146.38,63.8,147.74,63.8Z" transform="translate(73.655 29.293)" fill="#2f7338"/>
        <path id="Trazado_805766" data-name="Trazado 805766" d="M112.541,21.64h.151l2.267.907.6.3-.151-.151,8.463-3.627-2.569-.756L111.03,16.2,100.3,17.711l3.627,1.36Z" transform="translate(51.276 8.282)" fill="#2f7338"/>
        <path id="Trazado_805767" data-name="Trazado 805767" d="M117.223,18.574,129.011,15.4H113.294L107.4,16.609h0l10.276,2.116-.6-.151Z" transform="translate(54.906 7.873)" fill="#85bb40"/>
        <path id="Trazado_805768" data-name="Trazado 805768" d="M124.2,22.18l3.174-1.662-8.009-2.267-.6-.151L110.3,21.727l.151.151h.3l.453.3,8.161,3.627h0l2.116.907,5.894-3.778-1.36-.3Z" transform="translate(56.388 9.253)" fill="#bfc630"/>
        <path id="Trazado_805769" data-name="Trazado 805769" d="M129.97,14.8l-4.231,1.209-11.788,3.174H113.8l.6.151,2.569.756.6.151,8.009,2.267.756-.453L140.7,14.2Z" transform="translate(58.178 7.259)" fill="#009748"/>
        <path id="Trazado_805770" data-name="Trazado 805770" d="M141.413,12.8l-3.627,2.116-14.357,7.858-.756.453L119.5,24.89l1.813.453,1.36.3,3.022-1.813h0l8.161,1.36.907-.756.3-.3,13.45-9.672.151-.151h.151l2.116-1.511Z" transform="translate(61.092 6.544)" fill="#85bb40"/>
        <path id="Trazado_805771" data-name="Trazado 805771" d="M144.581,23.36l-.6.6-.3.3L135.061,22,126.9,29.405h.151l1.662.6,10.125,3.325L137.327,35l-.6.453,2.418.756L150.928,24.72l-2.267-.3Z" transform="translate(64.875 11.247)" fill="#bfc630"/>
        <path id="Trazado_805772" data-name="Trazado 805772" d="M143.961,14.311h-.151l-.151.151-13.45,9.672-.3.3-.907.756,1.209.151,2.418.453,1.965.3h.151l-.756.6L142.6,28.97l.3-.3.6-.6L159.225,12.8Z" transform="translate(65.948 6.544)" fill="#009748"/>
        <path id="Trazado_805773" data-name="Trazado 805773" d="M96.29,28.027,104.6,24.1l-9.521-6.5L84.2,19.716,96.139,31.654l2.871-1.36-1.058-.907Z" transform="translate(43.045 8.998)" fill="#2f7338"/>
        <path id="Trazado_805774" data-name="Trazado 805774" d="M109.039,19.174l-3.627-1.36L100.274,16,90.3,17.36l1.662,1.058,9.521,6.5,1.209-.6.453-.151,2.72,1.813.907-.3.151-.151,8.765-3.174.453-.151,1.511-.453Z" transform="translate(46.164 8.18)" fill="#85bb40"/>
        <path id="Trazado_805775" data-name="Trazado 805775" d="M115.322,30.467l-.151-.151h0l-6.952-4.836L105.2,23.516h0l-.3-.151-.151-.151h.151l-2.72-1.813-.453.151-1.209.6L92.2,26.085l1.662,1.36,1.058.907,10.125,9.218.907-.6Z" transform="translate(47.135 10.94)" fill="#bfc630"/>
        <path id="Trazado_805776" data-name="Trazado 805776" d="M119.423,25.618l2.267-1.511h.151l-2.116-.907h0l.3.151V23.5L109.6,30.152l11.939,7.858.6-.453.3-.151,8.765-7.254Z" transform="translate(56.03 11.86)" fill="#85bb40"/>
        <path id="Trazado_805777" data-name="Trazado 805777" d="M107.4,27.3h0l.151.151h0Z" transform="translate(54.906 13.956)" fill="#8abf45"/>
        <path id="Trazado_805778" data-name="Trazado 805778" d="M133.519,27.5l-1.662-.6h-.151l-.453.3-1.965,1.813-2.116-.756-8.765,7.254-.3.151-.6.453h0l2.569,1.813,10.276,6.649,11.183-11.636.6-.453,1.511-1.662Z" transform="translate(60.069 13.752)" fill="#009748"/>
        <path id="Trazado_805779" data-name="Trazado 805779" d="M141.186,22.367h0l-1.965-.3-2.418-.453-1.209-.151-8.161-1.36h0l-3.022,1.813-5.894,3.778h-.151L116.1,27.2l11.788,4.534,2.116.756,1.965-1.813.453-.3,8.161-7.405.756-.6Z" transform="translate(59.353 10.276)" fill="#2f7338"/>
        <path id="Trazado_805780" data-name="Trazado 805780" d="M110.7,20.6h0Z" transform="translate(56.439 10.531)" fill="#13a654"/>
        <path id="Trazado_805781" data-name="Trazado 805781" d="M124.377,24.938l-8.161-3.627-.453-.3h-.3l-.6-.3L112.59,19.8h-.151l-1.511.453-.453.151-8.765,3.174-.151.151-.907.3H100.5l.151.151.3.151h0l3.022,1.965,6.952,4.836.151.151.151-.151.756-.453.3-.151h0l1.965,1.36L124.68,25.24v-.151Z" transform="translate(51.378 10.122)" fill="#009748"/>
        <path id="Trazado_805782" data-name="Trazado 805782" d="M117.5,33h0l.3.3Z" transform="translate(60.069 16.87)" fill="#3d7f3c"/>
        <path id="Trazado_805783" data-name="Trazado 805783" d="M133.822,41.258l-10.276-6.649L121.883,33.4,110.7,45.49,124.906,60l14.81-14.81Z" transform="translate(56.593 17.075)" fill="#bfc630"/>
        <path id="Trazado_805784" data-name="Trazado 805784" d="M118.3,33.5l-.6-.3Z" transform="translate(60.171 16.973)" fill="#3d7f3c"/>
        <path id="Trazado_805785" data-name="Trazado 805785" d="M126.084,36.421l-.3-.3L113.843,28.26l-1.965-1.36h0l-.3.151-.756.453-.151.151h0l-9.37,6.5.3.453,13.9,14.357v-.151l11.183-12.09Z" transform="translate(51.787 13.752)" fill="#2f7338"/>
        <path id="Trazado_805786" data-name="Trazado 805786" d="M101.413,25.013h0l-.453.151.453-.151a7.368,7.368,0,0,0-1.058.453c-.453.453.151.453.453.3s.907-.3,1.058-.6,0-.151-.453-.151" transform="translate(51.221 12.768)" fill="#3d7f3c"/>
        <path id="Trazado_805787" data-name="Trazado 805787" d="M100.529,26.1h.151c-.756,0-.756,1.662.3,1.36,0-.151-.151-.453,0-.6s.453-.151.453-.453-.6-.3-.907-.3" transform="translate(51.198 13.343)" fill="#3d7f3c"/>
        <path id="Trazado_805788" data-name="Trazado 805788" d="M99.8,25.5h0c-.453.151-.6.151-.6.6s0,.453.3.3a1.18,1.18,0,0,0,.6-.6c0-.151,0-.3-.3-.3" transform="translate(50.714 13.036)" fill="#3d7f3c"/>
        <path id="Trazado_805789" data-name="Trazado 805789" d="M99.656,26.8l-.453.453c-.151.151-.151.453-.3.6a.51.51,0,0,0,.756.453c.151-.6.3-1.209,0-1.511" transform="translate(50.56 13.701)" fill="#3d7f3c"/>
        <path id="Trazado_805790" data-name="Trazado 805790" d="M100.817,25.027l.151-.6c0-.3-.3-.453-.6-.3h.151c-.6.453-1.058,1.511,0,1.058.151,0,.151.151.3-.151" transform="translate(51.061 12.301)" fill="#3d7f3c"/>
        <path id="Trazado_805791" data-name="Trazado 805791" d="M98.518,25.8h0c-.453.453-.756.907-.6,1.36.3,0,.453-.151.756-.151,0-.151.3-.756.3-.907s-.3-.3-.453-.3" transform="translate(50.036 13.19)" fill="#3d7f3c"/>
        <path id="Trazado_805792" data-name="Trazado 805792" d="M118.36,41.767c0-.151-.151-.3-.151-.453s-.6.151-.756.3c-.453.6.151.907.756.907s.6,0,.6-.453-.3-.151-.453-.3" transform="translate(59.964 21.1)" fill="#08a554"/>
        <path id="Trazado_805793" data-name="Trazado 805793" d="M122.019,42.907c0-.151.151-.453,0-.6-.151-.3-.453-.3-.756-.3-.151.151-.6.3-.453.756s.756.3.756.756c.453-.151.453-.3.453-.6" transform="translate(61.746 21.472)" fill="#08a554"/>
        <path id="Trazado_805794" data-name="Trazado 805794" d="M118.056,39.807c.151,0,.453.453.6.151v-.3a1.821,1.821,0,0,0-.756-.756c-.151,0-.6.151-.6.453s.6.3.756.453" transform="translate(59.967 19.887)" fill="#08a554"/>
        <path id="Trazado_805795" data-name="Trazado 805795" d="M118.223,40.5c-.151,0,0,.3,0,.453.151.453.151.6.6.756.151,0,.151-.6,0-.756s-.3-.453-.6-.453" transform="translate(60.404 20.705)" fill="#08a554"/>
        <path id="Trazado_805796" data-name="Trazado 805796" d="M119.733,41.021h0c-.453-.3-.453.6-.3.907s.6.756.907.6a1,1,0,0,0,.151-.907c-.151-.151-.453-.151-.756-.6" transform="translate(61.01 20.94)" fill="#08a554"/>
        <path id="Trazado_805797" data-name="Trazado 805797" d="M120.16,40.46a.555.555,0,0,0-.151-.453,4.007,4.007,0,0,0-.756-.907.914.914,0,0,0-.453.907c.151.3.6.453.756.6s.6.151.6-.151" transform="translate(60.734 19.989)" fill="#08a554"/>
        <path id="Trazado_805798" data-name="Trazado 805798" d="M121.545,40.856c.3,0,.6.151.453-.3s-.6-.453-1.058-.453c-.151,0-.3,0-.3.151a.686.686,0,0,0,0,.756c.151.3.151.3.3.151a.785.785,0,0,1,.6-.3" transform="translate(61.616 20.5)" fill="#08a554"/>
        <path id="Trazado_805799" data-name="Trazado 805799" d="M117.75,29.013c-.151,0-.3.151-.453.151-.3,0-.453.3,0,.907s.453.453.6,0l.151-.453s.3-.151,0-.453-.3-.151-.3-.151" transform="translate(59.819 14.813)" fill="#3d7f3c"/>
        <path id="Trazado_805800" data-name="Trazado 805800" d="M115.595,28h-.151a.148.148,0,0,0-.151.151c-.453.3-.3.756.151,1.36.151.151.151.453.453-.151a2.148,2.148,0,0,0,.3-.907c-.151-.3-.3-.453-.6-.453" transform="translate(58.801 14.314)" fill="#3d7f3c"/>
        <path id="Trazado_805801" data-name="Trazado 805801" d="M118.7,27.8h-.453c-.6.151-.6.907.3.907s.907-.6.151-.907" transform="translate(60.233 14.212)" fill="#3d7f3c"/>
        <path id="Trazado_805802" data-name="Trazado 805802" d="M116.66,27.511c.6-.151,1.36-.756.3-.907s-.907,1.209-.3.907" transform="translate(59.398 13.595)" fill="#3d7f3c"/>
        <path id="Trazado_805803" data-name="Trazado 805803" d="M117.478,29.081a2.572,2.572,0,0,0-.151-1.058c-.3-.151-.3,0-.453,0h-.151c-.3,0-.453.3-.3,1.058.151.3.453.3.756.151.151,0,.151,0,.3-.151" transform="translate(59.487 14.292)" fill="#3d7f3c"/>
        <path id="Trazado_805804" data-name="Trazado 805804" d="M115.977,26.975c-.151,0-.151-1.058-.907-.151s.756,1.058,1.209.453l-.3-.3" transform="translate(58.721 13.526)" fill="#3d7f3c"/>
        <path id="Trazado_805805" data-name="Trazado 805805" d="M127.909,23.053a1.372,1.372,0,0,0-1.058-.453.148.148,0,0,0-.151.151c.3.3.453.6.907.756.3.151.3-.3.3-.453" transform="translate(64.772 11.554)" fill="#91bf3f"/>
        <path id="Trazado_805806" data-name="Trazado 805806" d="M125.753,22.3h0c-.3,0-.453.151-.453.3s.3.151.6.151c1.058,0,.151-.453-.151-.453" transform="translate(64.057 11.4)" fill="#91bf3f"/>
        <path id="Trazado_805807" data-name="Trazado 805807" d="M124.965,24.221c-.151-.151-.151,0-.3.151h0c-.453.3,0,1.965.6.907a2.8,2.8,0,0,0-.3-1.058" transform="translate(63.637 12.351)" fill="#91bf3f"/>
        <path id="Trazado_805808" data-name="Trazado 805808" d="M126.156,23.2h0l-.3.151c-.151.151-.453.3-.453.6,0,.151.3.3.453.3s.151,0,.151-.151a.57.57,0,0,0,.151-.907" transform="translate(64.108 11.86)" fill="#91bf3f"/>
        <path id="Trazado_805809" data-name="Trazado 805809" d="M124.975,22.52h-.3c-.151,0-.3.151-.151.3s.453,0,.6,0c.6-.3.151-.453-.151-.3" transform="translate(63.627 11.483)" fill="#91bf3f"/>
        <path id="Trazado_805810" data-name="Trazado 805810" d="M123.067,24.451c-.3.3-.6.6-.453.907.151.453.907-.6,1.058-1.058h0c-.3,0-.453.151-.6.151" transform="translate(62.663 12.423)" fill="#91bf3f"/>
        <path id="Trazado_805811" data-name="Trazado 805811" d="M123.433,23.451c0-.151-.151-.151-.3-.151a.555.555,0,0,0-.453.151c-.453.453-.907,1.511,0,1.058.3-.151.907-.6.756-1.058" transform="translate(62.448 11.912)" fill="#91bf3f"/>
        <path id="Trazado_805812" data-name="Trazado 805812" d="M124.055,22.7c-.453.151-1.36,1.058-.151.756.3-.151.756-.453.756-.6s-.453-.151-.6-.151" transform="translate(63.035 11.605)" fill="#91bf3f"/>
        <path id="Trazado_805813" data-name="Trazado 805813" d="M125.046,23c-.453.151-1.209,1.662-.3,1.058.3-.151.6-.907.3-1.058" transform="translate(63.555 11.758)" fill="#91bf3f"/>
        <path id="Trazado_805814" data-name="Trazado 805814" d="M126.7,16a1.917,1.917,0,0,0-.907.151c-.453.151-.3.453.151.6s.6-.151.756-.3c0-.151.151-.151.151-.3A.148.148,0,0,1,126.7,16" transform="translate(64.169 8.18)" fill="#91bf3f"/>
        <path id="Trazado_805815" data-name="Trazado 805815" d="M120.805,16.745c-.151.3.907,0,.907-.3h0c.3-.3-.907,0-.907.3" transform="translate(61.751 8.342)" fill="#91bf3f"/>
        <path id="Trazado_805816" data-name="Trazado 805816" d="M121.616,17.3a1.94,1.94,0,0,0-1.511.6c-.151.3.907-.151,1.511-.6h0" transform="translate(61.393 8.844)" fill="#91bf3f"/>
        <path id="Trazado_805817" data-name="Trazado 805817" d="M121.282,16.9c-.907.151-2.418.756-1.36.6.453-.151,1.058-.3,1.511-.453.151,0,0-.151-.151-.151" transform="translate(61.123 8.64)" fill="#91bf3f"/>
        <path id="Trazado_805818" data-name="Trazado 805818" d="M119.608,17.153a10.413,10.413,0,0,0,1.209-.453h-.3c-.453.151-1.058.453-.907.453" transform="translate(61.135 8.537)" fill="#91bf3f"/>
        <path id="Trazado_805819" data-name="Trazado 805819" d="M121.808,16.7c.151.151.6-.151.907-.3.151,0,.151-.151.3-.151a.148.148,0,0,0-.151-.151c-.6.151-1.209.453-1.058.6" transform="translate(62.259 8.231)" fill="#91bf3f"/>
        <path id="Trazado_805820" data-name="Trazado 805820" d="M123.06,17.038a1.669,1.669,0,0,0-1.209,0l-.151.151c0,.3.151.6,1.36,0,.151.151.3-.151,0-.151" transform="translate(62.216 8.653)" fill="#91bf3f"/>
        <path id="Trazado_805821" data-name="Trazado 805821" d="M122.7,16.4c-.6.151-.6.3-.6.453s.907-.151,1.209-.453h-.6" transform="translate(62.421 8.384)" fill="#91bf3f"/>
        <path id="Trazado_805822" data-name="Trazado 805822" d="M125.347,16.4H125.2a2.8,2.8,0,0,0-1.058.3c-.151,0-.151.151,0,.151.453.151,1.813-.151,1.209-.453" transform="translate(63.405 8.384)" fill="#91bf3f"/>
        <path id="Trazado_805823" data-name="Trazado 805823" d="M124.063,15.8c-.3,0-1.511.3-.907.453.756-.151,1.058-.453.907-.453" transform="translate(62.876 8.077)" fill="#91bf3f"/>
        <path id="Trazado_805824" data-name="Trazado 805824" d="M124.348,16.259h0c.151-.3-.3-.151-.6,0s0,.151.151.151h.151a.528.528,0,0,0,.3-.151" transform="translate(63.195 8.223)" fill="#91bf3f"/>
        <path id="Trazado_805825" data-name="Trazado 805825" d="M126.26,15.8a2.246,2.246,0,0,0-1.36.3.528.528,0,0,0,.3.151c.151,0,.453-.151.6-.151h.453c0-.151.151-.151,0-.3" transform="translate(63.852 8.077)" fill="#91bf3f"/>
        <path id="Trazado_805826" data-name="Trazado 805826" d="M125.358,15.751h0c.3-.151.151-.151,0-.151h-.3a.831.831,0,0,0-.756.453,9.629,9.629,0,0,1,1.058-.3" transform="translate(63.545 7.975)" fill="#91bf3f"/>
        <path id="Trazado_805827" data-name="Trazado 805827" d="M107,27.2Z" transform="translate(54.701 13.905)" fill="#8abf45"/>
        <path id="Trazado_805828" data-name="Trazado 805828" d="M110.3,20.451,110,20.3Z" transform="translate(56.235 10.378)" fill="#13a654"/>
        <path id="Trazado_805829" data-name="Trazado 805829" d="M117.3,33h0l.3.151Z" transform="translate(59.967 16.87)" fill="#3d7f3c"/>
        <path id="Trazado_805830" data-name="Trazado 805830" d="M117.953,33.4l-.453-.3Z" transform="translate(60.069 16.922)" fill="#3d7f3c"/>
        <path id="Trazado_805831" data-name="Trazado 805831" d="M74.562,24.436h0L66.1,48.163H82.874ZM68.366,12.8h13l22.366,57.578H91.035L86.048,57.23H62.926L57.939,70.378H46Z" transform="translate(23.516 6.544)" fill="#2f7338"/>
        <path id="Trazado_805832" data-name="Trazado 805832" d="M55.677,60.308a31.626,31.626,0,0,1-12.392,2.267c-12.241,0-19.495-8.765-19.495-20.553s7.405-20.855,19.193-20.855A23.561,23.561,0,0,1,55.374,24.19h0l1.058.6,1.209-9.672-1.36-.6h0a41.282,41.282,0,0,0-13-2.418C23.79,12.1,11.7,23.132,11.7,42.929S24.545,71.793,43.285,71.793A65.535,65.535,0,0,0,56.432,69.98l1.36-.453-1.209-9.521Z" transform="translate(5.981 6.186)" fill="#2f7338"/>
        <path id="Trazado_805833" data-name="Trazado 805833" d="M.3,12.8H11.785V70.378H.3Z" transform="translate(0.153 6.544)" fill="#2f7338"/>
      </g>
    </g>
  </g>
</svg>
