<svg xmlns="http://www.w3.org/2000/svg" width="296" height="144" viewBox="0 0 296 144">
  <g id="Grupo_1071354" data-name="Grupo 1071354" transform="translate(-335.855 -2086)">
    <rect id="Rectángulo_375955" data-name="Rectángulo 375955" width="296" height="144" rx="17" transform="translate(335.855 2086)" fill="#fff"/>
    <g id="surface1" transform="translate(419.16 2097.779)">
      <path id="Trazado_805853" data-name="Trazado 805853" d="M120.44,60.22A60.22,60.22,0,1,1,60.22,0,60.219,60.219,0,0,1,120.44,60.22Zm0,0" transform="translate(-0.001)" fill="#ed832c"/>
      <path id="Trazado_805854" data-name="Trazado 805854" d="M147.218,45.323v69.2A60.284,60.284,0,0,1,78.044,135.1q-1.5-.548-2.954-1.18a60.4,60.4,0,0,1-24.523-19.393V24.02h75.349Zm0,0" transform="translate(-38.672 -18.369)" fill="#dcecf9"/>
      <path id="Trazado_805855" data-name="Trazado 805855" d="M158.047,110.746h46.084v6.268H158.047Zm0,0" transform="translate(-120.869 -84.695)" fill="#1b2c61"/>
      <path id="Trazado_805856" data-name="Trazado 805856" d="M111.355,165.6h68.051v6.268H111.355Zm0,0" transform="translate(-85.161 -126.647)" fill="#1b2c61"/>
      <path id="Trazado_805857" data-name="Trazado 805857" d="M111.355,220.457h68.051v6.267H111.355Zm0,0" transform="translate(-80.387 -168.599)" fill="#1b2c61"/>
      <path id="Trazado_805858" data-name="Trazado 805858" d="M370.879,45.323V24.02l21.3,21.3Zm0,0" transform="translate(-283.636 -18.369)" fill="#fff"/>
      <path id="Trazado_805859" data-name="Trazado 805859" d="M172.135,314.051l4.294,13.814,4.508,14.505-14.721-3.744-14.02-3.566,1.866-5.6,5.021-15.065Zm0,0" transform="translate(-116.394 -240.175)" fill="#fee2ba"/>
      <path id="Trazado_805860" data-name="Trazado 805860" d="M180.937,389.768l-14.721-3.744-14.02-3.566,1.866-5.6,6.174-.827Zm0,0" transform="translate(-116.394 -287.572)" fill="#dbc1a5"/>
      <path id="Trazado_805861" data-name="Trazado 805861" d="M15.009,172.3,1.425,185.882a4.866,4.866,0,0,0,.075,6.956l7.149,6.956,5-5.273,14.935-15.739L21.8,172.212A4.867,4.867,0,0,0,15.009,172.3Zm0,0" transform="translate(0 -130.678)" fill="#da263e"/>
      <path id="Trazado_805862" data-name="Trazado 805862" d="M31.719,172.3l-8.444,8.444a4.867,4.867,0,0,0,.074,6.956l7.013,6.823L45.3,178.783l-6.787-6.571A4.867,4.867,0,0,0,31.719,172.3Zm0,0" transform="translate(-16.711 -130.678)" fill="#f24355"/>
      <path id="Trazado_805863" data-name="Trazado 805863" d="M57.5,205.25l26.968,25.594a7.242,7.242,0,0,0,.268,10.237,7.241,7.241,0,1,0-9.97,10.5,7.243,7.243,0,0,0-10.237.267L37.559,226.26Zm0,0" transform="translate(-28.724 -156.968)" fill="#1b2c61"/>
      <path id="Trazado_805864" data-name="Trazado 805864" d="M89.907,205.25l26.967,25.594a7.242,7.242,0,0,0,.268,10.237,7.243,7.243,0,0,0-10.238.267L79.938,215.756Zm0,0" transform="translate(-61.134 -156.968)" fill="#3d5891"/>
      <path id="Trazado_805865" data-name="Trazado 805865" d="M68.716,227.582l32.22,30.578a7.241,7.241,0,1,0-9.97,10.5l-32.22-30.578Zm0,0" transform="translate(-44.928 -174.047)" fill="#2a407a"/>
      <path id="Trazado_805866" data-name="Trazado 805866" d="M51.595,196.971a3.072,3.072,0,0,1,.114,4.348L33.534,220.471a3.076,3.076,0,1,1-4.462-4.235l18.175-19.15A3.074,3.074,0,0,1,51.595,196.971Zm0,0" transform="translate(-21.587 -149.99)" fill="#dbc1a5"/>
      <path id="Trazado_805867" data-name="Trazado 805867" d="M69.376,196.971a3.071,3.071,0,0,1,.114,4.348l-12.7,13.387a3.076,3.076,0,1,1-4.462-4.234l12.7-13.387A3.074,3.074,0,0,1,69.376,196.971Zm0,0" transform="translate(-39.368 -149.99)" fill="#fee2ba"/>
      <path id="Trazado_805868" data-name="Trazado 805868" d="M222.01,372.777l4.508,14.505L211.8,383.539a15.2,15.2,0,0,1,10.213-10.762Zm0,0" transform="translate(-161.976 -285.087)" fill="#f24355"/>
      <path id="Trazado_805869" data-name="Trazado 805869" d="M226.518,407.128,211.8,403.385a15.068,15.068,0,0,1,2.067-4.658Zm0,0" transform="translate(-161.976 -304.933)" fill="#da263e"/>
      <path id="Trazado_805870" data-name="Trazado 805870" d="M314.831,397.365l-8.19-8.189,3.477-3.477,4.713,4.714,11.535-11.534,3.476,3.476Zm0,0" transform="translate(-234.509 -289.754)" fill="#da263e"/>
    </g>
  </g>
</svg>
