<svg id="maintenance" xmlns="http://www.w3.org/2000/svg" width="116.844" height="118.859" viewBox="0 0 116.844 118.859">
  <path id="Trazado_805604" data-name="Trazado 805604" d="M90.655,78.568H4.03A4.029,4.029,0,0,1,0,74.539V4.029A4.029,4.029,0,0,1,4.03,0h82.6a4.029,4.029,0,0,1,4.029,4.029Zm0,0" transform="translate(0)" fill="#b0d3f0"/>
  <path id="Trazado_805605" data-name="Trazado 805605" d="M248.1,207.807h-2.583a2.031,2.031,0,0,1-1.984-1.707,32.051,32.051,0,0,0-5.238-12.618,2.032,2.032,0,0,1,.2-2.619l1.827-1.829a2.015,2.015,0,0,0,0-2.848l-2.849-2.848a2.013,2.013,0,0,0-2.848,0l-1.829,1.827a2.034,2.034,0,0,1-2.619.2,32.018,32.018,0,0,0-12.618-5.238,2.03,2.03,0,0,1-1.694-1.972v-2.583a2.015,2.015,0,0,0-2.015-2.015h-4.029a2.014,2.014,0,0,0-2.014,2.015v2.583a2.031,2.031,0,0,1-1.707,1.984,32.038,32.038,0,0,0-12.618,5.238,2.033,2.033,0,0,1-2.619-.2l-1.829-1.827a2.015,2.015,0,0,0-2.848,0l-2.848,2.848a2.014,2.014,0,0,0,0,2.849l1.827,1.829a2.034,2.034,0,0,1,.2,2.619,32.014,32.014,0,0,0-5.238,12.617,2.031,2.031,0,0,1-1.985,1.707h-2.57a2.015,2.015,0,0,0-2.015,2.015v4.029a2.014,2.014,0,0,0,2.015,2.014h2.583a2.031,2.031,0,0,1,1.984,1.707,32.038,32.038,0,0,0,5.238,12.618,2.034,2.034,0,0,1-.2,2.619l-1.829,1.829a2.013,2.013,0,0,0,0,2.848l2.848,2.848a2.013,2.013,0,0,0,2.848,0l1.829-1.827a2.035,2.035,0,0,1,2.62-.2,32.014,32.014,0,0,0,12.617,5.238,2.031,2.031,0,0,1,1.707,1.985V248.1a2.014,2.014,0,0,0,2.014,2.014h4.029a2.014,2.014,0,0,0,2.015-2.014v-2.583a2.03,2.03,0,0,1,1.707-1.984,32.041,32.041,0,0,0,12.617-5.238,2.032,2.032,0,0,1,2.619.2l1.83,1.827a2.015,2.015,0,0,0,2.848,0l2.848-2.849a2.015,2.015,0,0,0,0-2.848l-1.829-1.829a2.034,2.034,0,0,1-.2-2.619,32.045,32.045,0,0,0,5.238-12.618,2.029,2.029,0,0,1,1.964-1.694H248.1a2.014,2.014,0,0,0,2.014-2.015v-4.029a2.014,2.014,0,0,0-2.014-2.014Zm0,0" transform="translate(-133.268 -133.268)" fill="#7f8c8d"/>
  <path id="Trazado_805606" data-name="Trazado 805606" d="M227.042,260.722a6.064,6.064,0,0,0-5.02-5.949,27.871,27.871,0,0,1-11.034-4.576,6.116,6.116,0,0,0-3.5-1.1,5.977,5.977,0,0,0-4.215,1.718,6.067,6.067,0,0,0,.6-7.713,27.852,27.852,0,0,1-4.573-11.028,6.063,6.063,0,0,0-5.939-5.03,6.064,6.064,0,0,0,5.949-5.02,27.869,27.869,0,0,1,4.575-11.034,6.065,6.065,0,0,0-.6-7.71,5.984,5.984,0,0,0,4.206,1.713A6.113,6.113,0,0,0,211,203.886a27.847,27.847,0,0,1,11.028-4.573,6.064,6.064,0,0,0,5.018-5.949,6.063,6.063,0,0,0,5.02,5.949,27.86,27.86,0,0,1,11.033,4.575,6.108,6.108,0,0,0,3.5,1.1,5.981,5.981,0,0,0,4.214-1.721,6.069,6.069,0,0,0-.6,7.714,27.847,27.847,0,0,1,4.573,11.028,6.064,6.064,0,0,0,5.939,5.03,6.063,6.063,0,0,0-5.949,5.02A27.861,27.861,0,0,1,250.2,243.1a6.064,6.064,0,0,0,.6,7.708,5.978,5.978,0,0,0-4.2-1.708,6.121,6.121,0,0,0-3.5,1.1,27.859,27.859,0,0,1-11.031,4.576,6.063,6.063,0,0,0-5.02,5.949Zm0,0" transform="translate(-148.474 -148.475)" fill="#95a5a5"/>
  <path id="Trazado_805607" data-name="Trazado 805607" d="M90.655,4.029V16.116H0V4.029A4.04,4.04,0,0,1,4.029,0h82.6A4.04,4.04,0,0,1,90.655,4.029Zm0,0" fill="#285680"/>
  <path id="Trazado_805608" data-name="Trazado 805608" d="M282.654,258.479A24.175,24.175,0,1,1,258.479,234.3,24.175,24.175,0,0,1,282.654,258.479Zm0,0" transform="translate(-179.911 -179.911)" fill="#35495e"/>
  <path id="Trazado_805609" data-name="Trazado 805609" d="M329.144,325.115a4.029,4.029,0,1,1-4.029-4.029A4.029,4.029,0,0,1,329.144,325.115Zm0,0" transform="translate(-246.547 -246.547)" fill="#95a5a5"/>
  <path id="Trazado_805610" data-name="Trazado 805610" d="M359.06,274.321a2.016,2.016,0,0,1-1.763-1.037,14.168,14.168,0,0,0-8.816-6.829,2.015,2.015,0,1,1,1.007-3.9,18.212,18.212,0,0,1,11.332,8.775,2.015,2.015,0,0,1-1.76,2.992Zm0,0" transform="translate(-266.39 -201.545)" fill="#547580"/>
  <path id="Trazado_805611" data-name="Trazado 805611" d="M267.6,357.325a2,2,0,0,1-1.572-.754,17.929,17.929,0,0,1-3.406-6.8,2.015,2.015,0,0,1,3.9-1.007,13.988,13.988,0,0,0,2.649,5.287,2.014,2.014,0,0,1-1.572,3.277Zm0,0" transform="translate(-201.617 -266.67)" fill="#547580"/>
  <path id="Trazado_805612" data-name="Trazado 805612" d="M305.945,396.549a18.161,18.161,0,0,1-8.785-2.266,2.016,2.016,0,1,1,1.954-3.526,14.093,14.093,0,0,0,6.831,1.763,2.015,2.015,0,0,1,0,4.029Zm0,0" transform="translate(-227.377 -299.85)" fill="#547580"/>
  <path id="Trazado_805613" data-name="Trazado 805613" d="M89.568,409.26a10.073,10.073,0,1,1-10.073-10.073A10.073,10.073,0,0,1,89.568,409.26Zm0,0" transform="translate(-53.306 -306.518)" fill="#95a5a5"/>
  <path id="Trazado_805614" data-name="Trazado 805614" d="M108.166,435.913a2.015,2.015,0,1,1-2.015-2.015A2.015,2.015,0,0,1,108.166,435.913Zm0,0" transform="translate(-79.962 -333.17)" fill="#7f8c8d"/>
  <path id="Trazado_805615" data-name="Trazado 805615" d="M30.064,28.049a2.015,2.015,0,1,1-2.015-2.014A2.015,2.015,0,0,1,30.064,28.049Zm0,0" transform="translate(-19.991 -19.991)" fill="#f0c419"/>
  <path id="Trazado_805616" data-name="Trazado 805616" d="M64.775,28.049a2.015,2.015,0,1,1-2.015-2.014A2.015,2.015,0,0,1,64.775,28.049Zm0,0" transform="translate(-46.644 -19.991)" fill="#ff5364"/>
  <path id="Trazado_805617" data-name="Trazado 805617" d="M99.487,28.049a2.015,2.015,0,1,1-2.014-2.014A2.014,2.014,0,0,1,99.487,28.049Zm0,0" transform="translate(-73.297 -19.991)" fill="#46b29d"/>
  <g id="Grupo_1066985" data-name="Grupo 1066985" transform="translate(10.073 86.626)">
    <path id="Trazado_805618" data-name="Trazado 805618" d="M106.151,381.21a2.014,2.014,0,0,1-2.014-2.014v-4.029a2.015,2.015,0,1,1,4.029,0V379.2A2.014,2.014,0,0,1,106.151,381.21Zm0,0" transform="translate(-90.035 -373.152)" fill="#7f8c8d"/>
    <path id="Trazado_805619" data-name="Trazado 805619" d="M65.961,397.738a2.018,2.018,0,0,1-1.425-.59L61.688,394.3a2.014,2.014,0,1,1,2.848-2.848l2.848,2.848a2.015,2.015,0,0,1-1.424,3.44Zm0,0" transform="translate(-56.968 -386.73)" fill="#7f8c8d"/>
    <path id="Trazado_805620" data-name="Trazado 805620" d="M49.434,437.928H45.4a2.015,2.015,0,0,1,0-4.029h4.029a2.015,2.015,0,1,1,0,4.029Zm0,0" transform="translate(-43.391 -419.796)" fill="#7f8c8d"/>
    <path id="Trazado_805621" data-name="Trazado 805621" d="M63.2,471.542a2.015,2.015,0,0,1-1.425-3.439l2.848-2.849a2.015,2.015,0,0,1,2.848,2.849l-2.848,2.848a2.011,2.011,0,0,1-1.424.59Zm0,0" transform="translate(-57.052 -443.439)" fill="#7f8c8d"/>
    <path id="Trazado_805622" data-name="Trazado 805622" d="M106.151,485.347a2.014,2.014,0,0,1-2.014-2.015V479.3a2.015,2.015,0,0,1,4.029,0v4.029A2.015,2.015,0,0,1,106.151,485.347Zm0,0" transform="translate(-90.035 -453.114)" fill="#7f8c8d"/>
    <path id="Trazado_805623" data-name="Trazado 805623" d="M139.766,471.542a2.014,2.014,0,0,1-1.425-.59l-2.848-2.848a2.015,2.015,0,0,1,2.848-2.849l2.849,2.849a2.015,2.015,0,0,1-1.425,3.439Zm0,0" transform="translate(-113.677 -443.439)" fill="#7f8c8d"/>
    <path id="Trazado_805624" data-name="Trazado 805624" d="M153.571,437.928h-4.029a2.015,2.015,0,0,1,0-4.029h4.029a2.015,2.015,0,1,1,0,4.029Zm0,0" transform="translate(-123.353 -419.796)" fill="#7f8c8d"/>
    <path id="Trazado_805625" data-name="Trazado 805625" d="M136.837,397.738a2.015,2.015,0,0,1-1.425-3.44l2.848-2.848a2.015,2.015,0,1,1,2.849,2.848l-2.849,2.849A2.015,2.015,0,0,1,136.837,397.738Zm0,0" transform="translate(-113.597 -386.73)" fill="#7f8c8d"/>
  </g>
  <path id="Trazado_805626" data-name="Trazado 805626" d="M45.4,112.813H57.493a2.014,2.014,0,0,1,2.014,2.015v12.087a2.014,2.014,0,0,1-2.014,2.015H45.4a2.014,2.014,0,0,1-2.014-2.015V114.828A2.014,2.014,0,0,1,45.4,112.813Zm0,0" transform="translate(-33.318 -86.624)" fill="#ecf0f1"/>
  <path id="Trazado_805627" data-name="Trazado 805627" d="M180.531,108.166H132.182a2.015,2.015,0,1,1,0-4.029h48.349a2.015,2.015,0,1,1,0,4.029Zm0,0" transform="translate(-99.949 -79.962)" fill="#285680"/>
  <path id="Trazado_805628" data-name="Trazado 805628" d="M66.944,212.3H36.726a2.015,2.015,0,1,1,0-4.03H66.944a2.015,2.015,0,1,1,0,4.03Zm0,0" transform="translate(-26.653 -159.921)" fill="#285680"/>
  <path id="Trazado_805629" data-name="Trazado 805629" d="M62.914,247.014H36.725a2.015,2.015,0,1,1,0-4.029H62.914a2.015,2.015,0,1,1,0,4.029Zm0,0" transform="translate(-26.652 -186.577)" fill="#285680"/>
  <path id="Trazado_805630" data-name="Trazado 805630" d="M58.886,281.725H36.726a2.015,2.015,0,1,1,0-4.029h22.16a2.015,2.015,0,1,1,0,4.029Zm0,0" transform="translate(-26.653 -213.23)" fill="#285680"/>
  <path id="Trazado_805631" data-name="Trazado 805631" d="M148.3,177.588H132.183a2.015,2.015,0,1,1,0-4.029H148.3a2.015,2.015,0,1,1,0,4.029Zm0,0" transform="translate(-99.95 -133.268)" fill="#285680"/>
  <path id="Trazado_805632" data-name="Trazado 805632" d="M170.459,142.877H132.182a2.015,2.015,0,1,1,0-4.029h38.277a2.015,2.015,0,0,1,0,4.029Zm0,0" transform="translate(-99.949 -106.615)" fill="#285680"/>
</svg>
