<svg xmlns="http://www.w3.org/2000/svg" width="96" height="96" viewBox="0 0 96 96">
  <g id="Grupo_1070239" data-name="Grupo 1070239" transform="translate(-921.333 -418)">
    <g id="Grupo_1070349" data-name="Grupo 1070349">
      <g id="Grupo_246409" data-name="Grupo 246409" transform="translate(-430 123)">
        <circle id="Elipse_4282" data-name="Elipse 4282" cx="48" cy="48" r="48" transform="translate(1351.333 295)" fill="#fffad0"/>
      </g>
      <g id="vaca_3_" data-name="vaca (3)" transform="translate(938.845 434.516)">
        <path id="Trazado_814793" data-name="Trazado 814793" d="M396.983,89.817l-2.229-5.179s4.97-3.612,10.13-2.924a2.236,2.236,0,0,1,1.9,1.9,12.643,12.643,0,0,1,.127,2.324Zm0,0" transform="translate(-345.767 -71.588)" fill="#303746"/>
        <path id="Trazado_814794" data-name="Trazado 814794" d="M10.437,89.817l2.229-5.179S7.7,81.026,2.536,81.714a2.236,2.236,0,0,0-1.9,1.9,12.643,12.643,0,0,0-.127,2.324Zm0,0" transform="translate(0 -71.588)" fill="#303746"/>
        <path id="Trazado_814795" data-name="Trazado 814795" d="M422.807,112.046c-.135,3.138-1.658,7.1-8.381,7.471l-1.547-3.6a7.473,7.473,0,0,1,9.928-3.875Zm0,0" transform="translate(-361.663 -97.692)" fill="#ffbec5"/>
        <path id="Trazado_814796" data-name="Trazado 814796" d="M.582,112.046c.135,3.138,1.658,7.1,8.381,7.471l1.547-3.6a7.473,7.473,0,0,0-9.928-3.875Zm0,0" transform="translate(-0.073 -97.692)" fill="#ffbec5"/>
        <path id="Trazado_814797" data-name="Trazado 814797" d="M51.407,76.469c-1.4-4.155-1.688-9.263-1.212-15.185L69.716,29.9a20.07,20.07,0,0,1,3.569-.325c.625,0,1.251,0,1.876,0a20.07,20.07,0,0,1,3.569.325l19.522,31.38h0c.476,5.922.189,11.03-1.212,15.185Zm0,0" transform="translate(-43.397 -25.94)" fill="#eaeaea"/>
        <path id="Trazado_814798" data-name="Trazado 814798" d="M204.162,29.89l-.881,1.416a21.044,21.044,0,0,1,4.682-1.416,20.787,20.787,0,0,1,2.605-.3c-.183-.009-.682-.022-.766-.023-.69-.006-1.38,0-2.071,0q-.149,0-.319,0A20.394,20.394,0,0,0,204.162,29.89Zm0,0" transform="translate(-177.843 -25.927)" fill="#d4d3d9"/>
        <path id="Trazado_814799" data-name="Trazado 814799" d="M54,233.1c.193-2.405.512-4.947.934-7.612L50.2,233.1c-.149,1.851-.223,3.622-.212,5.309a31.645,31.645,0,0,0,1.424,9.876h3.8c-1.4-4.155-1.688-9.263-1.212-15.185Zm0,0" transform="translate(-43.399 -197.76)" fill="#d4d3d9"/>
        <path id="Trazado_814800" data-name="Trazado 814800" d="M68.388,61.561c-5.064,4.161-10.141-2.824-16.673,2.043.255-3.176.729-6.587,1.37-10.21,2.824-15.975,12.391-20.136,18.151-21.171-3.294,10.141,7.394,20.8-2.849,29.339Zm0,0" transform="translate(-44.917 -28.259)" fill="#3b4456"/>
        <path id="Trazado_814801" data-name="Trazado 814801" d="M291.055,63.6c-6.532-4.865-11.609,2.12-16.673-2.041-10.242-8.538.445-19.2-2.849-29.339,5.76,1.035,15.327,5.2,18.151,21.171.641,3.623,1.116,7.033,1.371,10.209Zm0,0" transform="translate(-236.199 -28.26)" fill="#3b4456"/>
        <path id="Trazado_814802" data-name="Trazado 814802" d="M142.817,218.73a.95.95,0,0,1-.95-.95v-2.42a.95.95,0,1,1,1.9,0v2.42A.95.95,0,0,1,142.817,218.73Zm0,0" transform="translate(-123.982 -188.041)" fill="#eaeaea"/>
        <path id="Trazado_814803" data-name="Trazado 814803" d="M337.822,218.73a.95.95,0,0,1-.95-.95v-2.42a.95.95,0,0,1,1.9,0v2.42A.951.951,0,0,1,337.822,218.73Zm0,0" transform="translate(-295.003 -188.041)" fill="#eaeaea"/>
        <path id="Trazado_814804" data-name="Trazado 814804" d="M107.2,322.413c-2.687,7.971-9.469,12.438-22.817,12.438s-20.13-4.468-22.817-12.438c4.111-7.341,12.784-12.4,22.817-12.4S103.094,315.072,107.2,322.413Zm0,0" transform="translate(-53.561 -271.884)" fill="#ffbec5"/>
        <path id="Trazado_814805" data-name="Trazado 814805" d="M86.287,395.118c-12.1-.411-18.36-4.823-20.916-12.406a24.927,24.927,0,0,1-.96-3.947,21.823,21.823,0,0,0-2.841,3.947,16.045,16.045,0,0,0,8.12,9.592c4.769,2.452,10.292,2.919,15.572,2.838.052,0,.738-.015,1.025-.025Zm0,0" transform="translate(-53.561 -332.183)" fill="#ffa0ab"/>
        <path id="Trazado_814806" data-name="Trazado 814806" d="M55.673,61.891c.272-2.681.685-5.516,1.212-8.5,2.219-12.552,8.6-17.81,14.029-19.99q.131-.592.322-1.182c-.63.113-1.306.264-2.013.463A21.68,21.68,0,0,0,55.8,44.516a42.4,42.4,0,0,0-3.159,11.556c-.394,2.5-.72,5.01-.922,7.532a8.632,8.632,0,0,1,3.959-1.713Zm0,0" transform="translate(-44.916 -28.26)" fill="#303746"/>
        <path id="Trazado_814807" data-name="Trazado 814807" d="M224.82,434.5a3.824,3.824,0,0,1-2.889-1.287.95.95,0,1,1,1.431-1.251,1.987,1.987,0,0,0,2.916,0,.95.95,0,0,1,1.431,1.251A3.827,3.827,0,0,1,224.82,434.5Zm0,0" transform="translate(-193.993 -378.552)" fill="#303746"/>
        <path id="Trazado_814808" data-name="Trazado 814808" d="M156.713,361.524c-1.1-2.511-3.378-3.938-5.1-3.188s-2.226,3.394-1.13,5.906,3.378,3.938,5.1,3.188S157.808,364.036,156.713,361.524Zm0,0" transform="translate(-131.032 -314.091)" fill="#ffa0ab"/>
        <path id="Trazado_814809" data-name="Trazado 814809" d="M289.92,358.289c-1.72-.75-4,.677-5.1,3.188s-.589,5.155,1.13,5.906,4-.677,5.1-3.188S291.64,359.04,289.92,358.289Zm0,0" transform="translate(-248.848 -314.05)" fill="#ffa0ab"/>
        <path id="Trazado_814810" data-name="Trazado 814810" d="M329.319.15a2.4,2.4,0,0,0-2.821.9,18.054,18.054,0,0,1-3.385,3.668,3.92,3.92,0,0,0-.879,5.051,3.876,3.876,0,0,0,2.03,1.6,3.948,3.948,0,0,0,4.521-1.455,13.083,13.083,0,0,0,2.094-7.539A2.379,2.379,0,0,0,329.319.15Zm0,0" transform="translate(-281.671 0)" fill="#f3e177"/>
        <path id="Trazado_814811" data-name="Trazado 814811" d="M324.767,11.033a3.92,3.92,0,0,1,.879-5.051,18.054,18.054,0,0,0,3.385-3.668A2.366,2.366,0,0,1,330.618,1.3a2.4,2.4,0,0,0-4.12-.253,18.053,18.053,0,0,1-3.385,3.668,3.92,3.92,0,0,0-.879,5.051,3.875,3.875,0,0,0,2.03,1.6,3.8,3.8,0,0,0,.91.207,3.689,3.689,0,0,1-.407-.539Zm0,0" transform="translate(-281.671 0)" fill="#efbb63"/>
        <path id="Trazado_814812" data-name="Trazado 814812" d="M99.192.15a2.4,2.4,0,0,1,2.821.9A18.066,18.066,0,0,0,105.4,4.716a3.92,3.92,0,0,1,.88,5.051,3.878,3.878,0,0,1-2.031,1.6,3.948,3.948,0,0,1-4.521-1.455,13.087,13.087,0,0,1-2.094-7.539A2.379,2.379,0,0,1,99.192.15Zm0,0" transform="translate(-85.187 0)" fill="#f3e177"/>
        <path id="Trazado_814813" data-name="Trazado 814813" d="M105.515,10.832a3.946,3.946,0,0,1-4.521-1.455,12.791,12.791,0,0,1-2.09-7.1,2.376,2.376,0,0,0-1.271,2.092,13.084,13.084,0,0,0,2.094,7.539,3.947,3.947,0,0,0,4.521,1.455,3.876,3.876,0,0,0,2.03-1.6,3.74,3.74,0,0,0,.552-1.695,4.146,4.146,0,0,1-1.316.76Zm0,0" transform="translate(-85.187 -2.001)" fill="#efbb63"/>
      </g>
    </g>
  </g>
</svg>
